<svg id="Layer_1" data-name="Layer 1" xmlns="http://www.w3.org/2000/svg" viewBox="0 0 243.15 481.28"><defs><style>.cls-1{fill:#77787b;}.cls-2{fill:#447340;}.cls-3{fill:#231f20;}.cls-4{fill:#f69799;}.cls-5{fill:#f89938;}.cls-6{fill:#febf39;}.cls-7{fill:#fee845;}.cls-8{fill:#f3a543;}.cls-9{fill:#cf2027;}.cls-10{fill:#d05558;}.cls-11{fill:none;stroke:#231f20;stroke-miterlimit:10;stroke-width:5px;}</style></defs><g id="colour"><g id="trisky"><path class="cls-1" d="M194.77,435.32V436A11.26,11.26,0,0,0,197.7,443a11.11,11.11,0,0,0,7.07,2.93l2.66-.36a9.94,9.94,0,0,0,4.42-2.57l1.56-2a9.9,9.9,0,0,0,1.36-5v-.65a7.41,7.41,0,0,0-.86-3.85,7.53,7.53,0,0,0-2.06-3.22,11.11,11.11,0,0,0-7.08-2.93l-2.65.36a9.94,9.94,0,0,0-4.42,2.57l-1.56,2a9.94,9.94,0,0,0-1.37,5Z" transform="translate(-137.64 -22.22)"/><path class="cls-1" d="M303.46,433.92a168,168,0,0,1-5.3-24.71l.36,2.66a167.45,167.45,0,0,1,0-44.39l-.36,2.66c.23-1.7.49-3.4.77-5.09l-14.69,6a7,7,0,0,1,.81.52L283,370a6.82,6.82,0,0,1,.65.67l-1.56-2a7.06,7.06,0,0,1,.64,1.09l-1-2.39a11.54,11.54,0,0,1,.76,2.95l-.36-2.66c.31,2.68.35,5.42.5,8.11l.5,9.15,1,18A10.58,10.58,0,0,0,287,410a10,10,0,0,0,14.14,0,11.22,11.22,0,0,0,2.93-7.07c.5-5.77,1-11.54,1.78-17.28l-.35,2.66a114.87,114.87,0,0,1,4.64-21l-19.64-2.66.94,41.64a10.47,10.47,0,0,0,2.93,7.08,10,10,0,0,0,14.15,0l1.56-2a9.94,9.94,0,0,0,1.36-5.05l4-40.53h-20l3.28,37.09a10.74,10.74,0,0,0,2.92,7.08,10,10,0,0,0,14.15,0,11.24,11.24,0,0,0,2.93-7.08l3.05-35.91h-20a227.45,227.45,0,0,0,5.88,35.75A10,10,0,0,0,327.35,400l-.41-37.51-19.64,2.65,4.3,28.73c.34,2.21,2.68,5,4.6,6a10.32,10.32,0,0,0,6.38,1.18,10,10,0,0,0,8.67-9.82l.39-20.62L312,373.27a100.15,100.15,0,0,1,2.9,13.93l-.36-2.66a102.76,102.76,0,0,1,0,26.63l.35-2.66a100.61,100.61,0,0,1-6.8,25.28l14.69-6c-6.41-3.41-14.52-4.5-21.37-1.66l12.66,9.64,1-29.38-19.64,2.66,2.06,15.07,1,2.38a7.56,7.56,0,0,0,2.57,2.81,9.61,9.61,0,0,0,6.06,2.15,10.37,10.37,0,0,0,9.64-7.34l3.44-10.84-19.64-2.65,1,8.55c.32,2.74.9,5,2.93,7.07a10,10,0,0,0,14.14,0c1.67-1.82,3.23-4.5,2.93-7.07l-1-8.55c-.31-2.62-.87-5.19-2.93-7.08a10.32,10.32,0,0,0-5.74-2.75,10,10,0,0,0-11,7.17l-3.44,10.83h19.28l-2.06-15.07c-.3-2.2-2.7-5-4.59-6a10.27,10.27,0,0,0-6.38-1.19,10,10,0,0,0-8.67,9.82l-1,29.38a9.68,9.68,0,0,0,3.94,7.85c2.27,1.76,5.87,3,8.72,1.79a17.18,17.18,0,0,1,4-1.1l-2.66.36a17.46,17.46,0,0,1,4.15,0l-2.66-.36a17.45,17.45,0,0,1,4,1.06l-2.39-1c.51.22,1,.45,1.5.72a10,10,0,0,0,8.9.5,7.45,7.45,0,0,0,3.22-2.07,10,10,0,0,0,2.57-4.41A111,111,0,0,0,334.6,385a117,117,0,0,0-3.31-17,10,10,0,0,0-19.65,2.65l-.39,20.62,19.64-2.66-4.31-28.72c-.33-2.22-2.67-5-4.59-6a10.33,10.33,0,0,0-6.38-1.19,10,10,0,0,0-8.67,9.83l.41,37.51L327,397.36a210.47,210.47,0,0,1-4.41-22.94l.35,2.66c-.44-3.38-.82-6.76-1.11-10.16a10.74,10.74,0,0,0-2.92-7.07,10,10,0,0,0-14.15,0,11.24,11.24,0,0,0-2.93,7.07l-3.05,35.91h20l-3.28-37.09a10.77,10.77,0,0,0-2.93-7.07,10,10,0,0,0-14.14,0l-1.57,2a9.93,9.93,0,0,0-1.36,5l-4,40.53h20l-.94-41.64a10,10,0,0,0-8.67-9.82c-5.06-.68-9.37,2.39-11,7.16-4.41,13.17-5.59,27.18-6.79,40.93h20q-.64-11.85-1.3-23.72c-.21-3.73-.27-7.51-.65-11.23a22.83,22.83,0,0,0-1.65-7.14,14,14,0,0,0-6.2-7.06,10,10,0,0,0-8.9-.5c-2.61,1.1-5.29,3.5-5.79,6.48a173.78,173.78,0,0,0,.62,63.12,167.11,167.11,0,0,0,4,16.39,10.45,10.45,0,0,0,4.59,6,10.23,10.23,0,0,0,7.71,1c5.08-1.64,8.57-6.92,7-12.3Z" transform="translate(-137.64 -22.22)"/><path class="cls-1" d="M215.93,431.28a152.46,152.46,0,0,1-6.3-27.34l.36,2.66a138.48,138.48,0,0,1-.39-36.21l-.36,2.65a41.43,41.43,0,0,1,2.63-10.28l-1,2.39a26,26,0,0,1,3-5.24l-1.57,2,.26-.33-17.08-7.07q.64,20.32,1.27,40.65a10,10,0,0,0,19.64,2.66l8-30.4H205.08a34.55,34.55,0,0,1,1.44,6.35l-.36-2.66c.68,5.48.29,11,.11,16.5-.2,6.21,0,12.54,1.67,18.57a10,10,0,0,0,11,7.16,9.45,9.45,0,0,0,5.74-2.75l1.57-2a9.94,9.94,0,0,0,1.36-5.05c1-8.33,1.88-16.68,3-25l-.36,2.66a57.48,57.48,0,0,1,3.59-14.63l-1,2.39.18-.42-18.63-5.05.32,30.45a10.32,10.32,0,0,0,2.92,7.07,10,10,0,0,0,14.15,0,11.24,11.24,0,0,0,2.93-7.07c.39-4.65.79-9.31,1.41-13.94l-.36,2.66a105.59,105.59,0,0,1,2-10.9l-19.64-2.66,2,26.94a10.68,10.68,0,0,0,2.93,7.07,10.15,10.15,0,0,0,7.07,2.93,10,10,0,0,0,7.07-2.93l1.57-2a9.94,9.94,0,0,0,1.36-5.05q2-15.37,2.56-30.88L223,367.82a115.76,115.76,0,0,1,2.71,13.66l-.36-2.66a116,116,0,0,1,0,30.47l.36-2.65A114.93,114.93,0,0,1,219,432.69l12.3-7-5.55-.94a31.74,31.74,0,0,1-5.16-1l2.38,1-.3-.17,2,1.57-.26-.24,1.56,2-.19-.29,1,2.39a1.9,1.9,0,0,1-.18-.67l.35,2.66a39.77,39.77,0,0,1,.52-5.54l.67-6.18,1.32-12.13c.26-2.39-1.3-5.45-2.93-7.07a10,10,0,0,0-14.14,0,11.48,11.48,0,0,0-2.93,7.07l-2.2,20.29a16.53,16.53,0,0,0,.11,6.57,11.74,11.74,0,0,0,8.56,8.21c3.28.76,6.7,1.14,10,1.7,2.61.44,5.37.5,7.71-1a11.55,11.55,0,0,0,4.6-6,121.23,121.23,0,0,0,7.24-57.63,132.1,132.1,0,0,0-3.26-17.87,10,10,0,0,0-19.64,2.66q-.54,15.49-2.56,30.88h20l-2-26.94a10.47,10.47,0,0,0-2.93-7.07,10.25,10.25,0,0,0-5.74-2.75c-4.76-.64-9.79,2.3-11,7.16-2.2,9-3,18.29-3.78,27.5h20l-.32-30.45c0-4.23-3.06-8.67-7.34-9.64a11.94,11.94,0,0,0-5.32,0c-2.11.48-5.08,2.54-6,4.59A56.89,56.89,0,0,0,211.89,370c-.82,4-1.29,8.12-1.78,12.2q-1.28,10.68-2.53,21.35l19.64-2.66a37.61,37.61,0,0,1-.95-4.7l.35,2.66c-.74-5.79-.29-11.61-.12-17.42.19-6.44-.08-13.14-2.14-19.3-1.35-4-5.12-7.54-9.64-7.34a10.25,10.25,0,0,0-9.64,7.34l-8,30.4,19.64,2.66q-.63-20.32-1.27-40.65a10.08,10.08,0,0,0-6.14-9.14,9.68,9.68,0,0,0-5.18-.68c-2,.27-4.47,1.12-5.75,2.75a44.43,44.43,0,0,0-3.39,4.7,42.63,42.63,0,0,0-2.44,5.27,37.41,37.41,0,0,0-2.1,7,107.75,107.75,0,0,0-1.77,17.84A162.92,162.92,0,0,0,191.78,418a152.57,152.57,0,0,0,4.87,18.56,10.54,10.54,0,0,0,4.59,6A10,10,0,0,0,214.93,439a10.06,10.06,0,0,0,1-7.71Z" transform="translate(-137.64 -22.22)"/></g><g id="telo_rakety" data-name="telo rakety"><path class="cls-2" d="M326.06,363.39c5.24,0,10.25-4.6,10-10a10.17,10.17,0,0,0-10-10c-5.23,0-10.24,4.6-10,10a10.18,10.18,0,0,0,10,10Z" transform="translate(-137.64 -22.22)"/><path class="cls-2" d="M269.61,39.19v-.4c0-5.23-4.6-10.24-10-10a10.18,10.18,0,0,0-10,10v.4c0,5.23,4.6,10.25,10,10a10.17,10.17,0,0,0,10-10v-.4c0-5.23-4.6-10.24-10-10a10.18,10.18,0,0,0-10,10v.4c0,5.23,4.6,10.25,10,10a10.17,10.17,0,0,0,10-10Z" transform="translate(-137.64 -22.22)"/><path class="cls-2" d="M265.88,52.24l-.12-.25L267,55a6.15,6.15,0,0,1-.41-1.51l.44,3.32a6.59,6.59,0,0,1,0-1.66l-.45,3.32a6.33,6.33,0,0,1,.44-1.6l-1.26,3a5.85,5.85,0,0,1,.43-.82l-19.64,2.53a4.59,4.59,0,0,1,.36.41l-2-2.53a4.3,4.3,0,0,1,.5.85l-1.26-3a4.33,4.33,0,0,1,.31,1.12l-.44-3.32a4.87,4.87,0,0,1,0,1.08l.45-3.33c0,.12,0,.24-.07.36a9.48,9.48,0,0,0-.22,5,9.35,9.35,0,0,0,1.48,4.65,9.46,9.46,0,0,0,3.22,3.51,9.43,9.43,0,0,0,4.25,2.23l3.33.45a12.4,12.4,0,0,0,6.31-1.71l2.53-2a12.53,12.53,0,0,0,3.21-5.52A34.57,34.57,0,0,0,269.1,56a4.87,4.87,0,0,0,0-.54,28.35,28.35,0,0,0-.49-3.81,4.54,4.54,0,0,0-.12-.53,17.08,17.08,0,0,0-4.25-7.29,12.55,12.55,0,0,0-5.51-3.21,9.42,9.42,0,0,0-5-.22,9.32,9.32,0,0,0-4.65,1.48,12.65,12.65,0,0,0-4.48,4.48,5.23,5.23,0,0,0-.37.7c-.49,1.07-1,2.18-1.39,3.28-.05.13-.1.26-.14.39a5.36,5.36,0,0,0-.18.77c-.21,1.2-.36,2.43-.5,3.64,0,.14,0,.28,0,.42a5.21,5.21,0,0,0,0,.79c0,.14,0,.27,0,.41.15,1.2.28,2.41.5,3.6a7.19,7.19,0,0,0,.2.8,34.86,34.86,0,0,0,1.54,3.68,9.51,9.51,0,0,0,3.22,3.5,11.2,11.2,0,0,0,9.24,2.46,9.32,9.32,0,0,0,4.65-1.48l2.53-2a12.53,12.53,0,0,0,3.21-5.52l.45-3.32a12.48,12.48,0,0,0-1.71-6.31Z" transform="translate(-137.64 -22.22)"/><path class="cls-2" d="M249.15,65.65Q240.47,95,231.5,124.22t-18.17,58.42q-5.18,16.4-10.44,32.76l24.55,3.33q.56-6.93,1.48-13.82l-.45,3.33c4.35-32.24,14.33-63.35,25.44-93.82,3.13-8.57,6.34-17.1,9.57-25.64,1-2.75.3-7.2-1.27-9.63a12.87,12.87,0,0,0-6-5.11,12,12,0,0,0-8.14-.63l-3,1.26a12.49,12.49,0,0,0-4.48,4.48c-11.86,16.28-19.29,35.51-25.06,54.67a401.26,401.26,0,0,0-13.41,64q-2.28,17.58-2.91,35.32c-.24,6.54,5.92,12.79,12.5,12.5a12.65,12.65,0,0,0,8.83-3.66l2-2.53a12.48,12.48,0,0,0,1.71-6.31c.77-6.28,1.55-12.56,2.39-18.83l-.44,3.32c3-22.4,6.74-44.84,13.6-66.43q2.88-9,6.54-17.81l-1.26,3a168,168,0,0,1,14.41-27.12l-23.29-6.31-10.44,82-2.95,23.24h25c1.12-10.18,2.26-20.36,3.62-30.51L251,181c2.75-20.46,6.4-40.89,12.79-60.56,1.81-5.55,3.83-11,6.09-16.4l-1.26,3q2.08-4.92,4.44-9.72L250.2,87.7c-4.79,33.41-9.72,67-9.84,100.8,0,9.24.31,18.49,1.1,27.7.28,3.22,1.17,6.55,3.66,8.84a12.94,12.94,0,0,0,7.18,3.44,11.94,11.94,0,0,0,8-1.49c2.53-1.63,5.3-4.34,5.75-7.47a329.7,329.7,0,0,0,2.82-47.21c0-14.69-.5-29.39,0-44.07.26-8.23.82-16.46,1.9-24.62l-.45,3.32a159.83,159.83,0,0,1,4.93-23.62L250.63,80l2.58,47.9,1.3,24.24c.4,7.47.5,15,1.26,22.48.53,5.12,1.38,9.54,3.71,14.17a20.83,20.83,0,0,0,12.63,10.3C279.89,201.4,288,195,287.93,187l-.36-73.27-.11-20.66-24.55,3.32c.08.55.15,1.1.22,1.65l-.44-3.32c4.22,31.82,3.67,64.07,8.75,95.82a48.54,48.54,0,0,0,3.64,12.2A26.1,26.1,0,0,0,285,214a12.58,12.58,0,0,0,6.31,1.71,12.37,12.37,0,0,0,7.57-2.69,11.78,11.78,0,0,0,3.85-5,13.24,13.24,0,0,0,.63-8.14c-2.3-12-4.59-24-6.23-36.11l.45,3.33c-2.26-17-3.2-34.16-.92-51.16l-24.56,3.32,10.46,55.63L293,230.8,296,246.37c.94,5,2,10,2.77,15l-.45-3.32a22.08,22.08,0,0,1,.15,5.51l.45-3.33a12.11,12.11,0,0,1-.71,2.72l1.26-3a9.88,9.88,0,0,1-1,1.72l2-2.53a6.48,6.48,0,0,1-.54.62l19.64,2.53c-.27-.61-.53-1.22-.79-1.84l1.26,3a163.81,163.81,0,0,1-11.18-41.41l.44,3.32a174.69,174.69,0,0,1,.08-46l-.45,3.33a177.13,177.13,0,0,1,4.59-22.58H289.32q.93,6.09,1.75,12.18l-.45-3.32a734.32,734.32,0,0,1,6.5,89.76q.15,12.87-.17,25.73l24.56-3.32q-1.29-6.49-2.18-13.06l.45,3.32a174.44,174.44,0,0,1-.28-45.88l-.45,3.33a143.87,143.87,0,0,1,4.23-20.12l-24.56-3.32q2.91,38.34,2.36,76.84-.16,10.85-.6,21.68h25a175.1,175.1,0,0,1,.46-42.06l-.45,3.32a176.31,176.31,0,0,1,4.34-21.71l-24.55-3.33-5.89,70-1.68,20,24.55-3.32q-1.8-8-2.89-16l.45,3.32a180.14,180.14,0,0,1,.05-47.65l-.45,3.32q.33-2.41.72-4.83l-24.55-3.32c-.3,2.38-.61,4.77-.93,7.15l.45-3.32q-3.86,28.61-9.86,56.87h24.11q-1.64-8-2.73-16.18l.45,3.32c-3.19-23.93-3.1-48.13-2.28-72.21.24-6.77.53-13.53.82-20.29a12.56,12.56,0,0,0-3.66-8.84,12.81,12.81,0,0,0-7.18-3.44c-5.81-.78-12.42,2.84-13.71,8.95-6.2,29.21-6.92,59.35-8.66,89.06L271,327.63l24.56-3.33q-1.85-8.81-3-17.74l.44,3.32c-3.67-27.78-2.9-55.89-1.13-83.78.5-7.93,1.08-15.86,1.67-23.78h-25L263.38,295,262,321l24.55-3.32q-1-5.43-1.7-10.9l.44,3.32c-4-30.08-3-60.52-.88-90.71.6-8.56,1.3-17.11,2-25.67l-.45-3.32a9.39,9.39,0,0,0-2.24-4.25,11.94,11.94,0,0,0-6.49-4.48,14.93,14.93,0,0,0-6.65,0c-2.65.61-6.33,3.18-7.47,5.75a102.86,102.86,0,0,0-7,22.34c-1.47,7.66-2.37,15.44-3.34,23.18q-2.76,22.11-5.06,44.27-1.31,12.62-2.47,25.25h25C267.56,273.29,269.76,244,273,215c.93-8.21,1.93-16.4,2.94-24.6.35-2.83-1.62-7-3.66-8.84a12.82,12.82,0,0,0-7.18-3.44,12,12,0,0,0-8,1.48,14,14,0,0,0-5.74,7.47c-9.84,27.56-11,57.24-13.31,86.13-.65,8-1.4,15.93-2.45,23.86l.44-3.32c-.64,4.81-1.4,9.6-2.32,14.37l24.55,3.32c-3-25.83-2.86-51.87-2.06-77.82.22-7.29.5-14.58.78-21.87a12.91,12.91,0,0,0-9.18-12.06,14.88,14.88,0,0,0-6.64,0c-2.7.62-6.29,3.18-7.47,5.75a75.2,75.2,0,0,0-6,18.88A198,198,0,0,0,225.58,244q-1.29,18.94-1.84,37.92-.3,10.69-.37,21.39h25q-.68-38.43-.27-76.86.12-10.92.32-21.83a12.52,12.52,0,0,0-24.55-3.33c-8,24.68-10.82,50.76-12.5,76.54-.46,7.14-.83,14.28-1.2,21.43l24.55-3.33q-1.44-7.59-2.47-15.25l.45,3.32c-3-22.47-3.55-45.16-4.07-67.8a12.52,12.52,0,0,0-24.55-3.32c-7.24,24.1-7,49.67-4.83,74.5.6,6.82,1.34,13.62,2.08,20.42.37,3.41,1.15,6.32,3.66,8.83a12.48,12.48,0,0,0,17.68,0c2.16-2.34,3.88-5.54,3.66-8.83q-2.12-31.37-5.46-62.64-1-8.93-2-17.85c-.39-3.27-1.09-6.48-3.66-8.84A12.86,12.86,0,0,0,208,215a12,12,0,0,0-8,1.48c-2.58,1.67-5.19,4.31-5.74,7.47-4.78,27.33-5.28,55.57.08,82.87A106.85,106.85,0,0,0,200.3,327c1.24,3,2.71,5.86,5.75,7.47a12.9,12.9,0,0,0,8,1.48,12.48,12.48,0,0,0,10.84-12.28,207.14,207.14,0,0,0-9.72-60.92,12.55,12.55,0,0,0-13.71-9c-5.87.78-11.13,6-10.84,12.27a253.32,253.32,0,0,0,9.93,59.76q2.35,8,5.26,15.76c1.11,3,2.8,5.92,5.74,7.47a12.93,12.93,0,0,0,8,1.48,12.45,12.45,0,0,0,10.84-12.27l-.93-51.67-24.55,3.33c2.91,16.23,5.88,32.55,11.68,48,1.12,3,2.8,5.91,5.75,7.47a12.84,12.84,0,0,0,8,1.49c6.38-.86,10.41-6,10.84-12.28a138.29,138.29,0,0,0-3.84-42.17,12.51,12.51,0,0,0-15.38-8.73,12.63,12.63,0,0,0-7.47,5.74l-1.26,3a12.68,12.68,0,0,0,0,6.64c1.2,8.14,2.45,16.32,4.78,24.23a92.38,92.38,0,0,0,5.3,13.72,65.28,65.28,0,0,0,8.25,12.58l2.53,2,3,1.26a12.44,12.44,0,0,0,8.14-.63,12.59,12.59,0,0,0,7.69-11.43,311.75,311.75,0,0,0-2.13-41.43l-24.56,3.33,13.28,38.66c1,3,2.87,5.95,5.74,7.47a12.85,12.85,0,0,0,8,1.49A12.48,12.48,0,0,0,264,338L263.76,309l-23.29,6.31q9.19,18,19.91,35.23a12.58,12.58,0,0,0,12.46,6,11.8,11.8,0,0,0,5.91-2.46,6.17,6.17,0,0,0,2.24-2.24,9.45,9.45,0,0,0,2.24-4.25c2.49-5.91,1.73-13,.17-19-1.19-4.61-3-9-3.68-13.77l.44,3.32a24.22,24.22,0,0,1-.2-3.9l-23.29,6.31a100.38,100.38,0,0,0,23,31.16,12.83,12.83,0,0,0,7.18,3.43,12,12,0,0,0,8-1.48,14.84,14.84,0,0,0,4.48-4.48c1.84-2.85,1.89-6.46,1.26-9.64a84.71,84.71,0,0,0-8.88-24l-19.64,15.15,14.44,16.17a12.54,12.54,0,0,0,8.84,3.66,13,13,0,0,0,7.58-2.69c4.69-3.62,6.64-10.87,3.21-16.12a20,20,0,0,0-13.7-9.15,39.34,39.34,0,0,0-7.25-.59c-2.08.06-4.16.22-6.24.33l-25.69,1.45c-7.24.4-14.5.68-21.71,1.48s-14.67,1.86-21.6,4.39c-8.28,3-16.23,7.43-21.93,14.3-2.18,2.61-3.67,5.32-3.67,8.83a12.72,12.72,0,0,0,3.67,8.84,12.53,12.53,0,0,0,8.83,3.66c3.14-.14,6.75-1.14,8.84-3.66a35.11,35.11,0,0,1,5.25-5.09l-2.53,2a41,41,0,0,1,8.7-5l-3,1.27a71.09,71.09,0,0,1,18.21-4.6l-3.32.44c9.53-1.24,19.18-1.51,28.76-2.05l16.67-.93c4.82-.27,9.86-1,14.67-.44l-3.32-.45a13.35,13.35,0,0,1,2.93.72l-3-1.26a8.6,8.6,0,0,1,1.87,1.06l-2.53-2a7.49,7.49,0,0,1,1,1l-2-2.53a5.16,5.16,0,0,1,.43.61l19.63-15.15L289.76,313a12.52,12.52,0,0,0-8.84-3.66,13,13,0,0,0-7.57,2.68,12.56,12.56,0,0,0-3.22,16.13q1.83,3.36,3.33,6.88l-1.26-3a75,75,0,0,1,4.3,14.12L297.39,334a93,93,0,0,1-10.81-11.72l2,2.53a92.09,92.09,0,0,1-10.28-16.91l-2-2.53a9.29,9.29,0,0,0-4-2.58,12,12,0,0,0-8.14-.63A13,13,0,0,0,255,314.19a43.76,43.76,0,0,0,2.23,13.93A77.09,77.09,0,0,1,260.07,339l-.44-3.33a19.52,19.52,0,0,1,.06,4.95l.45-3.33a14.67,14.67,0,0,1-1,3.62l22.85-3q-10.71-17.19-19.91-35.24l-2-2.53a9.29,9.29,0,0,0-4-2.58,12,12,0,0,0-8.14-.63A12.83,12.83,0,0,0,238.76,309L239,338l24.55-3.32-13.27-38.67c-1-3-2.87-5.95-5.74-7.47a12.86,12.86,0,0,0-8-1.48,11.88,11.88,0,0,0-7.18,3.43c-2.09,2.28-4,5.63-3.66,8.84a311.75,311.75,0,0,1,2.13,41.43L249.15,332c-.2-.24-.39-.48-.58-.73l2,2.53a54.5,54.5,0,0,1-6.85-11.83l1.26,3c-4.34-10.32-6.07-21.46-7.69-32.46l-24.11,6.64a129.31,129.31,0,0,1,2.56,13.35l-.45-3.32a127.88,127.88,0,0,1,.84,25.5l24.55-3.32c-5.81-15.5-8.77-31.83-11.68-48.06-.5-2.8-3.28-6.17-5.75-7.47a12.84,12.84,0,0,0-8-1.48,12.45,12.45,0,0,0-10.84,12.27l.93,51.67,24.56-3.33A239.4,239.4,0,0,1,217,283.55l.44,3.32q-1.38-10.37-1.87-20.82L191,269.37a197.61,197.61,0,0,1,7.53,33.28l-.45-3.32a197.73,197.73,0,0,1,1.74,24.32l24.55-3.32A119.35,119.35,0,0,1,217,290.85l.45,3.32A221,221,0,0,1,217.5,236l-.44,3.33q.6-4.38,1.35-8.74l-24.55-3.32q3.69,31.23,6.16,62.57.71,9,1.31,17.92h25c-2-18.51-4-37.12-3.31-55.76.2-5.27.63-10.53,1.32-15.76l-.45,3.33a132.27,132.27,0,0,1,4.29-20.09l-24.55-3.32c.5,21.81,1,43.67,3.75,65.34.88,7.05,1.9,14.07,3.23,21a12.49,12.49,0,0,0,5.75,7.47,12.85,12.85,0,0,0,8,1.48c6.31-.84,10.51-6,10.84-12.27.92-17.86,1.87-35.74,4.24-53.47L239,249.1a237.38,237.38,0,0,1,9-41.17l-24.55-3.32q-.71,38.41-.35,76.85.1,10.92.3,21.84a13,13,0,0,0,3.66,8.84,12.7,12.7,0,0,0,8.84,3.66c6.81-.3,12.45-5.49,12.5-12.5q.19-28.71,2.08-57.37c.33-5,.69-9.91,1.34-14.84l-.45,3.33a71.74,71.74,0,0,1,4.44-17.56l-1.26,3c.26-.63.53-1.24.81-1.85L232,211.69c-1,25.95-2,52-.55,77.92q.6,10.9,1.83,21.77c.37,3.27,1.1,6.49,3.66,8.84a12.91,12.91,0,0,0,7.18,3.44c5.72.77,12.53-2.83,13.71-9,4.33-22.38,5.3-45.17,7.31-67.83.54-6.12,1.17-12.24,2-18.33l-.44,3.32a188,188,0,0,1,8.8-38.19L251,190.35c-3.57,29-7.15,58.15-7,87.44.06,8.23.42,16.47,1.15,24.67.3,3.38,1.19,6.37,3.66,8.84a12.51,12.51,0,0,0,17.68,0,14.16,14.16,0,0,0,3.66-8.84q2.82-30.6,6.5-61.12c.68-5.64,1.37-11.29,2.12-16.92l-.44,3.32c1.34-10,3.11-19.93,7-29.26l-1.26,3,.62-1.44-23.29-6.31c-2.71,33.22-5.43,66.63-2.85,100,.79,10.26,2.08,20.51,3.89,30.66.49,2.79,3.28,6.16,5.74,7.47a12.93,12.93,0,0,0,8,1.48c6.33-.85,10.5-6,10.84-12.28L292,228.31l1.43-26a12.5,12.5,0,0,0-21.34-8.84,13.79,13.79,0,0,0-3.66,8.84c-2.42,32.7-4.84,65.64-1.6,98.37A283.5,283.5,0,0,0,271.4,331a12.49,12.49,0,0,0,5.75,7.47,12.9,12.9,0,0,0,8,1.48c6.34-.85,10.47-6,10.83-12.27,1.41-24,2.47-48.09,4.4-72.06.55-6.7,1.22-13.39,2.1-20.06l-.44,3.33c.83-6.21,1.87-12.38,3.16-18.5L280.62,217c-1.23,28.45-2.46,57.07.61,85.45,1,8.9,2.23,17.78,4,26.56l1.26,3a9.38,9.38,0,0,0,3.22,3.51,11.85,11.85,0,0,0,7.57,2.68,14.92,14.92,0,0,0,6.31-1.7,12.6,12.6,0,0,0,5.75-7.47c4.74-22.28,8.41-44.75,11.23-67.35.35-2.83-1.63-7-3.66-8.84a12.88,12.88,0,0,0-7.18-3.44,12,12,0,0,0-8,1.48c-2.57,1.66-5.23,4.33-5.74,7.47a184.8,184.8,0,0,0-.67,59.94q1.06,7.66,2.79,15.22A12.55,12.55,0,0,0,303.9,341a12.85,12.85,0,0,0,8,1.49,12,12,0,0,0,7.18-3.44,14,14,0,0,0,3.66-8.84l5.89-70,1.68-20a12.47,12.47,0,0,0-3.66-8.84,12.86,12.86,0,0,0-7.18-3.43,12.46,12.46,0,0,0-13.71,9,183.6,183.6,0,0,0-5.25,67.1c.38,3.41,1.14,6.32,3.66,8.84A12.5,12.5,0,0,0,325.48,304q1.53-38.43-.39-76.88-.54-10.83-1.37-21.64c-.24-3.21-1.19-6.57-3.66-8.84a12.75,12.75,0,0,0-7.17-3.44,12.53,12.53,0,0,0-13.72,9c-6.05,21-7.34,43.43-4.91,65.11.78,6.9,1.8,13.78,3.14,20.59a12.49,12.49,0,0,0,5.74,7.47,12.88,12.88,0,0,0,8,1.49A12.52,12.52,0,0,0,322,284.53a735,735,0,0,0-4.41-99.95q-1.76-15.56-4.11-31l-1.26-3A9.38,9.38,0,0,0,309,147a11.91,11.91,0,0,0-7.57-2.68,12.84,12.84,0,0,0-12.06,9.18,185.78,185.78,0,0,0-.83,94.81,180.41,180.41,0,0,0,9.4,26.61c1.51,3.47,5.64,5.5,9.13,6a12,12,0,0,0,10.5-3.44,23.43,23.43,0,0,0,5.86-18.55c-.65-5.81-1.88-11.53-3-17.27l-5.91-31.43L302.8,147.93l-6.64-35.33a12.48,12.48,0,0,0-5.74-7.47,12.93,12.93,0,0,0-8-1.48,11.84,11.84,0,0,0-7.18,3.44l-2,2.53a12.37,12.37,0,0,0-1.7,6.31c-3.18,23.74-.11,47.78,4,71.22,1.13,6.47,2.37,12.92,3.61,19.37l18.36-14.12q-.51-.33-1-.69l2.53,2a14.25,14.25,0,0,1-2.22-2.24l2,2.53a19.5,19.5,0,0,1-2.19-3.81l1.27,3c-2.07-5-2.63-10.48-3.34-15.77l.44,3.32c-3-22.77-3.48-45.76-5.47-68.62-.65-7.45-1.52-14.87-2.54-22.28-.38-2.75-3.38-6.22-5.75-7.47a12.78,12.78,0,0,0-8-1.48A12.47,12.47,0,0,0,262.46,93.1l.37,73.28.1,20.65L278.75,175a8.8,8.8,0,0,1-1-.35l3,1.26a8.74,8.74,0,0,1-1.45-.83l2.53,2a9.37,9.37,0,0,1-1.63-1.64l1.95,2.53a13.35,13.35,0,0,1-1.52-2.71l1.26,3a24.5,24.5,0,0,1-1.43-5.77l.44,3.32c-.73-5.74-.74-11.63-1.06-17.4l-1-18.88-2.05-38.05L275.63,80c-.33-6.26-4.5-11.43-10.83-12.28a12.52,12.52,0,0,0-13.72,9c-5.19,17.71-6.93,36.35-7.36,54.73-.41,17.8.38,35.6,0,53.4a265.64,265.64,0,0,1-2.07,29.83l.45-3.32c-.07.52-.15,1-.22,1.57l24.55,3.32c-2.25-26.29-.75-52.72,2.16-78.9.83-7.46,1.78-14.9,2.78-22.34l-.45,3.33c1.08-8,2.22-16,3.36-23.94a9.52,9.52,0,0,0,.22-5,9.25,9.25,0,0,0-1.48-4.64,12.91,12.91,0,0,0-6-5.12c-5.36-2.26-12.85-.49-15.61,5.12a231.25,231.25,0,0,0-16.83,46.93c-4,16.33-6.51,33-8.67,49.62-1.15,9-2.16,18-3.15,26.95-.33,3,1.63,6.81,3.66,8.84a12.51,12.51,0,0,0,17.68,0l1.95-2.53a12.48,12.48,0,0,0,1.71-6.31l10.43-82,3-23.24-.44-3.33a9.54,9.54,0,0,0-2.24-4.25,12,12,0,0,0-6.5-4.48,14.88,14.88,0,0,0-6.64,0c-3.14.72-5.76,3.15-7.47,5.75-10.29,15.59-17.73,33.06-23.14,50.9-5.21,17.16-8.53,34.84-11.15,52.56-1.62,11-3,22-4.37,33h25q.67-18.54,3.13-36.94l-.45,3.32a373.71,373.71,0,0,1,15-66.23c1.88-5.73,3.95-11.4,6.29-17l-1.26,3a137.44,137.44,0,0,1,15.25-27.52l-22.84-9.63c-6.42,17-12.82,34-18.49,51.25A423.12,423.12,0,0,0,207,185.54a311.41,311.41,0,0,0-4.54,33.19,12.5,12.5,0,0,0,3.66,8.84,12.86,12.86,0,0,0,7.18,3.43A12.56,12.56,0,0,0,227,222.05q9.36-29.12,18.46-58.32t17.94-58.49q5-16.45,9.86-32.95A12.85,12.85,0,0,0,272,62.66a12.51,12.51,0,0,0-22.85,3Z" transform="translate(-137.64 -22.22)"/><path class="cls-2" d="M250.1,41.16A377.33,377.33,0,0,0,215.25,98a397.72,397.72,0,0,0-25.43,64.54c-3.21,10.89-6,21.94-8.11,33.09a259.47,259.47,0,0,0-4.07,40.2c-.83,24.13-1.23,48.39,1.25,72.44a264.41,264.41,0,0,0,6.5,38.32c.35,1.39.72,2.78,1.1,4.16.21.74.41,1.48.63,2.21a13.83,13.83,0,0,0,5.91,8c3.27,2.12,8.29,2.72,12,2.84,5.52.18,11.07-1.24,16.4-2.5,2.21-.52,4.42-1,6.66-1.32l-3.32.45a25.14,25.14,0,0,1,6.25-.08l-3.33-.44a16.74,16.74,0,0,1,4,1.09l-3-1.26.38.18,3-22.85-10.49,1.8c-2.8.48-6.18,3.3-7.47,5.74a12.88,12.88,0,0,0-1.49,8,12.53,12.53,0,0,0,12.28,10.83q38.72,1,77.46-.19,10.89-.36,21.77-.88l-3.32-24.56-4.33,1.76,14.11,18.36c11-18.77,8.09-41,10.85-61.72l-.45,3.32c1.28-9.37,3.09-18.67,4.06-28.09a160.27,160.27,0,0,0,.53-24.69c-.94-17.64-4.14-35.14-8.19-52.31C333.54,178,329,161.78,324,145.66c-2.45-8-4.88-16.07-7.86-23.91a198.76,198.76,0,0,0-11.57-24.63q-14-25.61-27.95-51.18c-3.14-5.74-11.55-8.07-17.11-4.48A12.76,12.76,0,0,0,255,58.56L273.69,92.7c6.08,11.13,12.72,22.13,17.67,33.83l-1.26-3c5.66,13.53,9.63,27.82,13.73,41.88,4.16,14.26,8,28.63,11.18,43.14,1.77,8.1,3.29,16.25,4.41,24.47L319,229.7a176.21,176.21,0,0,1,.53,46.45l.45-3.32c-1.46,10.81-3.65,21.53-4.44,32.42-.64,8.77-.61,17.59-1.77,26.32l.45-3.33a60.46,60.46,0,0,1-3.91,15.08l1.26-3a45.2,45.2,0,0,1-2.51,5,12.56,12.56,0,0,0,1,13.89,12.06,12.06,0,0,0,5,3.85c2.35,1,5.68,1.62,8.14.63l4.33-1.76c3-1.21,5.88-2.72,7.47-5.74a12.87,12.87,0,0,0,1.49-8c-.79-5.87-6-11.15-12.28-10.84q-38.68,1.88-77.45,1.48-10.89-.1-21.78-.41L228.24,363l10.5-1.8,3-1.26,2.53-2a12.26,12.26,0,0,0,3.44-7.17,12,12,0,0,0-.85-6.48c-1-2.28-2.77-4.92-5.12-6a32.46,32.46,0,0,0-11.91-3.1,42.26,42.26,0,0,0-9.84.87c-4.7.8-9.27,2.28-14,2.92l3.32-.45a25.06,25.06,0,0,1-6.3.06l3.32.44a17.57,17.57,0,0,1-3.64-.95l8.73,8.73a227.71,227.71,0,0,1-6.9-33.09l.44,3.32c-3.7-27.7-3.26-55.81-2.21-83.67.31-8.21.81-16.42,1.9-24.57l-.44,3.32a278.91,278.91,0,0,1,7.24-34.07q4.25-15.85,9.87-31.31,3.22-8.84,6.87-17.51l-1.26,3a378.61,378.61,0,0,1,33.22-62q5.56-8.4,11.56-16.47c1.82-2.44,2-6.84,1.26-9.64a12.5,12.5,0,0,0-15.37-8.73l-3,1.26a12.52,12.52,0,0,0-4.48,4.49Z" transform="translate(-137.64 -22.22)"/></g><path class="cls-3" d="M220.62,194.64a54.08,54.08,0,0,0-1.89,20l9.32-2.52c-.36-.69-.71-1.39-1-2.09-.14-.3-1-2.12-.45-.95a41.51,41.51,0,0,1-1.54-4.21,34.75,34.75,0,0,1-2-8.57c0,.16.14,1.12,0,.17,0-.39-.09-.77-.13-1.16-.06-.65-.12-1.3-.16-1.95-.09-1.55-.12-3.11-.07-4.67,0-1.29.12-2.58.26-3.87,0-.24.14-1.55,0-.21,0-.38.11-.77.17-1.14.13-.77.27-1.52.43-2.28.29-1.32.63-2.62,1-3.91.21-.68.44-1.34.68-2l.34-.9c.48-1.22-.26.52.16-.4a43.63,43.63,0,0,1,4.2-7.41l.71-1c-.65.86-.09.13.08-.08.46-.56.93-1.12,1.42-1.66q1.46-1.62,3.08-3.1.87-.8,1.8-1.56l.61-.5c1-.84-.83.59.25-.19s2.39-1.69,3.63-2.46,2.53-1.48,3.83-2.14c.6-.3,1.2-.58,1.8-.86l1.1-.49c-1.14.5.23-.08.46-.17a53.48,53.48,0,0,1,9.94-2.76c.18,0,1-.14.06,0,.46-.06.92-.11,1.39-.15.69-.06,1.38-.1,2.07-.13a38.08,38.08,0,0,1,4.53.13l.75.08c1.29.11-1.11-.19.17,0,.62.1,1.24.2,1.85.32a40.81,40.81,0,0,1,4.38,1.14c.6.2,1.2.4,1.79.62l1.06.41c1.16.45-.68-.32,0,0,1.32.62,2.63,1.24,3.9,2s2.4,1.43,3.55,2.23a16.79,16.79,0,0,1,1.54,1.12c-.93-.83,0,0,.19.16l.88.73a48.14,48.14,0,0,1,5.85,6c.82,1-.61-.85.15.19.23.3.46.61.68.92.37.51.72,1,1.07,1.57q1.22,1.88,2.23,3.85c.45.86.85,1.73,1.25,2.61.09.19.37.88,0-.06.2.51.41,1,.6,1.53q.87,2.33,1.51,4.71c.45,1.67.81,3.35,1.1,5,.05.34.1.68.16,1,.08.58.08.55,0-.1l.09.83c.09.82.17,1.65.22,2.48a59,59,0,0,1-.23,10.38c0,.26-.05.56-.1.82.27-1.28-.08.5-.11.73-.14.83-.28,1.65-.45,2.46-.36,1.77-.8,3.51-1.31,5.24h9.65a197.9,197.9,0,0,0-7.42-26.84c-.87-2.46-3.45-4.37-6.15-3.5s-4,3.38-3.49,6.16l2.54,15.06,9.64-2.66-7.84-34.86-9.64,2.66,6.46,16.53c.95,2.43,3.4,4.38,6.15,3.49,2.42-.78,4.44-3.51,3.49-6.15a54.68,54.68,0,0,0-16.26-23.6,5.1,5.1,0,0,0-5.46-1,5,5,0,0,0-3.07,4.57,68.37,68.37,0,0,0,8.39,30.21,5,5,0,0,0,9.14-3.85,204.6,204.6,0,0,0-15.84-35.41,5.08,5.08,0,0,0-5.65-2.3,5.16,5.16,0,0,0-3.67,4.82,67,67,0,0,0,7.91,33.06,5,5,0,0,0,6.24,2.05c2.49-1.05,3.24-3.38,2.9-5.9A58.54,58.54,0,0,0,271,148c-3.52-3.52-9.71,0-8.36,4.86l7,25.07,9.64-2.66a82.92,82.92,0,0,0-12.77-25.83c-1.5-2-3.78-3.08-6.25-2a5,5,0,0,0-2.89,5.9l6.59,26.2,9.64-2.66a179.44,179.44,0,0,0-12.47-26.28,5,5,0,0,0-9.14,3.85l7.52,29.25,9.64-2.66a92,92,0,0,0-13.65-28.57,5.09,5.09,0,0,0-6.25-2.05,5,5,0,0,0-2.89,5.9,216.62,216.62,0,0,1,6.24,26.12l9.65-2.66A119.37,119.37,0,0,0,248.8,149a5,5,0,0,0-9.14,3.86l7,28.83,9.65-2.66q-4.64-12-10.09-23.64c-1.06-2.25-4.14-2.94-6.25-2.05a5,5,0,0,0-2.89,5.9c1.15,3.95,2.16,7.94,3,12,.41,2,.77,4,1.09,5.95.15,1,.3,1.91.44,2.87a4.14,4.14,0,0,1,.07.59l.24,1.92,9.31-2.52a101.15,101.15,0,0,1-5.06-9.82q-.21-.5.06.15c-.09-.21-.17-.42-.26-.62-.17-.42-.34-.84-.5-1.26-.33-.84-.64-1.69-.94-2.54q-.94-2.67-1.69-5.38a5,5,0,1,0-9.65,2.65l4.84,19.9,9.14-3.85-8.78-18.08a5,5,0,0,0-5.65-2.29c-2,.63-3.87,2.59-3.67,4.82l2,22.58,9.83-1.33a137.72,137.72,0,0,1-5.38-17.32A5,5,0,0,0,230,164c-2.28.31-4.55,2.43-4.33,4.91l1.22,14.49,9.32-2.52-5.57-10.81a5,5,0,0,0-5.65-2.3,5.22,5.22,0,0,0-3.67,4.83,77.29,77.29,0,0,0,.67,15.94l9.64-2.66-3.19-10.49a5,5,0,0,0-5.49-3.58,5,5,0,0,0-4.33,4.91l1,14.07c.18,2.6,2.17,5.13,5,5,2.55-.12,5.2-2.21,5-5l-1-14.07-9.82,1.33L222,188.57a5.06,5.06,0,0,0,6.15,3.49c2.86-.92,3.87-3.36,3.49-6.15.13,1-.1-.92-.12-1.09-.05-.49-.09-1-.14-1.46-.1-1.22-.16-2.44-.2-3.66-.07-2.36,0-4.72.15-7.07L222,175.15l5.57,10.8a5,5,0,0,0,5.65,2.3c2-.64,3.86-2.59,3.67-4.82l-1.22-14.49-9.83,1.33a139.39,139.39,0,0,0,5.38,17.32c.91,2.35,2.87,3.93,5.49,3.58,2.27-.31,4.56-2.43,4.33-4.91l-2-22.58-9.32,2.52,8.78,18.08c1.09,2.23,4.12,2.94,6.25,2a5,5,0,0,0,2.89-5.9l-4.83-19.89-9.65,2.65a89.77,89.77,0,0,0,9.41,21.87,5.09,5.09,0,0,0,5.65,2.29c1.92-.62,3.92-2.6,3.67-4.82a156.18,156.18,0,0,0-5.18-26l-9.14,3.85q2.55,5.42,4.9,10.92s.62,1.45.25.57l.55,1.32c.37.89.73,1.77,1.09,2.66.78,1.92,1.55,3.85,2.29,5.79.94,2.43,3.41,4.38,6.15,3.49a5.11,5.11,0,0,0,3.5-6.15l-7-28.83L240.16,154a113.86,113.86,0,0,1,7.43,14.13l.36.82c.32.72-.27-.68,0,.05s.52,1.25.76,1.88c.5,1.25,1,2.52,1.42,3.79.9,2.55,1.7,5.12,2.42,7.73a5.06,5.06,0,0,0,6.15,3.49,5.14,5.14,0,0,0,3.5-6.15A216.65,216.65,0,0,0,256,153.65l-9.14,3.86a87.59,87.59,0,0,1,7.69,12.91q.76,1.59,1.47,3.21c.38.87-.11-.3.1.24.11.27.23.54.34.82.22.54.43,1.09.64,1.64.91,2.42,1.71,4.88,2.41,7.36a5,5,0,1,0,9.64-2.66l-7.52-29.25-9.14,3.86q3.43,5.91,6.4,12.08,1.45,3,2.79,6.13l.36.85c-.2-.48-.19-.45,0,.09s.35.85.53,1.28c.46,1.15.91,2.3,1.35,3.46.93,2.43,3.41,4.38,6.15,3.49a5.09,5.09,0,0,0,3.49-6.15L267,150.67l-9.14,3.85A79.05,79.05,0,0,1,265,166.09c.53,1,1,2.11,1.51,3.18.18.4.35.8.52,1.21-.44-1,.26.65.33.83q1.29,3.27,2.28,6.65a5,5,0,1,0,9.64-2.66l-7-25.06-8.36,4.86c1,1,2,2.05,2.91,3.13.49.57,1,1.15,1.42,1.73-.43-.54-.2-.26.09.12s.4.55.59.83a53.79,53.79,0,0,1,4.4,7.32c.3.61.59,1.22.87,1.84,0,0,.52,1.17.24.52s.16.41.21.53c.53,1.33,1,2.67,1.42,4a52.08,52.08,0,0,1,1.88,8.54l9.14-3.85c-.59-1.12-1.16-2.25-1.69-3.41q-.23-.5-.45-1c-.18-.39-.2-.5,0,0-.22-.55-.44-1.1-.65-1.66a60.86,60.86,0,0,1-2.28-7.48c-.3-1.23-.55-2.47-.76-3.72-.11-.59-.19-1.18-.28-1.77.07.49.06.49,0,0l-.12-1.11a59.86,59.86,0,0,1-.29-7.81l-9.32,2.53q4.57,8.06,8.4,16.52c.32.71.63,1.41.94,2.12.12.28.24.57.37.85,0,.06.6,1.45.22.51.56,1.36,1.11,2.72,1.65,4.09q1.74,4.42,3.25,8.92l9.14-3.85c-.57-1-1.12-2.1-1.63-3.17q-.39-.81-.75-1.62l-.36-.82c.21.51.21.5,0,0-.83-2.15-1.6-4.32-2.22-6.54a62.49,62.49,0,0,1-1.48-6.75c0-.21-.28-2.07-.14-.88-.07-.59-.14-1.18-.2-1.78-.11-1.18-.18-2.37-.23-3.56l-8.54,3.54a48.63,48.63,0,0,1,4.72,4.47q1.11,1.19,2.13,2.46l.51.63c-.37-.47-.38-.49,0,0s.56.77.83,1.16A49.82,49.82,0,0,1,291,176c.5,1,1,1.94,1.41,2.92.23.53.22.5,0-.07l.3.76c.2.5.39,1,.57,1.52l9.64-2.66-6.46-16.53c-.94-2.43-3.39-4.38-6.15-3.49a5.12,5.12,0,0,0-3.49,6.15l7.84,34.86a5,5,0,0,0,6.15,3.49c2.79-.9,4-3.38,3.49-6.15l-2.54-15.06-9.64,2.66a196,196,0,0,1,7.41,26.84,5,5,0,0,0,4.83,3.67,5.16,5.16,0,0,0,4.82-3.67c3.85-13.1,3.73-27.76-1.48-40.47a50.44,50.44,0,0,0-26.4-27.48,44.75,44.75,0,0,0-19.08-3.87,52.83,52.83,0,0,0-21.68,5.86A49.79,49.79,0,0,0,215,174.48c-4.45,14.05-2.41,29.77,4.37,42.73a5,5,0,0,0,5.65,2.29c2-.63,3.89-2.59,3.67-4.82a50.48,50.48,0,0,1-.07-9.2l.12-1.17c0-.42.07-.61,0-.08.1-.78.23-1.56.38-2.33.29-1.55.67-3.08,1.1-4.6a5,5,0,1,0-9.64-2.66Z" transform="translate(-137.64 -22.22)"/><path class="cls-4" d="M230.67,202.35q-1.42,10.41-2.58,20.86h10l1.4-21.14a5,5,0,0,0-9.82-1.33,55.42,55.42,0,0,0-1.49,17,5,5,0,0,0,4.33,4.91c2.28.31,5-1.13,5.49-3.58a51.39,51.39,0,0,0,0-18.63,5,5,0,0,0-4.82-3.67c-2.07.1-4.4,1.47-4.82,3.67a33.44,33.44,0,0,0,8.16,28.94,5,5,0,0,0,6.56.39c2.1-1.62,2.33-4.14,1.29-6.45-.48-1.07.16.52-.21-.48-.16-.43-.32-.85-.47-1.28-.32-.94-.6-1.88-.84-2.84s-.36-1.78-.54-2.68c-.06-.36,0-.3,0,.2,0-.22-.06-.45-.08-.67q-.07-.79-.12-1.59c-.16-2.61-2.19-5.13-5-5a5.07,5.07,0,0,0-5,5,20.49,20.49,0,0,0,9.11,16.28c2.54,1.74,6.74.06,7.34-3a23.22,23.22,0,0,0-3-17.17,5.1,5.1,0,0,0-5.65-2.3,5.29,5.29,0,0,0-3.67,4.82,21.22,21.22,0,0,0,5.38,16.2,5,5,0,0,0,6.56.39,5,5,0,0,0,1.29-6.45,12,12,0,0,0-13.58-5.66c-3,.81-4.78,4.62-3,7.34a17.3,17.3,0,0,0,8.29,6.66l1.33-9.83a20,20,0,0,1-2.45,0c-.23,0-1.25-.17-.23,0-.44-.07-.87-.15-1.31-.24a5,5,0,0,0-5.9,2.89c-.88,2.08-.23,5.24,2,6.24a68.51,68.51,0,0,0,30.45,6c9.21-.37,19.28-2.26,26.3-8.7a18.82,18.82,0,0,0,4.3-5.79c.57-1.22,1-2.48,1.47-3.74.32-.94-.11.27-.12.25s.5-.83.47-.85-.89.88-.2.29c-.23.19-1.72.8-.89.57l-6.33-4.82-.33,7.8a5,5,0,0,0,9.82,1.33,33.89,33.89,0,0,0-3.95-24.94,36.41,36.41,0,0,0-20-16.16,42.31,42.31,0,0,0-26.89.53c-9,3.17-19.66,9.55-19.46,20.37A29.11,29.11,0,0,0,231,211.1a7.52,7.52,0,0,0,3.37,4.38,6.2,6.2,0,0,0,7.25-1.11c2.15-2.18,3.38-5.62,4.46-8.41a40,40,0,0,0,2.11-7.82l-9.82-1.33.29,29.12a5,5,0,0,0,9.83,1.33c2.88-11.06,3.66-22.53,4.39-33.89h-10l1.3,28.77c.12,2.61,2.21,5.13,5,5a5.09,5.09,0,0,0,5-5l.85-26.39H245a195.66,195.66,0,0,0,4.24,30.39,5,5,0,0,0,9.82-1.33l.23-28.57-9.82,1.33q.84,3.23,1.37,6.53c0,.19.29,2.09.15,1,.06.47.12.94.17,1.42.14,1.19.24,2.38.33,3.57.35,4.54.42,9.09.49,13.64l9.83-1.33c-.35-2.49-.55-4-.94-7q-.5-3.93-1-7.88c-.62-5.25-1.19-10.52-1.7-15.78l-9.82,1.32q2.17,14.84,5.14,29.54c.39,1.91,2.79,3.93,4.82,3.67a7,7,0,0,0,5.54-3.2,9.75,9.75,0,0,0,1.28-4.54c.21-2.91-.1-5.94-.17-8.86l-.45-18.41h-10a273.66,273.66,0,0,0,6.06,36,5,5,0,0,0,9.82-1.33c.33-12,.5-24.07-1.6-36-.43-2.44-3.24-3.88-5.49-3.58-2.62.36-4.06,2.4-4.33,4.91a81,81,0,0,0,3.35,33.1,5.16,5.16,0,0,0,4.82,3.67c4.71.19,6.74-4.33,6.95-8.31.16-3.22.16-6.45,0-9.66a128.7,128.7,0,0,0-2.32-20c-.47-2.43-3.2-3.88-5.48-3.58a5,5,0,0,0-4.34,4.91,94.86,94.86,0,0,0,6.09,31.72c.79,2,2.48,3.78,4.82,3.67,2-.09,4.51-1.47,4.82-3.67a106.21,106.21,0,0,0,0-30.63c-.35-2.45-3.29-3.87-5.48-3.58a5.07,5.07,0,0,0-4.34,4.91,80.79,80.79,0,0,0,3.21,30.91,5.09,5.09,0,0,0,4.82,3.67,5.22,5.22,0,0,0,4.82-3.67,49.28,49.28,0,0,0,.73-30.61,5,5,0,0,0-9.82,1.33,55.56,55.56,0,0,0,4,24.84c.82,2,2.45,3.77,4.82,3.67a5.25,5.25,0,0,0,4.82-3.67,41.43,41.43,0,0,0,1.31-23.21c-1.09-4.87-8.41-4.65-9.64,0a33.76,33.76,0,0,0,2.34,23.3c1.6,3.35,7,3.17,8.63,0a32.94,32.94,0,0,0,3.82-16.59h-10l.89,9.34c.25,2.6,2.12,5.13,5,5s4.68-2.2,5-5l.33-2.93c.3-2.61-2.51-5.11-5-5-3,.13-4.68,2.21-5,5l-.33,2.93h10l-.89-9.34c-.25-2.59-2.12-5.13-5-5-2.62.12-5.12,2.2-5,5a27.7,27.7,0,0,1-.06,3.53c0,.3-.05.59-.08.88.08-.6.08-.6,0,0s-.18,1-.29,1.51a27,27,0,0,1-.92,3.19c-.06.19-.78,1.86-.31.85q-.37.81-.78,1.59h8.63c-.05-.11-.64-1.42-.2-.39-.14-.33-.27-.67-.39-1a23,23,0,0,1-.72-2.27c-.19-.7-.35-1.41-.49-2.12,0-.14-.24-1.57-.09-.38,0-.36-.08-.72-.11-1.08a28.79,28.79,0,0,1,0-4.55c0-.36.07-.72.11-1.08.05-.61-.16.8,0-.17s.34-1.7.56-2.54h-9.64c.18.81.31,1.63.48,2.45.12.59-.07-.72,0,.25.05.45.09.9.13,1.35a36.13,36.13,0,0,1,0,5c-.05.75-.11,1.51-.21,2.26.15-1.13-.08.36-.1.47-.08.44-.17.89-.26,1.33a38.05,38.05,0,0,1-1.4,4.79h9.64a52.29,52.29,0,0,1-3.26-11.31l-.21-1.34c.16,1.09,0-.24,0-.47-.11-1-.19-2.11-.23-3.17a50.34,50.34,0,0,1,.09-5.89l-9.83,1.33a44,44,0,0,1,1.48,6.6c-.17-1.16.06.72.08.92.06.6.1,1.2.13,1.8.06,1.13.07,2.26,0,3.39s-.1,2.25-.22,3.38c0,.3-.06.59-.1.89.08-.58.08-.58,0,0s-.17,1-.27,1.55a44.51,44.51,0,0,1-1.86,6.74h9.64c-.73-2.38-1.35-4.8-1.85-7.24-.25-1.22-.47-2.45-.65-3.69-.05-.3-.1-.61-.14-.92.08.56.07.53,0-.06s-.13-1.09-.18-1.63a76.91,76.91,0,0,1,0-14.71l-9.82,1.33c.08.6.09.64,0,.11l.12,1c.06.48.11,1,.16,1.44.12,1.13.22,2.25.3,3.38.16,2.25.23,4.51.23,6.77s-.08,4.51-.24,6.77c-.08,1.12-.18,2.25-.3,3.37-.05.48-.11,1-.16,1.44s-.08.64,0,.11c-.05.32-.09.64-.14,1h9.64a81.42,81.42,0,0,1-4.23-14.69c-.23-1.22-.44-2.44-.62-3.66-.05-.31-.09-.62-.13-.92.07.51.05.38,0-.06l-.21-1.84c-.27-2.62-.44-5.25-.53-7.89l-9.82,1.33c.25,1.27.47,2.54.68,3.81.12.71.22,1.43.33,2.15,0,.09.14,1,.07.53s.06.44.07.53c.32,2.64.56,5.29.7,7.94s.21,5.16.19,7.73c0,1.37-.05,2.74-.11,4.11,0,.19-.15,1.22,0,.37s0,0-.05.12c-.32.56.54-.84.17-.32-.22.37,0,.21.54-.47a2.86,2.86,0,0,1,2.36-1.15l4.82,3.67a77.55,77.55,0,0,1-2-7.65c-.27-1.3-.51-2.6-.71-3.9-.05-.31-.09-.62-.14-.92-.12-.81.08.74,0-.06s-.17-1.39-.23-2.09a77.45,77.45,0,0,1,.11-15.82l-9.82,1.33c.12.71.24,1.43.35,2.14.05.32.09.64.14,1s0,.31,0-.14l.06.48c.16,1.35.31,2.71.43,4.07.24,2.88.38,5.77.45,8.66.13,5.72,0,11.44-.18,17.15l9.82-1.33q-2-8.43-3.48-17-.72-4.22-1.3-8.45c.07.54,0,.24,0-.12s-.1-.81-.16-1.21c-.08-.65-.16-1.3-.23-1.94-.19-1.54-.35-3.08-.51-4.62-.26-2.59-2.11-5.13-5-5a5.08,5.08,0,0,0-5,5l.38,15.46.18,7.61c0,1.24.12,2.5.09,3.74,0,.2,0,.41,0,.62.12-.8.12-.93,0-.4s-.12.39.16-.38a3.49,3.49,0,0,1,3-1.64l4.83,3.67q-3-14.7-5.15-29.53c-.36-2.45-3.29-3.88-5.49-3.59s-4.58,2.44-4.33,4.92q1.63,16.71,3.95,33.35c.34,2.45,3.31,3.88,5.49,3.58a5,5,0,0,0,4.33-4.91c-.15-9.67-.4-19.45-2.87-28.86a5,5,0,0,0-9.82,1.33l-.23,28.57,9.82-1.32c-1-4.71-1.87-9.45-2.57-14.22-.08-.6-.09-.63,0-.1l-.12-1-.18-1.43c-.15-1.27-.29-2.55-.42-3.83q-.35-3.6-.57-7.2c-.15-2.61-2.18-5.13-5-5a5.1,5.1,0,0,0-5,5l-.85,26.39h10l-1.3-28.77c-.12-2.61-2.22-5.12-5-5a5.12,5.12,0,0,0-5,5c-.35,5.4-.7,10.8-1.3,16.17-.07.63-.14,1.26-.22,1.89l-.12.95c.07-.53,0-.31,0,.09q-.28,2-.63,4-.71,4.11-1.76,8.14l9.82,1.33-.29-29.12A5,5,0,0,0,244,191.9c-2.24-.31-5.07,1.12-5.48,3.58a40.79,40.79,0,0,1-1.88,7.2c-.1.28-.21.55-.31.82-.16.43-.19.47,0,0-.23.53-.48,1.06-.73,1.59s-.59,1.18-.91,1.75c-.13.24-.3.48-.41.73s-.12.2.07-.08a2.73,2.73,0,0,1,.61-.66l2.52-.68,2.45,1.14a2.18,2.18,0,0,1,.68,1.12c-.17-.1-.3-1-.35-1.18-.26-.88-.5-1.77-.7-2.67-.1-.45-.19-.9-.26-1.36.18,1.14,0-.32,0-.47,0-.45,0-.9,0-1.35s0-.6,0,0a8.6,8.6,0,0,1,.19-.88,5.61,5.61,0,0,1,.36-1.07c-.63,1.14,0,.05.15-.15s.4-.63.6-.94c.66-1-.71.69.15-.17.55-.54,1-1.1,1.63-1.61.29-.25.58-.51.89-.74-1,.74.17-.09.38-.23a35.37,35.37,0,0,1,3.87-2.32c.71-.37,1.43-.7,2.15-1,1.21-.56-1,.36.27-.11l1.49-.56a40.57,40.57,0,0,1,4.58-1.32c.77-.17,1.55-.32,2.33-.45.25,0,1.52-.34.24,0a10.45,10.45,0,0,1,1.58-.16,36.94,36.94,0,0,1,4.34-.1c.79,0,1.57.07,2.36.15.23,0,1.56.12.23,0a13.55,13.55,0,0,1,1.55.26,32.74,32.74,0,0,1,4.55,1.19c.37.12.74.26,1.11.4.2.07,1.45.48.26.09A16.28,16.28,0,0,1,277,192.8a35.49,35.49,0,0,1,3.3,2.11c1,.7-.81-.7.12.09l.82.68c.62.55,1.23,1.12,1.81,1.72s1,1,1.45,1.58a5.29,5.29,0,0,1,.68.82c-.55-1.07-.11-.14.08.13a31.86,31.86,0,0,1,2.45,3.93c.34.63.64,1.27.94,1.92.51,1.11-.38-1,0,.11.16.45.33.89.48,1.34a34.24,34.24,0,0,1,1.2,4.79c.22,1.2-.1-1.16,0,.06,0,.47.09.93.12,1.4q.08,1.23,0,2.46,0,.52-.06,1.05l-.06.71c-.07.56,0,.46.05-.28a8,8,0,0,1-.48,2.43l9.82,1.33.33-7.8a5.05,5.05,0,0,0-6.33-4.83c-3.12.89-4.82,3.25-6,6.1a8.76,8.76,0,0,0-.93,2.54s.41-.87.15-.4c-.11.2-.2.41-.31.62a13.39,13.39,0,0,1-.79,1.31,3,3,0,0,1-.4.55c.07-.05.76-.87.14-.22-.31.33-.61.68-.93,1s-.59.55-.89.81c-.14.12-.72.6-.17.15s-.2.14-.33.23a22.5,22.5,0,0,1-2.25,1.37c-.42.23-.85.44-1.28.64l-.65.3c-.63.28,1.14-.43,0,0a42.77,42.77,0,0,1-5.53,1.64c-1,.21-2,.38-2.94.53l-.45.07-.44.05c-.67.08-1.34.15-2,.2a63.52,63.52,0,0,1-7.17.19c-1.12,0-2.24-.11-3.35-.2l-1.57-.16-.89-.1c1.15.13-.32,0-.44-.07a64.1,64.1,0,0,1-7.66-1.67q-1.95-.56-3.84-1.23c-.64-.23-1.27-.47-1.89-.71l-.83-.34c.81.33-.2-.09-.46-.2l-3.85,9.14a27.54,27.54,0,0,0,6.65.64,5,5,0,0,0,4.91-4.33c.35-2.64-1.24-4.53-3.58-5.49,1.2.49-.32-.21-.54-.35s-.44-.28-.65-.43c.44.36.52.42.25.19s-.65-.64-1-.94-.35-.38,0,.12l-.44-.64-3,7.34.5-.13c.38-.07.22-.06-.48.06a4.11,4.11,0,0,1,.86,0c.59,0-1-.27-.13,0l.49.14c.36.12.23.06-.38-.19.21,0,.59.3.76.4.87.53,0,.13,0-.07,0,0,.71.73.72.73l-.37-.46c.13.2.24.39.35.6l7.85-6.06c-.18-.2-.35-.4-.52-.61.37.48.39.49.07,0s-.58-.9-.84-1.37c-.12-.22-.78-1.8-.34-.63-.17-.44-.33-.88-.46-1.33s-.25-.9-.34-1.36c-.05-.27-.1-.53-.14-.79.08.66.1.7,0,.13a24.54,24.54,0,0,1,.08-3.21l-9.31,2.52c.29.46.57.93.83,1.41.12.22.77,1.81.35.67a21.1,21.1,0,0,1,.86,2.94c0,.2.08.4.11.6-.08-.65-.08-.69,0-.11s.08,1.09.09,1.64,0,1.09-.07,1.63,0,.55,0-.11l-.15.81,7.34-3c-.1-.07-.59-.32-.61-.43,0,.13.69.6.14.08s-.82-.76-1.2-1.18c-.17-.18-.32-.38-.49-.56-.46-.51.45.7.1.12s-.62-.93-.89-1.43c-.13-.22-.23-.44-.35-.66-.39-.72,0,.16,0,.17-.15,0-.45-1.24-.5-1.41-.15-.54-.25-1.09-.37-1.64s.05.92,0,.22c0-.31,0-.62-.06-.93h-10a40.34,40.34,0,0,0,3.6,14.39l7.86-6.06c-.36-.39-.69-.79-1-1.19s-.33-.4.05.09l-.46-.63a28.37,28.37,0,0,1-1.67-2.67c-.25-.46-.49-.93-.71-1.4-.12-.25-.66-1.33-.14-.25a19.31,19.31,0,0,1-1-3c-.28-1-.49-2-.69-3.07-.25-1.29.09,1.09,0-.23-.05-.52-.1-1-.13-1.56a25.47,25.47,0,0,1,0-3.15,9,9,0,0,1,.14-1.56c-.33,1.34.07-.35.12-.62h-9.64c.11.62.22,1.24.31,1.87-.15-1.08.07.83.09,1,.1,1.26.16,2.52.16,3.78s-.06,2.52-.17,3.77c0,.19-.25,2.09-.09,1-.09.62-.2,1.24-.31,1.86l9.82,1.33a50.22,50.22,0,0,1,0-7.66c.05-.64.12-1.27.19-1.91s.07-.63,0-.09c0-.32.09-.63.14-.95q.33-1.89.78-3.75l-9.82-1.33-1.4,21.14a5,5,0,0,0,5,5c2.95-.13,4.69-2.2,5-5,.35-3.18.71-6.35,1.1-9.53.19-1.55.39-3.09.59-4.64.1-.81.21-1.63.32-2.44,0-.32.08-.65.13-1-.14,1,.07-.58.08-.63a5.53,5.53,0,0,0-.5-3.85,5.14,5.14,0,0,0-3-2.3c-2.35-.53-5.77.72-6.15,3.5Z" transform="translate(-137.64 -22.22)"/><path class="cls-4" d="M230.48,193.76l5.1-3.31a5.16,5.16,0,0,0,1.8-6.84,5.06,5.06,0,0,0-3-2.3l-1.33-.18a5,5,0,0,0-2.52.69l-5.11,3.31a3.7,3.7,0,0,0-1.4,1.29,3.83,3.83,0,0,0-.9,1.7,4,4,0,0,0-.09,2,3.66,3.66,0,0,0,.6,1.86,5,5,0,0,0,3,2.3l1.33.18a5,5,0,0,0,2.52-.69Z" transform="translate(-137.64 -22.22)"/><path class="cls-4" d="M289.41,188.63a16.9,16.9,0,0,0,2.73.45,8.78,8.78,0,0,0,1.54,0,13.5,13.5,0,0,0,4.21-.82,5.67,5.67,0,0,0,3-2.3,5.62,5.62,0,0,0,.5-3.85,5,5,0,0,0-2.3-3l-1.19-.51a5.21,5.21,0,0,0-2.66,0,8.6,8.6,0,0,1-2.17.58l1.33-.18a9.14,9.14,0,0,1-2.45,0l1.33.18a9.47,9.47,0,0,1-1.2-.26,4,4,0,0,0-2-.09,5.14,5.14,0,0,0-4.15,3.59,5,5,0,0,0,.5,3.85,5.25,5.25,0,0,0,3,2.3Z" transform="translate(-137.64 -22.22)"/><path class="cls-5" d="M215.2,494.14h.12L211,491.65l.08.11-.69-2.53.14-1,2.3-3-.13.08,3.85-.51-.25-.07,2.21,1.28c.9,1,.33.28.14-.16l-.5-1.14-.81-1.81c-.33-.75-.66-1.49-1-2.24-.13-.28-.25-.56-.37-.84s-.56-1.29-.22-.48a37,37,0,0,1-2.56-8.29c.16.95,0-.07,0-.31,0-.4-.06-.79-.08-1.18,0-.63,0-1.25,0-1.88,0-.78.07-1.57.15-2.35,0-.31.06-.62.1-.93-.14,1,.07-.33.11-.55a68.1,68.1,0,0,1,2.29-8.77c.24-.76.49-1.51.74-2.27.1-.29.21-.59.3-.89.26-.83-.06.15-.12.27l-1.91,1.47c-.66.07-.77.08-.34,0l1.2-.13,2.41-.27c.76-.08,1.53-.19,2.3-.25l.77,0c0,.18-.95-.29-1-.37l-.49-.41c.29.31.3.31,0,0l-.2-.24c.24.48.21.39-.09-.26.22.07.36,1.46.41,1.73.13.73.23,1.47.34,2.21,0,.17.13,1,0,.07,0,.31.07.62.11.94a30.49,30.49,0,0,1,.19,4.68c0,.31-.05.62-.07.93-.1,1.43.16-.46,0,.26-.15.56-.23,1.14-.39,1.7s-.38,1.24-.6,1.84c-.09.24-.18.49-.28.73-.46,1.22.45-1-.1.24-2.58,5.65-5.8,10.94-6.13,17.31h10a315.16,315.16,0,0,1,1.66-31.48l-9.82,1.32.3,2c.39,2.6,3.79,4.26,6.15,3.5,2.83-.92,3.92-3.37,3.49-6.15l-.3-2c-.37-2.45-3.28-3.88-5.49-3.59-2.61.36-4.07,2.4-4.33,4.92a315.16,315.16,0,0,0-1.66,31.48,5.05,5.05,0,0,0,5,5,5.11,5.11,0,0,0,5-5,5.56,5.56,0,0,1,.09-1.16c-.35,1.28,0,.07.07-.19a21.22,21.22,0,0,1,.6-2.21,14.41,14.41,0,0,1,.67-1.8c-.58,1.13,0,0,.11-.22.22-.47.44-.94.67-1.41a88.85,88.85,0,0,0,4.08-9,26.22,26.22,0,0,0,1.18-11.23c-.38-3.83-.57-8.43-3.17-11.49-3.08-3.64-7.8-2.48-11.91-2-2.74.3-5.31.72-6.93,3.26a24,24,0,0,0-2.1,5.55C203.67,460,202.05,468,204,476c1.05,4.17,2.95,8.08,4.68,12,1.12,2.54,2,5.54,4.93,6.43,4.44,1.34,8.63-3.76,6-7.77-.9-1.37-2.55-2.66-4.32-2.47h-.12c-2.59.28-5.13,2.1-5,5,.11,2.47,2.22,5.3,5,5Z" transform="translate(-137.64 -22.22)"/><path class="cls-5" d="M307.87,486.44l-.73-.85c-.17-.21-1-1-.14-.17a8.86,8.86,0,0,1-1.08-1.54,34.55,34.55,0,0,1-2.08-3.59,11.17,11.17,0,0,1-.8-1.72c.35,1.2,0,0-.08-.22s-.27-.71-.4-1.07a38.25,38.25,0,0,1-1.18-4c-.15-.62-.28-1.25-.4-1.88-.07-.38-.12-.76-.19-1.14-.15-.94,0,0,0,.18a18.67,18.67,0,0,1-.28-4.61,38,38,0,0,1,.19-3.85l0-.38q.11-.85,0,.18s.11-.66.12-.76c.14-.82.31-1.63.5-2.44s.35-1.36.56-2c.07-.23.15-.47.23-.7s.26-1.36,0-.17a5.61,5.61,0,0,1,.87-1.61c.59-1-.74.68.08-.08s-.83.42,0-.05-1.08.27,0,0c-1.68.37.42.13-.44.07s.54.12.57.13c.41.08.82.16,1.24.22a10.66,10.66,0,0,0,3,.12c.72-.08,1.44-.23,2.16-.3-1,.1.07-.11.31,0l-.54-.07c-.59-.29-.65-.3-.2,0-.86-.54-.46-.33-.23-.07-.82-.94-.09-.07.05.18s.39.69.57,1.05.23.49.34.74c-.48-1.1,0,.17.09.35a19.65,19.65,0,0,1,.66,2.39c.07.34.11.69.19,1,.16.8-.08-1.22,0,.12,0,.7.1,1.39.11,2.09,0,.85,0,1.69-.08,2.54l-.09.84c-.07.58-.06.56,0-.07,0,.27-.09.55-.14.83a31.31,31.31,0,0,1-1.36,4.93c-.12.34-.27.67-.39,1s-.1.27.09-.19c-.11.26-.23.52-.35.79-.36.78-.75,1.55-1.15,2.32a66.88,66.88,0,0,1-5.94,9l9.32,2.53c-.79-11.13.51-22.23,1.82-33.26.25-2.06-1.72-4.37-3.67-4.82a5.13,5.13,0,0,0-5.64,2.3,33.32,33.32,0,0,0-3.69,22.83c.48,2.58,3.74,4.28,6.16,3.49a5.14,5.14,0,0,0,3.49-6.15,8.68,8.68,0,0,1-.21-1.24c0,.71.05.4,0-.13-.06-.76-.1-1.53-.11-2.31s0-1.54.09-2.3a5.19,5.19,0,0,1,.09-1.05c-.32,1.14,0-.12.07-.33A27.47,27.47,0,0,1,310.5,459c.11-.33.25-.65.36-1,.21-.57-.34.71.07-.14s.74-1.48,1.15-2.2l-9.32-2.53c-1.31,11-2.61,22.13-1.82,33.26a5.13,5.13,0,0,0,3.67,4.82,5.29,5.29,0,0,0,5.64-2.3c4.54-5.92,8.63-12.59,10.07-20a32.93,32.93,0,0,0,.15-12.28c-.68-3.74-2.31-8.24-5.41-10.63-2.32-1.79-4.83-2-7.64-1.61l-.62.1c-.61.1.27,0,.29,0-.24.18-1.39-.06-.33.13-1.2-.21-2.37-.49-3.59-.6-4.49-.37-8.09,3-9.77,6.88-2.94,6.76-3.34,14.36-2.3,21.58a40.92,40.92,0,0,0,9.7,21,5,5,0,0,0,7.07,0,5.12,5.12,0,0,0,0-7.07Z" transform="translate(-137.64 -22.22)"/><path class="cls-6" d="M214.17,445.22c.52,4.7-2.33,8.75-3.61,13.08s-1.21,8.87,1.74,12.41c1.47,1.76,4.2.23,4.27-1.76.15-4.33,2.77-8.09,3.72-12.24s.62-8.39-2.3-11.56c-2.18-2.37-5.71,1.17-3.53,3.53s1.39,5.77.54,8.37c-1.3,4-3.28,7.61-3.43,11.9l4.27-1.77c-2.08-2.5-.91-6.53.11-9.22,1.56-4.13,3.73-8.18,3.22-12.74a2.57,2.57,0,0,0-2.5-2.5,2.53,2.53,0,0,0-2.5,2.5Z" transform="translate(-137.64 -22.22)"/><path class="cls-6" d="M303.4,449.41c1.71,4.55-2.27,9.12-3.55,13.29s-.49,9.27,3.51,11.71c2,1.21,4.08-.77,3.67-2.82-.91-4.48,2.49-8.86,3.72-13s1.22-8.94-2-12.22c-2.25-2.31-5.78,1.23-3.53,3.54s1.12,6.6,0,9.35c-1.83,4.45-4,8.67-3,13.63l3.67-2.82c-2.91-1.78-1.32-6.21-.2-8.61,1.94-4.17,4.3-8.74,2.55-13.41a2.57,2.57,0,0,0-3.08-1.75,2.54,2.54,0,0,0-1.75,3.08Z" transform="translate(-137.64 -22.22)"/><path class="cls-1" d="M148.32,308.52a53.29,53.29,0,0,1,3-5l.78-1.09c.15-.21.83-1.1.3-.42.64-.83,1.32-1.63,2-2.41l-8.53-3.54c.11-.75.11-.86,0-.31s-.13.44.13-.23l-.17.3c-.29.45-.23.4.19-.16,0,0-.74.72-.74.74.55-.42.61-.49.15-.19a4.55,4.55,0,0,1-.63.3l5.05,8.64,16.49-10.64c3.17-2.05,7-3.85,8.26-7.67,1-3,.51-6.71.49-9.88q-.08-19.86,1.43-39.7c.14-1.82.28-3.64.44-5.45.07-.75.13-1.5.21-2.25,0-.33.07-.66.11-1,.15-1.33-.19,1.08,0-.24a27.06,27.06,0,0,1,1-4.18c.09-.27.31-1.42.06-.24a4.49,4.49,0,0,1,.51-1c.13-.22.26-.45.39-.66s.28-.43.43-.64c-.39.49-.41.52,0,.09l-7.86-6.05a249.81,249.81,0,0,0-27.91,62.84q-2.64,9.24-4.56,18.67c-.52,2.56.74,5.52,3.49,6.15,2.93.67,5.07-.9,6.16-3.49l21.43-51.09-9.64-2.66-11,42.27a5.08,5.08,0,0,0,3.5,6.15c2.89.66,5.09-.89,6.15-3.5l10.67-26.32L160.46,262l-5.94,20.51a5,5,0,0,0,1.79,5.26,5.16,5.16,0,0,0,5.56.39,12.53,12.53,0,0,0,6.47-7.88L158.52,279c0,.26,0,.53,0,.79,0,.89.21-.39,0,.05-.07.12-.42.84-.1.34.49-.76-.77.93.18-.26-1.63,2-2.14,5.11,0,7.07,1.82,1.67,5.33,2.18,7.07,0a11.16,11.16,0,0,0,2.83-8,5,5,0,0,0-4.34-4.91,5,5,0,0,0-5.48,3.58c-.06.23-.14.47-.22.7.27-.63.29-.69,0-.2a6.65,6.65,0,0,1-.39.63c.38-.47.45-.57.21-.29a4.89,4.89,0,0,1-.39.4c-.41.36-.36.34.16-.07a3.73,3.73,0,0,1-1.29.73l7.34,5.65,5.94-20.51a5,5,0,0,0-3.49-6.15c-2.9-.66-5.1.89-6.15,3.49l-10.68,26.33,9.65,2.65,11-42.26a5.06,5.06,0,0,0-3.49-6.15c-2.93-.67-5.07.9-6.15,3.49l-21.44,51.09,9.65,2.66a242.59,242.59,0,0,1,8.91-32.31q1.41-4,3-8c.49-1.25,1-2.5,1.5-3.74.15-.34.29-.69.43-1l.11-.26c.29-.68.58-1.37.88-2q3.35-7.71,7.23-15.18,4.39-8.47,9.44-16.58a5,5,0,0,0-1.29-6.45c-1.83-1.41-4.95-1.51-6.56.39-4.19,5-5.09,10.94-5.63,17.2q-.84,9.65-1.3,19.33-.48,9.93-.55,19.86c0,3.23,0,6.46,0,9.69,0,.71,0,1.42,0,2.13a3.64,3.64,0,0,1,0,1.19c.07-.15.35-1,0-.19a3.11,3.11,0,0,1,.54-.84c-.76.94.77-.38-.27.27-.67.42-1.33.86-2,1.29l-18.55,12c-2.2,1.42-3.3,4.51-1.79,6.85s4.27,2.93,6.84,1.79c3.67-1.64,5.57-5.27,6-9.09.23-1.92-1.46-3.88-3.08-4.56a4.94,4.94,0,0,0-5.46,1,57.2,57.2,0,0,0-7.66,10.92,5,5,0,1,0,8.64,5Z" transform="translate(-137.64 -22.22)"/><path class="cls-1" d="M354.42,289.1l.21-.11-2.52.69-.88-.09L349,288.3l-.49-.66-.68-2.52v.23l.68-2.52-.11.2,1.79-1.79,1.86-.55,2.53.69-.2-.11,1.79,1.79-.13-.19-6.84,6.84a77.85,77.85,0,0,1,10.71,6.76l.52.39c-.45-.34-.45-.34,0,0s.9.72,1.34,1.09c.77.64,1.53,1.29,2.27,2,1.6,1.43,3.13,2.94,4.61,4.5a5,5,0,0,0,7.85-6.05A37.84,37.84,0,0,0,354,282.07a5.1,5.1,0,0,0-5.65,2.29c-1,1.87-.93,4.59.79,6.06q11.24,9.68,23.34,18.28a5,5,0,0,0,7.35-5.64c-4-10.55-4.42-21.95-7.29-32.79-1.58-6-4.15-11.61-6.58-17.27l-7.24-16.83-8.21-19.11c-1-2.28-4.19-2.91-6.24-2.05a5,5,0,0,0-2.9,5.9A85.54,85.54,0,0,1,344,233.05c0,.23.07.47.1.7l0-.17c.05.47.11.94.17,1.4.12,1.09.23,2.18.32,3.28q.27,3,.4,6.11c.39,8.36.23,16.74.19,25.1l-.06,14.8a5,5,0,0,0,9.82,1.33,272.69,272.69,0,0,0,5.19-35.73h-10a133.11,133.11,0,0,0,4,33.19,5,5,0,0,0,9.82-1.33l.18-20.68h-10q1.44,12.87,3.43,25.67c.38,2.45,3.27,3.88,5.48,3.59,2.65-.36,4-2.4,4.34-4.92l1.36-11.25-9.82,1.33L363,288.31c.8,2.49,3.5,4.35,6.15,3.49,2.48-.8,4.35-3.48,3.49-6.15l-4.15-12.84a5,5,0,0,0-5.48-3.58c-2.65.36-4,2.4-4.34,4.91l-1.36,11.25,9.82-1.32c-1.29-8.32-2.13-14.56-3.07-23-.29-2.59-2.1-5.13-5-5a5.09,5.09,0,0,0-5,5l-.18,20.68,9.82-1.33c-.64-2.56-1.21-5.14-1.69-7.74-.24-1.26-.45-2.52-.65-3.79l-.27-1.9c-.12-.82.08.73,0-.09l-.15-1.2a128.54,128.54,0,0,1-.85-15.81,5,5,0,0,0-5-5,5.13,5.13,0,0,0-5,5q-.33,4.27-.8,8.54c-.16,1.38-.32,2.75-.5,4.13l-.12,1c-.21,1.56.08-.52-.05.37-.11.73-.21,1.46-.31,2.19q-1.24,8.48-3.06,16.87l9.83,1.33c0-8.73.1-17.47.11-26.2A190.72,190.72,0,0,0,354,233.12a96.48,96.48,0,0,0-3-14.87l-9.14,3.86,14.37,33.43,1.66,3.87.87,2,.47,1.11a6.18,6.18,0,0,1,.25.58,81.27,81.27,0,0,1,2.91,8.05,139.93,139.93,0,0,1,3.35,16.26,96.3,96.3,0,0,0,4.42,18.28l7.35-5.65q-2.9-2.06-5.74-4.18l-2.64-2-.86-.67-1.31-1q-5.49-4.32-10.77-8.87l-4.87,8.36c1,.25,2,.53,2.95.87a10.42,10.42,0,0,1,1.44.55c-1.07-.58,0,0,.22.11a32.27,32.27,0,0,1,5.15,3c.21.15,1.41.94.37.25a12.38,12.38,0,0,1,1.19,1c.72.64,1.42,1.3,2.09,2a13,13,0,0,1,1.9,2.17c-.63-1.1.22.31.37.52.3.42.58.85.86,1.28l7.85-6.06a82.13,82.13,0,0,0-21.47-16.29,5,5,0,0,0-6.84,6.84,5.61,5.61,0,0,0,10.24-1.23,5.54,5.54,0,0,0-1.58-5.45,5.64,5.64,0,0,0-6.71-.76,5,5,0,0,0-1.8,6.84,5.12,5.12,0,0,0,6.84,1.79Z" transform="translate(-137.64 -22.22)"/></g><g id="outline"><path class="cls-7" d="M175,244c9.31,14.06,19.33,27.66,29.94,40.77q4.46,5.5,9.06,10.89c2.17,2.55,6.26,1.52,7.85-1q1.81-2.88,3.82-5.62l.93-1.23.43-.56c.74-.92,1.49-1.83,2.26-2.72,1.49-1.74,3.05-3.43,4.67-5.05.72-.73,1.5-1.41,2.2-2.14.2-.21.7-.44-.08,0a5.19,5.19,0,0,0,.5-.31c.46-.35-.37.14-.57.17-.5.08-.86-.24-1.28-.24.14,0,.6.38.67.42-.08-.05-.58-.54-.24-.14s.79.73,1.16,1.09l2.89,2.76,5.6,5.35,11,10.53,43.91,41.93,24.75,23.65a5,5,0,0,0,7.08-7.08l-45.9-43.83-23.13-22.09-11.39-10.87-5.78-5.52c-2-1.92-4-4.15-6.56-5.25-3.73-1.58-7.25,0-10,2.6-1.94,1.83-3.79,3.77-5.56,5.76a100.62,100.62,0,0,0-10,13.32l7.85-1q-8-9.33-15.5-19l-.43-.56c-.5-.63.4.53-.09-.11l-.86-1.11-1.85-2.44q-1.85-2.43-3.66-4.89-3.69-5-7.27-10.1-4-5.65-7.78-11.42c-1.44-2.17-4.48-3.31-6.84-1.79-2.17,1.4-3.34,4.51-1.79,6.84Z" transform="translate(-137.64 -22.22)"/><path class="cls-8" d="M174.84,250.26a276.65,276.65,0,0,0,25.59,35q3.57,4.15,7.29,8.14c2.3,2.47,4.66,5.71,8.27,6.06,6.06.58,8.69-6.6,11-10.83a26.29,26.29,0,0,1,6.11-7.41c.36-.29.85-.77,1.31-.81-.33,0,0,.06.25.23s.5.37.76.59l4.26,3.55q8.46,7.13,16.72,14.51,16.14,14.44,31.38,29.87,17.32,17.52,33.4,36.23a2.54,2.54,0,0,0,3.54,0,2.56,2.56,0,0,0,0-3.54,710.48,710.48,0,0,0-60.68-62.39q-8-7.29-16.25-14.34-4.22-3.6-8.48-7.13a9.35,9.35,0,0,0-4.11-2.46c-2.13-.4-3.9.72-5.47,2a30.1,30.1,0,0,0-6.43,7.48c-1.5,2.44-2.45,5.23-4.21,7.51a5.63,5.63,0,0,1-2,1.81,1.53,1.53,0,0,1-.86.12c.29,0-.19-.05-.2-.06a2.89,2.89,0,0,1-.86-.47,33.08,33.08,0,0,1-3.64-3.75q-1.87-2-3.69-4a267.41,267.41,0,0,1-28.72-38.4c-1.69-2.73-6-.23-4.32,2.52Z" transform="translate(-137.64 -22.22)"/><path class="cls-9" d="M294,446.29c-3.4,7.68-6.11,15.86-6.23,24.33a34.81,34.81,0,0,0,8.13,22.58,98,98,0,0,0,9.25,9.65c1.43,1.36,4.51.51,4.27-1.77-.88-8.26,5.58-14.71,9.64-21.19A29.12,29.12,0,0,0,323.1,458a28.18,28.18,0,0,0-5.44-11.41,2.53,2.53,0,0,0-3.54,0,2.57,2.57,0,0,0,0,3.54,23.32,23.32,0,0,1,4.25,18.51c-1.52,7.51-7.14,12.88-10.73,19.4-2.19,3.95-3.74,8.45-3.25,13l4.27-1.76c-5.2-4.94-10.56-10-13.59-16.64s-2.76-14.49-1.06-21.53a72.51,72.51,0,0,1,4.27-12.33,2.58,2.58,0,0,0-.89-3.42,2.51,2.51,0,0,0-3.42.89Z" transform="translate(-137.64 -22.22)"/><path class="cls-9" d="M204.83,444.69c-3.4,7.68-6.11,15.85-6.23,24.33a34.81,34.81,0,0,0,8.13,22.58,99.16,99.16,0,0,0,9.25,9.65c1.43,1.36,4.51.51,4.27-1.77-.88-8.27,5.58-14.71,9.64-21.19A29.14,29.14,0,0,0,234,456.42,28.12,28.12,0,0,0,228.52,445a2.52,2.52,0,0,0-3.54,0,2.57,2.57,0,0,0,0,3.54,23.3,23.3,0,0,1,4.25,18.5c-1.52,7.52-7.14,12.89-10.73,19.4-2.19,4-3.74,8.46-3.25,13l4.27-1.77c-5.2-4.94-10.56-10-13.59-16.64s-2.76-14.49-1.06-21.53a72.81,72.81,0,0,1,4.27-12.33,2.58,2.58,0,0,0-.89-3.42,2.52,2.52,0,0,0-3.42.9Z" transform="translate(-137.64 -22.22)"/><path class="cls-3" d="M322.16,450.33a66.37,66.37,0,0,0-32.86.59c-3.11.85-4.43-4-1.33-4.82a71.81,71.81,0,0,1,35.52-.6c3.13.75,1.81,5.57-1.33,4.83Z" transform="translate(-137.64 -22.22)"/><path class="cls-3" d="M233.86,448.79a66.37,66.37,0,0,0-32.86.59c-3.11.85-4.44-4-1.33-4.82a71.81,71.81,0,0,1,35.52-.59c3.13.74,1.8,5.56-1.33,4.82Z" transform="translate(-137.64 -22.22)"/><path class="cls-3" d="M277,366.2A124.41,124.41,0,0,0,285.9,449a2.5,2.5,0,1,0,4.32-2.52A120.32,120.32,0,0,1,279,385a115.1,115.1,0,0,1,2.79-17.5c.74-3.13-4.08-4.47-4.82-1.33Z" transform="translate(-137.64 -22.22)"/><path class="cls-3" d="M334.18,366.2A124.23,124.23,0,0,1,325.25,449a2.52,2.52,0,0,1-3.42.9,2.55,2.55,0,0,1-.89-3.42A120.43,120.43,0,0,0,332.15,385a116.36,116.36,0,0,0-2.79-17.5c-.74-3.13,4.08-4.47,4.82-1.33Z" transform="translate(-137.64 -22.22)"/><path class="cls-3" d="M245.18,365.2A124.23,124.23,0,0,1,236.25,448a2.52,2.52,0,0,1-3.42.9,2.55,2.55,0,0,1-.89-3.42A120.43,120.43,0,0,0,243.15,384a116.36,116.36,0,0,0-2.79-17.5c-.74-3.13,4.08-4.47,4.82-1.33Z" transform="translate(-137.64 -22.22)"/><path class="cls-3" d="M188.3,365.15a124.3,124.3,0,0,0,8.93,82.75,2.52,2.52,0,0,0,3.42.89,2.55,2.55,0,0,0,.89-3.42A120.37,120.37,0,0,1,190.33,384a117.44,117.44,0,0,1,2.79-17.5c.74-3.13-4.08-4.47-4.82-1.33Z" transform="translate(-137.64 -22.22)"/><path class="cls-3" d="M330,366.71q-27.45.57-54.89.51t-54.88-.75q-15.47-.39-30.92-1c-3.2-.13-3.22-5.13,0-5q27.42,1,54.86,1.45t54.89.2q15.48-.12,30.94-.44c3.22-.06,3.22,4.94,0,5Z" transform="translate(-137.64 -22.22)"/><path class="cls-3" d="M329.39,362.57a347.38,347.38,0,0,0,12.15-70.86,370.89,370.89,0,0,0-2.31-72.29A379.89,379.89,0,0,0,324,152a405.29,405.29,0,0,0-25.68-61.62,429.34,429.34,0,0,0-35.41-57.07q-2.43-3.31-4.92-6.58a2.52,2.52,0,0,1,.89-3.42,2.57,2.57,0,0,1,3.43.9,434.28,434.28,0,0,1,36.77,56.9,416.5,416.5,0,0,1,27.14,61.77A386.53,386.53,0,0,1,343,210.29a376,376,0,0,1,4.05,72.9A355.79,355.79,0,0,1,336.58,355q-1.12,4.45-2.37,8.86c-.87,3.1-5.69,1.78-4.82-1.33Z" transform="translate(-137.64 -22.22)"/><path class="cls-3" d="M190.67,361.89A347.59,347.59,0,0,1,178.52,291a370.89,370.89,0,0,1,2.31-72.29,380.08,380.08,0,0,1,15.22-67.47,405.29,405.29,0,0,1,25.68-61.62,430,430,0,0,1,35.41-57.07q2.43-3.32,4.92-6.58a2.51,2.51,0,0,0-.9-3.42,2.57,2.57,0,0,0-3.42.9A434.28,434.28,0,0,0,221,80.37a416.5,416.5,0,0,0-27.14,61.77,385.86,385.86,0,0,0-16.72,67.46,376,376,0,0,0-4.05,72.9,356,356,0,0,0,10.42,71.86q1.13,4.44,2.37,8.85c.87,3.1,5.69,1.78,4.82-1.32Z" transform="translate(-137.64 -22.22)"/><path class="cls-10" d="M233.5,224.74c-7.73-12.15-3.85-29.65,8.39-37.26,14.51-9,35.21-8.29,47.51,4.18a32,32,0,0,1,9.48,23.87c-.17,3.22,4.83,3.21,5,0a36.75,36.75,0,0,0-8.8-25,39.2,39.2,0,0,0-23.77-13.43,47.46,47.46,0,0,0-29.05,4.48A31.76,31.76,0,0,0,226,200.75a32.31,32.31,0,0,0,3.2,26.51c1.72,2.71,6,.2,4.32-2.52Z" transform="translate(-137.64 -22.22)"/><circle class="cls-11" cx="123.86" cy="166.28" r="50"/><path class="cls-10" d="M240.87,182.19c-2.06-1.25-3.84-2.95-6-4a9.12,9.12,0,0,0-7.62-.43c-2.08.92-3.36,2.8-4.42,4.73a11.12,11.12,0,0,1-1.53,2.4,3.1,3.1,0,0,1-1,.78c-.34.15-.27.09-.56,0a2.53,2.53,0,0,0-3.08,3.08,13.24,13.24,0,0,0,13.35,9.71,2.57,2.57,0,0,0,2.5-2.5,2.51,2.51,0,0,0-2.5-2.5,8.25,8.25,0,0,1-8.53-6l-3.07,3.07A6.6,6.6,0,0,0,225,188.2c1.33-1.51,2.07-3.68,3.27-5.08,1-1.22,2.48-1.23,4-.59,2.21.92,4,2.74,6,4,2.76,1.67,5.27-2.65,2.52-4.32Z" transform="translate(-137.64 -22.22)"/><path class="cls-10" d="M288,180.46c.06.36-.05,0,0,0l0,.22a2.66,2.66,0,0,1,.08-.33c.14-.35-.18.29,0,0,0,0,.28-.41.14-.23a2,2,0,0,1,.36-.33l.43-.25c.12-.07.33-.14.08-.05.2-.07.4-.12.6-.17.38-.09-.33,0,.06,0a6.19,6.19,0,0,1,.81,0,8.27,8.27,0,0,1,2.27.72c3.54,1.66,6.88,3.91,11,2.9l-3.17-2.41c0,.33,0,.65,0,1,0,.52.09-.25,0,.3-.06.24-.1.48-.17.71s-.34.95-.17.55a7.6,7.6,0,0,1-.71,1.28c-.09.14-.18.28-.28.41.14-.18.12-.16-.06.07s-.33.37-.51.54a6.26,6.26,0,0,1-4.83,2,2.5,2.5,0,0,0,0,5,11.71,11.71,0,0,0,11.77-11.81,2.53,2.53,0,0,0-3.16-2.41,4.33,4.33,0,0,1-2.24-.12,13.42,13.42,0,0,1-2.54-1.07,20,20,0,0,0-6.1-2.48,7.73,7.73,0,0,0-6.18,1.5,5.91,5.91,0,0,0-2.25,5.9,2.51,2.51,0,0,0,3.07,1.74,2.55,2.55,0,0,0,1.75-3.07Z" transform="translate(-137.64 -22.22)"/><path class="cls-3" d="M242.55,203.27a12.5,12.5,0,0,0-1.26,9.67,2.56,2.56,0,0,0,3.08,1.75c4.56-1.08,6.33-7.72,2.8-10.87a2.5,2.5,0,1,0-3.53,3.54,3.35,3.35,0,0,1,.41.43l-.39-.5a3.4,3.4,0,0,1,.42.71l-.25-.59a4,4,0,0,1,.26,1l-.09-.66a4.74,4.74,0,0,1,0,1.19l.09-.67a5.11,5.11,0,0,1-.32,1.16l.25-.6a4.18,4.18,0,0,1-.55,1l.39-.51a4.43,4.43,0,0,1-.64.66l.51-.4a3.52,3.52,0,0,1-.72.43l.6-.25a2.9,2.9,0,0,1-.57.18l3.08,1.75a11.1,11.1,0,0,1-.3-1.39l.09.66a10.13,10.13,0,0,1,0-2.58l-.09.67a10.27,10.27,0,0,1,.71-2.62l-.25.6a9.58,9.58,0,0,1,.59-1.15,2.5,2.5,0,0,0-4.32-2.53Z" transform="translate(-137.64 -22.22)"/><path class="cls-3" d="M274.71,201.72a8.68,8.68,0,0,0,.16,8.92,6.44,6.44,0,0,0,2,2.08,3.33,3.33,0,0,0,4.11-.59,6.72,6.72,0,0,0,1.36-2.64,10,10,0,0,0,.37-2.5,9.46,9.46,0,0,0-1.47-5.25,2.5,2.5,0,1,0-4.32,2.52,7.21,7.21,0,0,1,.57,1.06l-.25-.6a8,8,0,0,1,.5,1.85l-.09-.66a7.26,7.26,0,0,1,0,1.92l.09-.66a7.41,7.41,0,0,1-.48,1.73l.25-.6a3.72,3.72,0,0,1-.38.71l.39-.5a2.39,2.39,0,0,1-.22.23l.5-.39a.62.62,0,0,1-.17.11l.6-.25a.83.83,0,0,1-.21.06l.67-.09a.59.59,0,0,1-.23,0l.67.09a.79.79,0,0,1-.22-.06l.6.25a2,2,0,0,1-.31-.19l.51.39a4.25,4.25,0,0,1-.62-.65l.39.51a6.28,6.28,0,0,1-.78-1.32l.26.6a6.3,6.3,0,0,1-.44-1.58l.09.66a7.32,7.32,0,0,1,0-1.75l-.09.67a6.17,6.17,0,0,1,.41-1.47l-.25.6a5.58,5.58,0,0,1,.35-.69,2.53,2.53,0,0,0-.9-3.42,2.56,2.56,0,0,0-3.42.9Z" transform="translate(-137.64 -22.22)"/><path class="cls-10" d="M267.33,213.64c-4.61-1.3-10-1.49-13.95,1.65-3.27,2.61-4.87,7.57-2.83,11.39,2.27,4.26,7.71,4.92,12,5,4.73.09,10-1.44,12.22-6.05a7.87,7.87,0,0,0-.23-7.64,8.16,8.16,0,0,0-6.56-3.84,2.5,2.5,0,0,0,0,5,3.14,3.14,0,0,1,2.32,1.48,2.75,2.75,0,0,1,0,2.74c-1.39,2.69-4.61,3.35-7.61,3.31a20.39,20.39,0,0,1-4.56-.46,9,9,0,0,1-1.75-.58c-.2-.11-.7-.42-.68-.41-.14-.11-.65-.64-.57-.54a3,3,0,0,1-.45-2.66,4,4,0,0,1,.52-1.34c0-.07.52-.82.34-.59a8.24,8.24,0,0,1,.81-.86,5.05,5.05,0,0,1,1.52-.92,8,8,0,0,1,2.5-.56,16.16,16.16,0,0,1,5.57.7c3.1.87,4.43-3.95,1.33-4.83Z" transform="translate(-137.64 -22.22)"/><path class="cls-10" d="M257.9,225.56c3.22,0,3.23-5,0-5s-3.22,5,0,5Z" transform="translate(-137.64 -22.22)"/><path class="cls-10" d="M264.3,224.54l.64.65a1.93,1.93,0,0,0,.81.51,1.86,1.86,0,0,0,1,.22,1.88,1.88,0,0,0,1-.22,1.93,1.93,0,0,0,.81-.51l.39-.51a2.53,2.53,0,0,0,.34-1.26l-.09-.67a2.5,2.5,0,0,0-.64-1.1l-.65-.64a1.77,1.77,0,0,0-.8-.52,2.23,2.23,0,0,0-1.93,0,1.77,1.77,0,0,0-.8.52l-.39.5a2.54,2.54,0,0,0-.35,1.26l.09.67a2.52,2.52,0,0,0,.65,1.1Z" transform="translate(-137.64 -22.22)"/><path class="cls-3" d="M177.49,204.32a178.66,178.66,0,0,0-24.13,39.4,179.78,179.78,0,0,0-15.72,70.59c0,1.79,2.19,3.26,3.76,2.16l33.38-23.27a2.56,2.56,0,0,0,.9-3.42,2.52,2.52,0,0,0-3.42-.89l-33.38,23.26,3.76,2.16a173.35,173.35,0,0,1,6.52-44.41,176.32,176.32,0,0,1,17.49-41.15A170.49,170.49,0,0,1,181,207.86a2.59,2.59,0,0,0,0-3.54,2.54,2.54,0,0,0-3.54,0Z" transform="translate(-137.64 -22.22)"/><path class="cls-3" d="M340.94,203.39a178.82,178.82,0,0,1,24.13,39.39,179.85,179.85,0,0,1,15.72,70.6c0,1.79-2.19,3.26-3.77,2.16l-33.37-23.27a2.56,2.56,0,0,1-.9-3.42,2.52,2.52,0,0,1,3.42-.9l33.38,23.27-3.76,2.16A173.36,173.36,0,0,0,369.27,269a176.5,176.5,0,0,0-17.49-41.15,170.73,170.73,0,0,0-14.38-20.88,2.57,2.57,0,0,1,0-3.54,2.53,2.53,0,0,1,3.54,0Z" transform="translate(-137.64 -22.22)"/><path class="cls-3" d="M279.63,195.57l3.21,2a1.85,1.85,0,0,0,.93.29,1.89,1.89,0,0,0,1,0,2,2,0,0,0,.85-.45,1.88,1.88,0,0,0,.64-.7,2.5,2.5,0,0,0,.25-1.93,2.66,2.66,0,0,0-1.15-1.49l-3.21-2a1.85,1.85,0,0,0-.93-.29,1.89,1.89,0,0,0-1,0,2.8,2.8,0,0,0-1.49,1.15,2.5,2.5,0,0,0-.25,1.93,2.62,2.62,0,0,0,1.15,1.49Z" transform="translate(-137.64 -22.22)"/><path class="cls-3" d="M246.72,198.36l3.22-1.3a1.89,1.89,0,0,0,.85-.45,1.83,1.83,0,0,0,.65-.7,2.88,2.88,0,0,0,.25-1.92,2.55,2.55,0,0,0-1.15-1.5l-.6-.25a2.5,2.5,0,0,0-1.33,0l-3.22,1.29a1.94,1.94,0,0,0-.85.45,2.26,2.26,0,0,0-.94,1.63,2,2,0,0,0,0,1,2.57,2.57,0,0,0,1.15,1.49l.6.26a2.72,2.72,0,0,0,1.33,0Z" transform="translate(-137.64 -22.22)"/></g></svg>