<svg id="Layer_1" data-name="Layer 1" xmlns="http://www.w3.org/2000/svg" viewBox="0 0 356.28 215.59"><defs><style>.cls-1{fill:#727272;}.cls-2{opacity:0.07;}.cls-3{fill:#00bbe3;}.cls-4{fill:#6fbe44;}.cls-5{fill:#231f20;}.cls-6{fill:#e9e612;}.cls-7{fill:#dfdc1e;stroke:#dfdc1e;stroke-miterlimit:10;stroke-width:2px;}</style></defs><g id="colour"><path class="cls-1" d="M417.55,243.09c-4,3.28-6.85,7.9-9.73,12.17L399,268.37l13,7.57q3.92-6.6,8.33-12.89c1.43-2,2.9-4,4.4-6,.6-.79-.1.14-.32.41l.57-.73,1.3-1.64c.83-1,1.66-2.05,2.51-3.07a8,8,0,0,0,2.19-5.3,7.6,7.6,0,0,0-2.19-5.3c-2.83-2.6-7.86-3.16-10.61,0-7.39,8.47-14.87,17.09-20.29,27a7.54,7.54,0,0,0,1.93,9.67c2.67,2.06,7.54,2.36,9.85-.58a126.35,126.35,0,0,0,11-16.3q2.19-3.93,4.07-8A35.35,35.35,0,0,0,427,247.7a13.34,13.34,0,0,0,.46-3.67,12.21,12.21,0,0,0-1.37-5.12l.76,1.79a1.75,1.75,0,0,1-.18-.63l.27,2v-.24l-.26,2,.06-.21L426,245.4c-2.53,2-3.2,2.68-2,2.15l-1.8.76a1.64,1.64,0,0,1,.49-.1l-2,.27a2.35,2.35,0,0,1,.53,0l-2-.27a3.48,3.48,0,0,1,.78.22l-1.79-.76c.62.34.35.11-.79-.67a4.64,4.64,0,0,1,.49.5q-1.19-1.6-.57-.66a5.38,5.38,0,0,1,.31.64l-.75-1.8a8.72,8.72,0,0,1,.54,2.08l-.26-2a9.75,9.75,0,0,1,0,2.16l.27-2a14.06,14.06,0,0,1-.84,3l.76-1.79a44.27,44.27,0,0,1-3.3,6q-.75,1.2-1.56,2.37-.45.67-.93,1.32c-.16.22-.32.44-.49.65.77-1,.91-1.17.43-.56a39.31,39.31,0,0,1-4.11,4.35c-.4.35-.84.66-1.22,1,1.71-1.58.43-.35-.08,0a27,27,0,0,1-2.76,1.59c-3.52,1.76-4.79,7-2.69,10.26a7.68,7.68,0,0,0,10.26,2.69,34.34,34.34,0,0,0,10.95-9,60.88,60.88,0,0,0,8-12.11,20,20,0,0,0,2.4-9.23,14.75,14.75,0,0,0-3.71-9.59,10.29,10.29,0,0,0-10.32-3.06,8.63,8.63,0,0,0-5.9,5.78c-.78,2.65,0,4.76,1,7.17L412.5,245a3.69,3.69,0,0,1,.2.81l-.27-2a6.51,6.51,0,0,1,0,1.25l.27-2a11.7,11.7,0,0,1-.66,2.08l.76-1.79a112.6,112.6,0,0,1-6.53,12.81c-1.23,2.06-2.52,4.09-3.87,6.07-.68,1-1.37,2-2.08,2.94-.35.49-.71,1-1.07,1.45l-.55.71c.71-.92.83-1.07.34-.45L410.78,276c1.26-2.3,2.62-4.53,4.08-6.71q1.06-1.57,2.19-3.12c.4-.55.8-1.09,1.21-1.63l.54-.71c.55-.75-1.18,1.5-.21.27,3.25-4.13,6.68-8.1,10.14-12.07l-10.61-10.6a208.37,208.37,0,0,0-19.14,27c-2,3.38-.87,8.38,2.7,10.26a7.68,7.68,0,0,0,10.26-2.69l8.55-12.7c1.28-1.89,2.53-3.82,3.88-5.67.18-.23.35-.47.52-.7-.73.95-.86,1.11-.37.5.38-.44.74-.89,1.13-1.31a24.44,24.44,0,0,1,2.51-2.37,7.51,7.51,0,0,0,2.2-5.3,7.61,7.61,0,0,0-2.2-5.3,7.5,7.5,0,0,0-5.3-2.2,8.61,8.61,0,0,0-5.31,2.2Z" transform="translate(-85.71 -105.28)"/><path class="cls-1" d="M99,264a81.85,81.85,0,0,1,5,8.92c.36.75.7,1.5,1,2.26s.12.2-.11-.27c.2.41.35.86.52,1.28.65,1.63,1.23,3.28,1.77,4.94l13.71-5.78c-.08-.18-1-2.21-.53-1.17s-.29-.73-.37-.93c-.44-1.14-.86-2.29-1.25-3.45q-1.12-3.34-1.94-6.78a45.51,45.51,0,0,1-1.31-6.93c.15,2,0,.11,0-.25-.06-.56-.12-1.12-.17-1.68-.11-1.32-.19-2.63-.24-3.95l-14,3.79,14,32.58a7.43,7.43,0,0,0,4.48,3.45,7.78,7.78,0,0,0,4.88-.38c3.58-1.51,5.09-5.13,4.35-8.85l-6-30-14.46,4a341.35,341.35,0,0,0,14.24,35c1.59,3.36,6.2,4.4,9.37,3.07a7.55,7.55,0,0,0,4.34-8.85l-9.1-37.79-14.46,4c4.36,12.93,9.39,25.64,15,38.09a7.42,7.42,0,0,0,4.48,3.44,7.7,7.7,0,0,0,4.88-.37c3.25-1.37,5.57-5.3,4.35-8.85a271.21,271.21,0,0,1-10.68-41.31l-14.46,4a365.24,365.24,0,0,0,17.1,44.5c1.55,3.38,6.22,4.39,9.36,3.07a7.54,7.54,0,0,0,4.34-8.85l-8.12-35-14.47,4,14,40.23c1.29,3.69,5.19,6.54,9.23,5.23,3.79-1.22,6.45-5.2,5.24-9.22a312.85,312.85,0,0,1-9.64-42.31l-14.47,4,14.42,39.53,14.46-4a137.63,137.63,0,0,1-5.82-19.25c-.71-3.18-1.3-6.39-1.78-9.61,0-.24-.25-1.88-.1-.72s0-.23-.05-.43c-.11-.85-.21-1.71-.3-2.57-.18-1.71-.32-3.43-.44-5.15l-14.73,2,13.93,43.22c1.2,3.73,5.26,6.52,9.23,5.24,4.17-1.35,6-5.08,5.24-9.23l-6.67-38.49-14.46,4,12.07,38.15a7.53,7.53,0,0,0,8.23,5.37c3.32-.44,7-3.66,6.5-7.36l-4.21-34.24-14.73,2q6.26,17.85,12.49,35.69c1.29,3.7,5.19,6.55,9.23,5.24a7.66,7.66,0,0,0,5.24-9.22c-1.29-5.3-2.58-10.61-3.4-16,0-.29-.09-.59-.13-.88.13,1,.15,1.09,0,.23-.07-.59-.14-1.17-.2-1.76-.13-1.37-.23-2.75-.27-4.12a53.94,53.94,0,0,1,.33-8.24l-14.73,2q7.11,19.47,16,38.22c1.59,3.37,6.19,4.41,9.36,3.07,3.62-1.53,5-5.11,4.35-8.85l-6.32-34.49-14.46,4c4.05,13,8.23,26.07,14.94,38a7.51,7.51,0,0,0,9.37,3.07c3.59-1.51,5.06-5.12,4.34-8.85l-6.69-34.65-14.46,4a124.35,124.35,0,0,0,19.07,34.63c1.93,2.5,6.56,2.81,9.09,1.18,2.72-1.76,4.49-5.23,3.44-8.47q-4.25-13.28-9.36-26.25a8.12,8.12,0,0,0-3.45-4.48,7.49,7.49,0,0,0-11,8.46,111.51,111.51,0,0,0,13.6,30.84,7.51,7.51,0,0,0,13.71-5.77l-8.12-29.51-14.46,4a110.39,110.39,0,0,0,17.47,34c2.3,3,5.63,4.64,9.36,3.07a7.55,7.55,0,0,0,4.35-8.85l-7.29-30.88-13.71,5.78a212.79,212.79,0,0,0,18.82,31c1.92,2.62,5.11,4.54,8.47,3.45a7.7,7.7,0,0,0,5.51-7.24A214.69,214.69,0,0,0,228.39,275l-14,3.78q9.93,14.13,19.87,28.25c1.86,2.65,5.14,4.53,8.47,3.45,3-1,5.71-3.87,5.5-7.23-1-16.05-13-28.42-26.84-35.23a7.63,7.63,0,0,0-8.33.59c-2.17,1.68-3.77,5.12-2.68,7.88a129.16,129.16,0,0,0,11,22.11l11.78-9.09c-1-1-1.89-1.94-2.79-3a18.16,18.16,0,0,1-2.29-2.75c1,1.81-.06-.1-.36-.51s-.78-1.11-1.16-1.68c-.67-1-1.3-2-1.91-3a72.72,72.72,0,0,1-3.5-6.8c-.68-1.49.51,1.33,0-.09-.24-.63-.5-1.26-.73-1.9-.46-1.28-.88-2.57-1.27-3.88l-13.7,5.78a167.85,167.85,0,0,0,24,33.78c2.52,2.76,7,2.77,9.85.59a7.48,7.48,0,0,0,1.93-9.68c-3.11-4.95-6.23-9.9-9-15.06a46,46,0,0,1-3.76-7.73c.6,2-.15-.37-.31-.76q-.41-1-.78-2.07c-.5-1.4-.95-2.8-1.36-4.23l-13.71,5.78,26.82,36.87a8.08,8.08,0,0,0,4.48,3.45,7.5,7.5,0,0,0,8.47-11c-2.91-5-5.59-10.05-8-15.27-.59-1.28-1.15-2.58-1.72-3.87-.33-.77-.3-.7.09.23l-.43-1.05c-.25-.61-.5-1.22-.74-1.83-1.08-2.72-2.08-5.46-3-8.23l-12.54,7.3.73.93c-.58-.74-.61-.77-.1-.11l1.44,1.88q1.43,1.88,2.84,3.77,2.64,3.56,5.22,7.17,5.31,7.44,10.33,15.11c2.15,3.28,6.74,5,10.26,2.69a7.67,7.67,0,0,0,2.69-10.26q-3.83-7.59-7.36-15.32c-1.16-2.53-2.29-5.08-3.4-7.63l-.82-1.92-.47-1.1q.49,1.19.18.42c-.58-1.38-1.15-2.75-1.71-4.13l-13.71,5.78a162.8,162.8,0,0,0,21.65,32c2.44,2.83,7.09,2.72,9.85.59a7.56,7.56,0,0,0,1.93-9.68l-15.61-29.78-12.95,7.57,19.77,29.38c2.19,3.25,6.71,5,10.26,2.69s4.52-6.47,2.69-10.26l-13.3-27.55c-1.71-3.54-7-4.77-10.26-2.69a7.59,7.59,0,0,0-3.45,4.48,8.72,8.72,0,0,0,.76,5.78,88.56,88.56,0,0,0,24.08,32.41c2.89,2.43,6.73,3,9.85.59A7.54,7.54,0,0,0,279,302l-17.29-31.61-12.95,7.57a304.19,304.19,0,0,0,19.57,29.69c1.95,2.6,5.08,4.54,8.47,3.45a7.74,7.74,0,0,0,5.51-7.24c.09-7.4-3.51-13.87-7.44-19.87a77.86,77.86,0,0,1-4.83-8l-.42-.89c-.63-1.28.59,1.61.15.36-.26-.73-.52-1.45-.72-2.2-.1-.37-.18-.74-.26-1.11-.15-.73.12-1.64,0,.47,0-.77-.1-1.55-.08-2.33l-14,3.78L275,308.92a7.51,7.51,0,0,0,9.37,3.06c3.27-1.38,5.52-5.27,4.34-8.84L278.76,273l-13.71,5.78,12.1,24.46c1.65,3.35,6.15,4.43,9.37,3.07a7.52,7.52,0,0,0,4.34-8.85l-7.09-26.87-14.47,4a94.28,94.28,0,0,0,17.63,33.75,7.43,7.43,0,0,0,5.3,2.2,7.79,7.79,0,0,0,4.55-1.61,7.58,7.58,0,0,0,1.93-9.68c-.54-1.08-1.07-2.16-1.56-3.26-.18-.39-1.12-2.28-.24-.51-.25-.49-.43-1-.63-1.55-.84-2.16-1.59-4.36-2.25-6.58s-1.23-4.48-1.7-6.75c-.22-1.09-.43-2.19-.61-3.29a10.11,10.11,0,0,1-.25-1.65c0,2.13,0-.29-.08-.77l-14.74,2,10,25.43a8.16,8.16,0,0,0,3.45,4.48,7.5,7.5,0,0,0,11-8.47l-7-30.11-14.47,4A311.68,311.68,0,0,0,292,304.45a7.44,7.44,0,0,0,4.48,3.44,7.74,7.74,0,0,0,4.89-.38c3.65-1.54,5-5.09,4.34-8.84a192.49,192.49,0,0,0-7.05-28.59l-13.71,5.78a198,198,0,0,1,13,24.91l12.95-7.57c-.24-.49-.46-1-.7-1.47-.74-1.51.45,1.23-.1-.21-.39-1-.77-2-1.1-3.07a45.65,45.65,0,0,1-1.6-6.6c-.05-.27-.09-.54-.13-.81.13,1,.16,1.22.09.65s-.12-1.08-.17-1.62c-.09-1.09-.14-2.17-.16-3.26a48,48,0,0,1,.4-6.78l-14.73,2,8.82,30.32a7.53,7.53,0,0,0,8.23,5.38c3.51-.48,6.69-3.63,6.5-7.37l-1.52-30-14.73,2,10,27c1.31,3.53,4.32,5.9,8.23,5.37,3.46-.46,6.76-3.63,6.5-7.37l-2.07-29.6c-.27-3.9-3.25-7.69-7.5-7.5a7.68,7.68,0,0,0-7.5,7.5,156.26,156.26,0,0,0,1.9,34l14.47-4q-2.28-7.84-3.93-15.85c-.53-2.62-1-5.25-1.45-7.89-.22-1.36-.42-2.74-.62-4.11-.3-2,.2,1.65-.06-.36-.1-.78-.19-1.57-.29-2.36a8.17,8.17,0,0,0-2.19-5.3,7.66,7.66,0,0,0-5.31-2.2c-3.87.18-7.73,3.31-7.5,7.5a75,75,0,0,0,9,31.81,7.58,7.58,0,0,0,8.47,3.44,7.68,7.68,0,0,0,5.51-7.23L325.39,265l-14.73,2a168.46,168.46,0,0,0,11.47,26.8c2.57,4.8,10.43,5,12.95,0,5.46-10.8,3.79-22.54,1.49-33.94-.58-2.88-3.5-5-6.24-5.37s-6.27.88-7.47,3.58a78.72,78.72,0,0,0-6.38,21.49,83.43,83.43,0,0,0,.12,23.93c.44,3.08,4.25,5.64,7.23,5.5a7.78,7.78,0,0,0,7.23-5.5,102.51,102.51,0,0,0,4.55-41.63c-.38-3.75-2.57-6.83-6.51-7.36a7.47,7.47,0,0,0-8.23,5.37,79.37,79.37,0,0,0-.41,37.65,7.48,7.48,0,0,0,6.24,5.37c2.68.36,6.28-.88,7.47-3.58a111.6,111.6,0,0,0,9-33.95h-15l-.93,31.3a7.51,7.51,0,0,0,14.73,2l9.83-41.43c.91-3.81-1.19-8.3-5.24-9.22-3.87-.89-8.22,1.16-9.22,5.23a237.07,237.07,0,0,0-5.84,35c-.34,3.71,3.12,6.91,6.5,7.37s7.4-1.72,8.23-5.37l7.7-34-14.46-4a346.27,346.27,0,0,1-8.32,37.1c-1.06,3.77,1.31,8.33,5.24,9.22a7.67,7.67,0,0,0,9.23-5.24c1-2.92,2-5.83,3.11-8.71q.82-2.16,1.69-4.31c.3-.71.58-1.43.89-2.13-.8,1.83.23-.54.38-.87q3.69-8.49,8.12-16.62l-14-3.79c-.09.78-.19,1.55-.29,2.33s-.1.78,0-.25c-.05.39-.11.78-.16,1.16-.2,1.36-.41,2.71-.63,4.06q-.72,4.35-1.63,8.65c-1.22,5.74-2.71,11.42-4.43,17l14.46,4q2.64-9.24,6-18.25c1.09-2.92,2.23-5.8,3.41-8.67.34-.81.13-.37-.08.18.14-.36.31-.72.46-1.07l1.05-2.4q1-2.27,2.05-4.51l-13.71-5.78q-2.06,8.35-4.86,16.5c-.94,2.71-2,5.4-3,8.07-.21.53-.43,1.06-.65,1.59-.14.36-.29.71-.44,1.06l.09-.21q-.91,2.12-1.86,4.2l13.71,5.78q1.45-5.16,3.38-10.16a15.5,15.5,0,0,0,1-2.48c-.14.79-.44,1,0,.06.17-.41.35-.81.54-1.22q1.1-2.44,2.3-4.84a115.7,115.7,0,0,1,11.41-18.09l-13.71-5.78-14,37c-1.33,3.48,1.19,7.52,4.34,8.85s7.74.3,9.36-3.07a304.3,304.3,0,0,1,24.36-41.85l-13.71-5.78a90,90,0,0,1-2.72,9.76q-.81,2.4-1.74,4.75A10.58,10.58,0,0,1,365,260c.3-.36.49-1.12.1-.24l-.57,1.3c-2.78,6.3-6,12.41-9.17,18.5l12.95,7.58a474.24,474.24,0,0,1,26.1-47.26l-12.95-7.58-21,45c-1.6,3.43-1.2,7.26,1.93,9.68,2.78,2.14,7.39,2.24,9.85-.59l34.52-39.73L395,237.58q-9.66,18.6-20.72,36.41l12.95,7.57,21.16-44.31c1.63-3.41,1.18-7.27-1.93-9.67-2.77-2.14-7.39-2.25-9.85.58a206.69,206.69,0,0,0-29.65,44.66c-1.72,3.52-1.08,8.27,2.69,10.26s7.85.75,10.26-2.69l30.62-43.64-12.95-7.57-20,42.56c-1.6,3.42-1.19,7.26,1.94,9.67,2.73,2.12,7.44,2.29,9.84-.58a210,210,0,0,0,27-40.82c1.75-3.5,1-8.29-2.69-10.26-3.46-1.83-8.32-1-10.26,2.69l-20.57,39.14c-1.82,3.47-1,8.31,2.69,10.26a7.63,7.63,0,0,0,10.26-2.69q11.21-19.57,24.24-38l-12.95-7.58L391.84,262.7c-1.82,3.48-1,8.31,2.69,10.26,3.45,1.83,8.32,1,10.26-2.69L420,241.15c1.81-3.48,1-8.31-2.69-10.27-3.86-2-7.84-.73-10.26,2.69q-13,18.42-24.24,38l12.95,7.57L416.35,240l-13-7.57a203.72,203.72,0,0,1-11.59,20.18q-3.12,4.75-6.49,9.33l-1.83,2.43c-.86,1.13.56-.7,0,0-.28.37-.57.73-.85,1.09-1.26,1.6-2.55,3.17-3.85,4.73l11.78,9.09,19.94-42.56c1.67-3.55,1.11-8.25-2.69-10.26s-7.85-.75-10.26,2.69l-30.62,43.64,12.95,7.57a199,199,0,0,1,12.67-22.28q3.49-5.3,7.31-10.36c.28-.37.56-.73.83-1.1,1-1.34-.78,1,.18-.22l2.06-2.59q2.08-2.57,4.26-5.07l-11.78-9.09L374.24,274c-1.69,3.53-1.1,8.26,2.69,10.26a7.66,7.66,0,0,0,10.26-2.69q11.06-17.81,20.72-36.41a7.57,7.57,0,0,0-1.93-9.68c-2.77-2.14-7.39-2.24-9.85.59l-34.51,39.73,11.77,9.08,21-45c1.66-3.55,1.11-8.26-2.69-10.27a7.66,7.66,0,0,0-10.26,2.69,476.48,476.48,0,0,0-26.1,47.26c-1.7,3.54-1.09,8.27,2.69,10.27,3.45,1.82,8.31,1,10.26-2.69,6.73-12.86,13.56-26,16.68-40.29a7.56,7.56,0,0,0-4.35-8.84c-3.59-1.52-7.21,0-9.36,3.06A304,304,0,0,0,346.91,283l13.71,5.78,14.06-37c1.33-3.48-1.19-7.52-4.34-8.85a7.22,7.22,0,0,0-4.89-.37A8.87,8.87,0,0,0,361,246a120.4,120.4,0,0,0-20.13,40.31,7.52,7.52,0,0,0,4.34,8.85c3.15,1.33,7.81.33,9.37-3.07a196.54,196.54,0,0,0,12.24-34.79,7.55,7.55,0,0,0-4.34-8.85c-3.16-1.33-7.78-.32-9.36,3.07a258.16,258.16,0,0,0-14.37,38.3c-1.08,3.77,1.31,8.33,5.24,9.23a7.65,7.65,0,0,0,9.22-5.24,208,208,0,0,0,7.64-37c.36-3.1-2.58-6.56-5.51-7.23a7.67,7.67,0,0,0-8.47,3.45,226.76,226.76,0,0,0-15.71,36.23l14.47,4a345.51,345.51,0,0,0,8.31-37.09,8.17,8.17,0,0,0-.75-5.78,7.65,7.65,0,0,0-4.49-3.45c-3.81-.87-8.3,1.15-9.22,5.24l-7.7,34,14.73,2q.39-4.17.92-8.32c.22-1.78-.19,1.24.05-.38.12-.79.23-1.58.35-2.37.19-1.28.4-2.56.62-3.84q1.38-8.12,3.36-16.11l-14.46-4-9.83,41.44,14.73,2,.93-31.3a7.57,7.57,0,0,0-7.5-7.5c-4.41.2-7.08,3.31-7.5,7.5-.07.66-.14,1.32-.22,2,0,.29-.07.57-.11.85.15-1,.16-1.15,0-.3-.17,1.13-.35,2.25-.55,3.37-.46,2.52-1,5-1.67,7.51s-1.35,4.75-2.16,7.08c-.4,1.17-.82,2.32-1.27,3.47-.21.54-.42,1.06-.63,1.59-.32.78-.29.7.09-.21l-.45,1,13.7,1.79c-.3-1.31-.57-2.62-.81-3.95-.13-.75-.29-1.52-.35-2.28.16,2,0,.16,0-.29a68.39,68.39,0,0,1-.39-8.34c0-1.35.07-2.69.16-4,.05-.67.11-1.34.17-2,0-.21.27-2.48.13-1.29s.17-1.08.21-1.29q.17-1,.36-2c.27-1.42.6-2.82,1-4.21l-14.73-2a97.38,97.38,0,0,1,0,19.76l-.12,1.14c0,.2-.21,1.48,0,.42s0,.23-.06.43c-.07.47-.14.94-.22,1.41-.26,1.61-.57,3.21-.91,4.79a97.51,97.51,0,0,1-2.62,9.69h14.46c-.15-1,.09-.07,0,.36a7.17,7.17,0,0,0-.15-1.36c-.09-.82-.16-1.64-.22-2.46-.1-1.55-.16-3.1-.17-4.65s.05-3.29.16-4.93c0-.82.12-1.64.2-2.46l.12-1.09c.15-1.45-.17,1.05,0,.09a79.38,79.38,0,0,1,2-9.38c.43-1.49.9-3,1.42-4.43.27-.78.56-1.55.86-2.31.09-.22.68-1.69.25-.63s.25-.55.28-.61l-13.71-1.79c.46,2.25.9,4.5,1.25,6.77.06.35.11.7.16,1.05l-.12-.93a12.62,12.62,0,0,1,.21,1.85c.11,1.13.2,2.27.24,3.42s0,2.08,0,3.13c0,.6-.07,1.2-.13,1.8-.19,2,.3-1.23,0,.29-.23,1-.42,2-.72,3-.15.49-.33,1-.5,1.45-.3.76-.25.64.16-.37-.15.32-.3.63-.46.94h12.95c-2.1-3.92-4-7.92-5.8-12-.63-1.46.51,1.26-.14-.35-.18-.44-.37-.89-.55-1.34-.39-1-.78-2-1.16-3-.82-2.17-1.58-4.35-2.31-6.56a7.51,7.51,0,0,0-14.73,2l.23,30.18,14-3.78c-.58-1.06-1.14-2.12-1.66-3.21-.28-.58-.54-1.17-.81-1.76-.66-1.41.51,1.33-.11-.25a68.35,68.35,0,0,1-2.25-6.55,62.24,62.24,0,0,1-1.55-6.75c-.1-.55-.18-1.09-.27-1.64-.26-1.72.13,1.38,0-.21-.12-1.29-.24-2.57-.32-3.87h-15a215.06,215.06,0,0,0,6.88,34.56c1.1,3.76,5.34,6.5,9.23,5.24,4.21-1.37,5.91-5.07,5.24-9.23-.11-.68-.22-1.37-.32-2.06-.07-.44-.58-2.54-.11-.65a26.43,26.43,0,0,1-.41-3.55q-.42-4-.62-8a150.64,150.64,0,0,1,.09-15.76h-15l2.07,29.6,14.73-2-10-26.95c-1.31-3.54-4.32-5.9-8.23-5.38-3.51.48-6.69,3.63-6.5,7.37l1.52,30,14.73-2L307.06,268a7.53,7.53,0,0,0-8.23-5.38,7.13,7.13,0,0,0-4.3,2.07,8.79,8.79,0,0,0-2.2,5.3,54.25,54.25,0,0,0,5.52,30.74c1.74,3.53,7,4.78,10.26,2.69a7.59,7.59,0,0,0,3.45-4.48,8.72,8.72,0,0,0-.76-5.78,198,198,0,0,0-12.95-24.91,7.53,7.53,0,0,0-9.36-3.07c-3.28,1.38-5.52,5.28-4.34,8.85a193.92,193.92,0,0,1,7.05,28.58l13.7-5.78c-.56-1.26-1.1-2.52-1.65-3.79-.7-1.6.44,1.09-.17-.39l-.9-2.19q-1.46-3.56-2.81-7.16-2.82-7.47-5.22-15.1c-1.18-3.73-5.28-6.51-9.23-5.23a7.66,7.66,0,0,0-5.24,9.22l7,30.11,14.47-4-10-25.43c-1.39-3.51-4.27-5.9-8.23-5.37-3.35.45-6.92,3.65-6.5,7.36a93.69,93.69,0,0,0,9.37,31.93l11.78-9.08c-.28-.34-1.89-2.06-.47-.57a16.37,16.37,0,0,1-1.26-1.71c-.83-1.15-1.63-2.32-2.39-3.5-1.49-2.31-2.87-4.68-4.12-7.12-.61-1.18-1.19-2.37-1.74-3.58a20.83,20.83,0,0,1-.86-1.94c.71,2-.1-.27-.25-.66-1-2.64-1.92-5.33-2.68-8.05-1.06-3.78-5.36-6.49-9.23-5.24a7.64,7.64,0,0,0-5.24,9.22l7.09,26.88,13.71-5.78L278,271.25c-1.65-3.34-6.15-4.43-9.37-3.07s-5.52,5.28-4.34,8.85l10,30.09L288,301.35,267.77,266.5a7.6,7.6,0,0,0-8.47-3.44,7.77,7.77,0,0,0-5.51,7.23c-.23,7.36,3.36,13.9,7.26,19.87a80,80,0,0,1,4.87,8l.43.88c.11.24.22.48.32.72l-.46-1.07c.17.74.55,1.46.75,2.2a8.39,8.39,0,0,1,.49,2.25c0-.4-.14-1.93-.13-.65,0,.46,0,.92,0,1.37l14-3.78a306,306,0,0,1-19.57-29.69c-2-3.4-6.87-4.88-10.26-2.69a7.65,7.65,0,0,0-2.69,10.26l17.29,31.61,11.78-9.09A82.37,82.37,0,0,1,271,294c-1.12-1.18-2.19-2.38-3.23-3.62-.5-.59-1-1.18-1.46-1.78-.65-.82-.5-.42.08.11a7.08,7.08,0,0,1-.77-1,83.82,83.82,0,0,1-9.49-16.58l-12.95,7.57,13.3,27.55,12.95-7.57-19.77-29.38c-2.18-3.25-6.7-5-10.26-2.69a7.67,7.67,0,0,0-2.69,10.26l15.61,29.78,11.78-9.08q-1.46-1.69-2.87-3.42l-1.39-1.74a4.38,4.38,0,0,1-.69-.88c.18.44.72.95.15.2-1.85-2.45-3.64-4.94-5.34-7.48a152.67,152.67,0,0,1-9.17-15.62c-1.7-3.32-6.11-4.44-9.37-3.06-3.1,1.31-5.76,5.38-4.34,8.84,4.61,11.28,9.61,22.39,15.1,33.27l12.95-7.57c-7.15-10.91-14.79-21.48-22.8-31.79-1.94-2.49-6.56-2.8-9.09-1.17-2.69,1.73-4.54,5.25-3.45,8.47a181.64,181.64,0,0,0,15.34,33.6l13-7.57-26.81-36.87c-2.22-3.05-5.7-4.61-9.37-3.07a7.49,7.49,0,0,0-4.34,8.85c3.51,12.08,10.07,22.87,16.72,33.43l11.78-9.08q-3.26-3.57-6.28-7.3c-.52-.64-1-1.29-1.54-1.94-.73-.92,0,.21.16.21-.12,0-.71-.94-.83-1.09-1-1.32-2-2.66-2.92-4a159,159,0,0,1-10.23-16.62,7.51,7.51,0,0,0-13.71,5.78,71.26,71.26,0,0,0,17.9,30.2A7.51,7.51,0,0,0,234.39,291c-2-3.13-3.83-6.35-5.51-9.65q-1.23-2.42-2.34-4.88c-.2-.44-.39-.87-.58-1.31s-.9-1.34,0,0a14.23,14.23,0,0,1-1.06-2.65l-11,8.47a56.86,56.86,0,0,1,8,4.73c.37.26.74.58,1.12.83-.29-.19-1.18-.95-.42-.32.6.5,1.2,1,1.78,1.5a42.32,42.32,0,0,1,3.42,3.41l.75.86c.17.21,1,1.29.27.3s.13.2.22.32c.22.31.44.62.64.93a30.08,30.08,0,0,1,2.21,3.86c.29.62.23,1.29-.12-.37a7.52,7.52,0,0,0,.39,1c.25.69.47,1.4.67,2.11s.35,1.44.47,2.17c.23,1.32-.16,0,0-.44a5.23,5.23,0,0,0,.1,1.36l14-3.79-19.87-28.25c-1.86-2.64-5.14-4.52-8.47-3.44a9,9,0,0,0-3.31,1.92,7.48,7.48,0,0,0-2.2,5.31,214.69,214.69,0,0,1,1.77,25.58l14-3.78a211.05,211.05,0,0,1-18.82-31c-1.66-3.34-6.15-4.42-9.37-3.07a7.55,7.55,0,0,0-4.34,8.85l7.28,30.88,13.71-5.78a105.41,105.41,0,0,1-9.66-15.13c-.66-1.27-1.3-2.55-1.9-3.84q-.47-1-.9-1.95a11.19,11.19,0,0,1-.54-1.23c.14.45.49,1.19.14.31-1.15-2.82-2.19-5.68-3.1-8.58-1.17-3.74-5.27-6.51-9.22-5.24a7.64,7.64,0,0,0-5.24,9.23l8.11,29.5L209,293.93a104.38,104.38,0,0,1-7.43-13.77c-.18-.39-1.08-2.3-.23-.48-.27-.58-.49-1.19-.72-1.79q-.7-1.78-1.35-3.6c-.88-2.51-1.66-5.05-2.36-7.61l-14.46,4q5.1,13,9.36,26.25l12.54-7.29c1.25,1.62-.24-.34-.47-.65-.43-.58-.86-1.17-1.28-1.76-.84-1.18-1.65-2.38-2.45-3.59q-2.37-3.64-4.46-7.46c-1.39-2.54-2.68-5.14-3.87-7.78-.3-.66-.63-1.31-.88-2,.73,2-.13-.34-.28-.72-.53-1.34-1-2.7-1.53-4.07-1.31-3.68-5.17-6.55-9.22-5.24s-6,5.1-5.24,9.23l6.69,34.65,13.71-5.78q-2.35-4.17-4.33-8.54c-.31-.68-.61-1.37-.9-2.06-.42-.95-.2,0,.09.24a5.36,5.36,0,0,1-.53-1.31c-.6-1.48-1.17-3-1.73-4.47-2.22-6-4.13-12.12-6-18.24-1.17-3.74-5.28-6.51-9.22-5.23-4.15,1.34-6,5.08-5.24,9.22l6.31,34.49,13.71-5.78q-2.08-4.39-4.07-8.84c-.64-1.43-1.28-2.87-1.9-4.31l-.93-2.17c-.07-.16-.58-1.37-.2-.46l-.31-.74q-3.75-9-7.09-18.12c-1.29-3.54-4.34-5.89-8.23-5.37s-6.06,3.6-6.5,7.37c-1.37,11.7,1.41,23.46,4.16,34.76l14.47-4q-6.26-17.85-12.49-35.7c-1.25-3.55-4.39-5.89-8.23-5.37-3.32.45-7,3.66-6.51,7.37l4.21,34.24,14.73-2-12.07-38.15c-1.18-3.73-5.27-6.51-9.23-5.23-4.17,1.35-5.95,5.07-5.23,9.22l6.66,38.49,14.47-4L149,246.58a7.54,7.54,0,0,0-8.23-5.37c-3.46.47-6.75,3.63-6.5,7.37a143.75,143.75,0,0,0,9,41.72,8.12,8.12,0,0,0,3.45,4.48,7.67,7.67,0,0,0,5.78.76c3.61-1.17,6.67-5.28,5.23-9.23l-14.41-39.52c-1.34-3.68-5.16-6.56-9.23-5.24-4.23,1.37-5.89,5.06-5.24,9.22a316.05,316.05,0,0,0,9.64,42.32l14.47-4-14-40.23c-1.3-3.69-5.2-6.54-9.23-5.24a7.67,7.67,0,0,0-5.24,9.23l8.13,35,13.71-5.78Q145.1,279.57,144,277c-.4-.9-.79-1.79-1.18-2.69l-.57-1.35c-.34-.79-.18-.37.07.17-1.6-3.45-2.9-7.07-4.26-10.62q-4-10.54-7.36-21.35c-1.16-3.74-5.29-6.51-9.23-5.24-4.16,1.35-6,5.08-5.23,9.23a272.35,272.35,0,0,0,10.67,41.31l13.71-5.78c-.65-1.44-1.28-2.88-1.91-4.33-.32-.72-.63-1.44-.94-2.17l-.47-1.08c-.33-.79-.18-.39.07.16-1.36-2.94-2.49-6-3.67-9q-3.5-8.94-6.56-18.05c-1.25-3.71-5.22-6.54-9.22-5.24a7.66,7.66,0,0,0-5.24,9.23l9.1,37.78,13.7-5.77q-1.87-4-3.66-8l-.94-2.16c-.14-.32-1.17-2.71-.39-.91-.55-1.26-1.06-2.53-1.57-3.8q-3.32-8.18-6.17-16.51c-1.27-3.71-5.2-6.54-9.22-5.24a7.68,7.68,0,0,0-5.24,9.22l6,30L128,279l-14-32.58c-1.24-2.9-5.61-4.37-8.47-3.45-3.06,1-5.63,3.85-5.5,7.23a86.72,86.72,0,0,0,7.87,32.71,7.43,7.43,0,0,0,4.48,3.45,7.81,7.81,0,0,0,4.89-.38c3.28-1.38,5.5-5.27,4.34-8.85a90.64,90.64,0,0,0-9.72-20.71c-2.12-3.3-6.76-5-10.26-2.69-3.3,2.13-5,6.73-2.69,10.26Z" transform="translate(-85.71 -105.28)"/><path class="cls-1" d="M120.42,223.86a132.62,132.62,0,0,0-16.1,12.73c-4.59,4.27-9.56,9-12.53,14.59a23.22,23.22,0,0,0-2.92,11.29,28.73,28.73,0,0,0,3,11.57,40.38,40.38,0,0,0,10.46,13.39c8.7,7.41,19.38,11.78,30.28,14.86a384,384,0,0,0,38.1,8.25,526.74,526.74,0,0,0,83.59,7.95,369.89,369.89,0,0,0,80.47-7.84,385.47,385.47,0,0,0,75.79-24.46c12.27-5.37,24.11-12.71,28.73-26,4.36-12.54-2.08-24.84-11.23-33.24-2.37-2.17-4.91-4.15-7.48-6.08a52.41,52.41,0,0,0-6.79-4.67c-4.13-2.2-8.84-3.1-13.27-1.23a22.16,22.16,0,0,0-5.3,3.27,14.39,14.39,0,0,1-1.79,1.43c.05,0,1-.78.35-.28l-1.18.88a99.56,99.56,0,0,1-16.24,9.43c-1.25.58-2.51,1.15-3.77,1.7-.36.16-.72.33-1.08.47,1.49-.57.47-.2.15-.07l-2.46,1q-4.32,1.72-8.7,3.29a334.13,334.13,0,0,1-38.34,11.28q-9.66,2.22-19.45,3.85c-1.56.26-3.11.5-4.67.74l-2.49.37-.93.13c-.25,0-2.35.37-.5.07-3.2.52-6.46.81-9.69,1.13a305.37,305.37,0,0,1-39.89,1.43q-9.91-.3-19.79-1.27c-1.74-.17-3.48-.36-5.21-.56l-2.28-.27-1.29-.17c-.71-.09-1.37-.16-.28,0-3.46-.43-6.92-1-10.35-1.6a312.88,312.88,0,0,1-39.7-9.65c-6.46-2-12.87-4.19-19.23-6.48q-4.84-1.76-9.66-3.59c-3.65-1.39-7.34-3.42-11.36-2.53a8.54,8.54,0,0,0-6.3,6,8.09,8.09,0,0,0,3,8.44,8.21,8.21,0,0,0,7.37,1.45c4.41-1.35,6-5.37,5.27-9.59-.64-3.88-5.65-6.39-9.22-5.24-4.21,1.36-5.93,5.07-5.24,9.23l0,.22.75-5.78-.07.15,4.48-3.45,8,4.57v4l.09-.23L131.68,242l-2.74.74q-4.32.44-2.32.85c.22.1.47.18.7.26l2.1.82,4.82,1.84q4.51,1.71,9.06,3.34,9,3.21,18,6.05a315.29,315.29,0,0,0,37.43,9.3,306.85,306.85,0,0,0,77.2,4.2,332.89,332.89,0,0,0,74.79-14.23,249.13,249.13,0,0,0,34.76-13.28,95.48,95.48,0,0,0,15.13-9q2.17-1.6,4.29-3.32c.84-.68-.15-.16-.17.13,0-.1.61-.42.7-.48.31-.2.65-.37,1-.56.83-.49-1.61.55,0,.1,0,0-1.5.28-.63.17s-1.29-.43-.4,0l.79.23c-.07.15-1.31-.68-.26-.08a37.55,37.55,0,0,1,3.56,2.26c1,.73,2.06,1.47,3.07,2.23l.62.46c.82.61-1.1-.86-.3-.23L414.5,235a57.91,57.91,0,0,1,5.64,5.21c.41.43.8.86,1.18,1.31.23.26,1.34,1.65.67.78s.38.54.58.82c.36.54.71,1.08,1,1.64s.62,1.12.91,1.69c.1.22.19.44.3.65.44.89-.51-1.41-.21-.47.37,1.15.71,2.26,1,3.44s-.12-1.58,0,.16a17.45,17.45,0,0,1,.06,1.77c0,.35-.05.7-.05,1.05,0,.74-.43.7.08-.43a15.2,15.2,0,0,0-.43,2c-.16.59-.34,1.18-.55,1.75-.64,1.77.46-.78-.16.4a34.51,34.51,0,0,1-2.15,3.67c-.15.22-.32.43-.47.65-.59.84.88-1,.18-.26-.42.46-.81.95-1.24,1.41a33.59,33.59,0,0,1-3,2.82c-.18.15-1.19.91-.39.32s-.07,0-.19.12c-.64.45-1.28.9-1.94,1.33-1.24.8-2.52,1.54-3.82,2.24-2.6,1.41-5.29,2.66-8,3.85-1.31.58-2.63,1.15-3.95,1.71l-.54.23c.83-.35-.13.06-.25.11l-2.3.95q-8.65,3.54-17.46,6.66-17.47,6.18-35.49,10.62a365.07,365.07,0,0,1-36.36,7l-.92.13-.31,0-.24,0,.38,0-.62.08-1.23.16c-1.65.21-3.29.41-4.94.6-3,.33-6,.63-9,.89q-9.32.81-18.64,1.13A475.17,475.17,0,0,1,194,299.08c-1.46-.19-.24,0,.05,0l-1.3-.18-2.27-.32c-1.62-.23-3.24-.47-4.85-.72-3.24-.49-6.47-1-9.7-1.57q-9.51-1.65-19-3.64c-10.65-2.24-21.49-4.51-31.61-8.6l-.93-.38s1.41.62.65.26c-.53-.24-1.06-.46-1.59-.71-1.19-.55-2.36-1.14-3.52-1.77a57.93,57.93,0,0,1-6.16-3.88c-1.08-.77,1.24,1-.19-.14-.44-.36-.86-.72-1.28-1.09-.9-.79-1.76-1.62-2.58-2.48-.39-.41-.76-.82-1.13-1.25s-1.39-2.09-.34-.35c-.62-1-1.41-2-2-3-.34-.57-.66-1.14-1-1.73a5.55,5.55,0,0,1-.51-1s.49,1.3.19.45c-.23-.64-.47-1.27-.66-1.92-.1-.37-.2-.74-.28-1.12s-.43-1.84-.16-.7c.22.94,0,.1,0-.14s0-.76,0-1.14c0-.14,0-1.15.07-1.14s-.32,1.43-.06.58c.2-.61.33-1.25.51-1.87.34-1.13.08.31-.14.27,0,0,.45-.91.49-1,.35-.66.74-1.29,1.15-1.91.16-.25,1.26-1.91.73-1s0,0,.12-.13.48-.57.73-.85c.49-.57,1-1.12,1.51-1.67,2-2.2,4.18-4.32,6.39-6.35q3.09-2.85,6.38-5.47c.31-.25.62-.51,1-.75-.21.16-1.21.91-.09.08l1.69-1.26q1.82-1.32,3.69-2.58c3.24-2.19,5-6.7,2.69-10.26-2.09-3.23-6.79-5-10.26-2.69Z" transform="translate(-85.71 -105.28)"/><g class="cls-2"><path class="cls-3" d="M145.07,225.61l.17-.05-3.32.45.12,0-6.3-1.71.08.07-4.48-4.49,0,.11-1.26-3,0,.14-.44-3.32V214l.44-3.32a1.33,1.33,0,0,1-.1.34l1.26-3-.09.16,1.95-2.53a.69.69,0,0,1-.24.24l5.51-3.21-.14.05,3.32-.44h-.16l3.32.44-.18-.06,3,1.26-.22-.17,2.53,1.95-.17-.2,2,2.53-.12-.24,1.26,3-.07-.26.45,3.32a3.7,3.7,0,0,1,0-.88l-.44,3.32a58.24,58.24,0,0,1,2.31-7.37c.86-2.68,1.72-5.36,2.6-8,1.7-5.22,3.48-10.42,5.61-15.48l-1.26,3a102.85,102.85,0,0,1,13.13-22.54l-2,2.52a105.34,105.34,0,0,1,18.9-18.9l-2.53,2a102,102,0,0,1,22.13-12.94l-3,1.26a103.86,103.86,0,0,1,26.14-7.11l-3.33.45a104.85,104.85,0,0,1,27.53,0l-3.32-.45a116.89,116.89,0,0,1,16.72,3.7,84.09,84.09,0,0,0,8.68,2.18,41.2,41.2,0,0,0,11.87.81,9.51,9.51,0,0,0,4.82-1.08,9.4,9.4,0,0,0,4-2.59,12.82,12.82,0,0,0,3.44-7.17,11.93,11.93,0,0,0-1.48-8c-1.7-2.63-4.3-5.1-7.48-5.75a136,136,0,0,0-18.65-2.45L281,136.87a16.91,16.91,0,0,1,2.62-.62l-3.32.45a20.5,20.5,0,0,1,4.95.05l-3.32-.45a90.54,90.54,0,0,1,14.39,3.64c4.68,1.44,9.29,3.06,13.79,4.95l-3-1.26a90.93,90.93,0,0,1,20,11.43l-2.53-2a153.54,153.54,0,0,1,15.87,14.73,204.34,204.34,0,0,1,14.76,16.37l-1.95-2.53c8.54,11.07,15.05,23.49,21.5,35.84l4.48-17.1q-9,4.71-18.37,8.68l3-1.26A252.81,252.81,0,0,1,314,223q-7.23,1.41-14.53,2.39l3.32-.45a253.69,253.69,0,0,1-35.06,2.25,12.52,12.52,0,0,0-11.42,7.68,12,12,0,0,0-.86,6.48c.34,2.53,1.41,5.48,3.44,7.18a19.08,19.08,0,0,0,4,2.87,18.42,18.42,0,0,0,7.67,2.06,17.67,17.67,0,0,0,9.68-2.38l-15.15-19.64a9,9,0,0,1-1.17,1.14l2.53-2a9.17,9.17,0,0,1-1.64.94l3-1.26a10.57,10.57,0,0,1-2.47.64l3.32-.44a16,16,0,0,1-3.73,0l3.32.45c-4.15-.57-7.89-2.47-11.95-3.4a27.67,27.67,0,0,0-9-.88,22,22,0,0,0-5.82,1.13,24.27,24.27,0,0,0-7.59,4.57c-3.3,2.86-4.33,8.09-3.21,12.16a12.53,12.53,0,0,0,8.73,8.73l6.52,2.4,3.32-24.55A323.59,323.59,0,0,1,213,228.25l3.33.45q-15.08-2-29.89-5.49-7.35-1.71-14.6-3.77a125.7,125.7,0,0,1-13.91-4.58l3,1.26a40.77,40.77,0,0,1-8.71-4.78l2.53,1.95a14.15,14.15,0,0,1-2.44-2.39l2,2.53a10,10,0,0,1-1-1.6l1.26,3a9.41,9.41,0,0,1-.58-2l.45,3.33a10,10,0,0,1,0-2.56L154,217a17.26,17.26,0,0,1,1.11-3.8l-1.26,3c3-6.83,7.41-13.24,11.92-19.11l-2,2.53a121.6,121.6,0,0,1,8.67-10l-20.9-12.16a290.68,290.68,0,0,1-8.92,40.4,12.51,12.51,0,0,0,8.73,15.38A12.65,12.65,0,0,0,161,231.9l2.53-2a12.57,12.57,0,0,0,3.22-5.51c2.65-6.52,5.3-13,8-19.52l-1.26,3c6.41-15.19,13.28-30.23,21.63-44.46q3.6-6.12,7.56-12l-21.59-12.62-22.92,53.23-6.52,15.14,22.84,9.63c.32-.74.63-1.48.94-2.23l-1.26,3q10.65-25.19,22.84-49.66,3.45-6.93,7-13.79a13.24,13.24,0,0,0,1.26-9.63A12.74,12.74,0,0,0,199.6,137a12.58,12.58,0,0,0-9.63-1.26,12.8,12.8,0,0,0-7.47,5.74,316.86,316.86,0,0,0-22.34,50.42q-2.43,7.11-4.51,14.32a13.14,13.14,0,0,0,0,6.65A12.7,12.7,0,0,0,174,220.37c9.52-5.88,15.59-15.14,21.19-24.55l17.22-29,9.7-16.32-21.59-12.62-28.43,57.32-8,16.13a13.29,13.29,0,0,0-1.26,9.63,12.77,12.77,0,0,0,5.74,7.47,12.63,12.63,0,0,0,9.63,1.26c3-1,6-2.85,7.47-5.75,12.92-25.5,25.86-51,40.55-75.57q6.19-10.35,12.85-20.44L217.5,115.32q-17.19,33.17-32.89,67.09-4.41,9.53-8.69,19.11a9.3,9.3,0,0,0-1.49,4.65,9.48,9.48,0,0,0,.23,5,12.77,12.77,0,0,0,5.74,7.47,12.59,12.59,0,0,0,9.63,1.26,13,13,0,0,0,7.47-5.74c10.15-17.29,20.3-34.58,31.38-51.29q4.76-7.15,9.74-14.15L217,136.09l-31.24,64-8.87,18.19a13.34,13.34,0,0,0-1.26,9.63,12.51,12.51,0,0,0,22.85,3q21.64-33.78,44.82-66.55,6.6-9.33,13.33-18.57l-22.85-9.63a28.83,28.83,0,0,1-2,6.72l1.26-3a105.11,105.11,0,0,1-7.44,13.1q-4.28,6.91-8.59,13.8-8.69,13.88-17.54,27.65-5,7.77-10,15.5l21.58,12.62q18.33-31,39-60.63,5.9-8.42,12-16.7l-21.59-12.62Q222.23,165.93,202,198.07q-5.66,9-11.48,17.91a12.65,12.65,0,0,0-1.26,9.64,13,13,0,0,0,4.48,6.49,11.88,11.88,0,0,0,7.58,2.68c3.12-.14,6.77-1.14,8.84-3.66,12.76-15.55,23.62-32.46,35.2-48.88,3.15-4.46,6.37-8.88,9.7-13.2l-2,2.53A202,202,0,0,1,271,151.21l-19.63-15.15-37.58,60L203.18,213a12.49,12.49,0,0,0,4.49,17.1,12.63,12.63,0,0,0,9.63,1.26l3-1.26a12.52,12.52,0,0,0,4.48-4.49l43.82-56.75,12.37-16-21.58-12.61-38.83,60.19-11.06,17.14a12.5,12.5,0,0,0,4.48,17.1,12.66,12.66,0,0,0,9.64,1.26l3-1.26a12.6,12.6,0,0,0,4.49-4.48q4.66-6.1,9.36-12.18l-1.95,2.53c13.46-17.42,27.2-34.66,42.28-50.73q6.36-6.78,13-13.25l-19.63-15.14-40.73,62.72L222,221.64a12.49,12.49,0,0,0,4.49,17.1,12.58,12.58,0,0,0,9.63,1.26l3-1.26a12.57,12.57,0,0,0,4.48-4.48q13.68-18.47,27.72-36.65l-2,2.53q16.59-21.46,33.69-42.53L285.4,139.93a490.69,490.69,0,0,0-37.28,53.75q-4.56,7.66-8.83,15.49a12.62,12.62,0,0,0,1,13.88c3,3.84,8.34,6,13.14,4.48a26.45,26.45,0,0,0,10.64-6.36,60.75,60.75,0,0,0,6.26-7.69l10.57-14.14L302,171.08,314.06,155l-21.59-12.62Q273.77,169,255.7,196q-5.1,7.65-10.17,15.34a12.6,12.6,0,0,0-1.26,9.64,13,13,0,0,0,4.48,6.49,11.85,11.85,0,0,0,7.57,2.68,13.56,13.56,0,0,0,8.84-3.66c16.11-14.53,27.61-33.19,42.41-48.93a116.74,116.74,0,0,1,13.31-12.23l-2.53,1.95c2-1.57,4.15-3.06,6.33-4.45l-17.1-17.1-40.95,54.12-11.55,15.26a9.27,9.27,0,0,0-1.49,4.65,9.48,9.48,0,0,0,.23,5,12.85,12.85,0,0,0,4.48,6.49c4.78,3.7,12.09,3.57,16.41-1l47.12-49.57,13.41-14.11-19.63-15.15-35,48.3-9.92,13.68-1.26,3a9.48,9.48,0,0,0-.23,5,12,12,0,0,0,3.44,7.18,14.9,14.9,0,0,0,5.52,3.21,9.48,9.48,0,0,0,5,.23,9.27,9.27,0,0,0,4.65-1.49c5.14-2.25,9.45-6.29,13.4-10.2s7.85-7.77,11.77-11.66l23.33-23.12,13.44-13.32L332,154.54,292.1,201.16l-11.36,13.27a13.31,13.31,0,0,0-3.66,8.84,12.5,12.5,0,0,0,12.5,12.5,12.86,12.86,0,0,0,8.84-3.66l36.16-37.55,10.33-10.73-19.63-15.15-34.11,45.17-1.26,3a9.52,9.52,0,0,0-.22,5,11.89,11.89,0,0,0,3.44,7.18A12.9,12.9,0,0,0,308.28,231c7.76-4.36,14.45-10.47,20.87-16.58L348.43,196l11.11-10.58-17.67-17.68-32.49,37.45c-2.1,2.42-3.82,5.5-3.67,8.84a12.89,12.89,0,0,0,2.69,7.57,11.83,11.83,0,0,0,6.49,4.48c3.11.71,6.93.67,9.63-1.26a320.43,320.43,0,0,0,42.42-36.11l-12.17,3.21.26.1-3-1.26a2.7,2.7,0,0,1,.44.24l-2.53-2a2.9,2.9,0,0,1,.49.5l-2-2.53a2.38,2.38,0,0,1,.23.41l-1.26-3a4,4,0,0,1,.18.7l-.44-3.32a5.47,5.47,0,0,1,0,1.34l.45-3.32a9.57,9.57,0,0,1-.6,2l1.26-3c-1.24,2.79-3.53,5.19-5.36,7.62l-6.69,8.9L323,213a9.33,9.33,0,0,0-1.49,4.65,9.48,9.48,0,0,0,.23,5,12.94,12.94,0,0,0,4.48,6.5,12.55,12.55,0,0,0,16.41-1A284.3,284.3,0,0,1,364.92,209l-2.53,2q4.44-3.42,9-6.67l-17.1-17.1-11.47,18.87c-2.77,4.55-2.05,11.46,1.95,15.14a14.92,14.92,0,0,0,5.52,3.22c3.15,1,6.79.21,9.63-1.26a51.19,51.19,0,0,0,8.24-5.65,35.56,35.56,0,0,0,5.12-5.07L353.64,197.3,349.26,204a12.49,12.49,0,0,0,4.49,17.1,12.58,12.58,0,0,0,9.63,1.26,13.57,13.57,0,0,0,7.47-5.74l4.38-6.72a12.59,12.59,0,0,0,1.26-9.64,13,13,0,0,0-4.48-6.49,11.85,11.85,0,0,0-7.57-2.68c-3.13.14-6.77,1.14-8.84,3.66a36.22,36.22,0,0,1-5.61,5.46l2.53-2a35.4,35.4,0,0,1-5.22,3.31l17.11,17.1,11.47-18.86c2.77-4.56,2.05-11.47-2-15.15a14.81,14.81,0,0,0-5.51-3.22c-2.75-.88-7.23-.44-9.64,1.26a305.13,305.13,0,0,0-33.83,27.78l19.63,15.15,17.71-23.52,4.31-5.74a26.91,26.91,0,0,0,3.28-4.86c1.91-4.16,3-8.4,1.88-13a14.47,14.47,0,0,0-3.62-6.63,16.16,16.16,0,0,0-6.71-4.06c-4.05-1.49-9.25.25-12.16,3.22a303.65,303.65,0,0,1-31,27.56l2.53-2q-4.38,3.39-8.89,6.61l15.15,19.63,32.49-37.45a13.26,13.26,0,0,0,3.66-8.84,12.71,12.71,0,0,0-3.66-8.84,12.56,12.56,0,0,0-8.84-3.66,13.28,13.28,0,0,0-8.83,3.66l-21.16,20.13c-6.6,6.29-13,12.92-20.22,18.52l2.53-1.95a61.09,61.09,0,0,1-7.36,4.9l17.1,17.11,34.11-45.17a14.07,14.07,0,0,0,1.26-9.63,13,13,0,0,0-4.48-6.5,12.49,12.49,0,0,0-16.42,1L291.07,203.7l-10.33,10.73,17.68,17.68,39.92-46.62,11.36-13.27a13.31,13.31,0,0,0,3.66-8.84,12.5,12.5,0,0,0-12.5-12.5,13.1,13.1,0,0,0-8.84,3.66l-42.78,42.4c-3.66,3.63-7.2,7.5-11.25,10.7l2.53-2a25.65,25.65,0,0,1-5.38,3.26l17.1,17.1,35-48.3,9.92-13.68c1.73-2.37,2.14-6.91,1.26-9.63a12.85,12.85,0,0,0-4.48-6.49c-4.78-3.7-12.09-3.57-16.41,1l-47.12,49.57L257,212.59l19.63,15.15,40.95-54.12,11.55-15.26,1.26-3a9.48,9.48,0,0,0,.23-5,11.89,11.89,0,0,0-3.44-7.18,14.92,14.92,0,0,0-5.52-3.22,12.66,12.66,0,0,0-9.63,1.26c-10.76,6.89-20,15.76-28.23,25.44-7.71,9-14.75,18.63-22.46,27.66a153.09,153.09,0,0,1-13.89,14.47L267.12,224q17.88-27.16,36.4-53.92,5.25-7.56,10.54-15.1c1.77-2.52,2.05-6.76,1.26-9.63a12.51,12.51,0,0,0-15.38-8.73l-3,1.26a12.65,12.65,0,0,0-4.48,4.48l-35.26,47.18c-3.24,4.33-6.43,8.7-9.72,13l2-2.53a26.58,26.58,0,0,1-4.53,4.77l2.53-2a13,13,0,0,1-2.59,1.53l3-1.27c-.36.15-.71.27-1.08.39l14.12,18.36A466.76,466.76,0,0,1,291.51,173q4.78-6.67,9.81-13.18l-1.95,2.53c1.23-1.59,2.46-3.17,3.71-4.74a9.32,9.32,0,0,0,2.58-4,9.37,9.37,0,0,0,1.08-4.81,12.71,12.71,0,0,0-3.66-8.84,12.56,12.56,0,0,0-8.84-3.66c-3.11.14-6.79,1.13-8.84,3.66q-25.65,31.6-50.18,64.1-6.63,8.78-13.18,17.61l21.59,12.62,40.73-62.72L295.77,154a12.61,12.61,0,0,0,1.26-9.63,13,13,0,0,0-4.48-6.49,12.54,12.54,0,0,0-16.42,1c-18.81,18.15-35.43,38.4-51.47,59q-7.64,9.81-15.17,19.68l21.59,12.62,38.83-60.2,11-17.14a12.5,12.5,0,0,0-14.11-18.36l-3,1.26a12.52,12.52,0,0,0-4.48,4.49l-43.83,56.75-12.37,16,21.59,12.61,37.58-60,10.58-16.9a12.63,12.63,0,0,0,1.26-9.63,12.94,12.94,0,0,0-4.48-6.5,12.52,12.52,0,0,0-16.41,1c-18,17.7-31.51,39.2-45.84,59.78-3.91,5.61-7.9,11.18-12.08,16.6l2-2.53c-1.59,2-3.2,4.07-4.84,6.07l19.63,15.15q20.75-31.78,39.54-64.79,5.25-9.24,10.36-18.58a13.09,13.09,0,0,0,1.26-9.63,12.5,12.5,0,0,0-15.38-8.73l-3,1.26a12.52,12.52,0,0,0-4.49,4.48q-21.3,29.1-40.33,59.76-5.4,8.73-10.62,17.57A12.51,12.51,0,0,0,194,227.05a12.63,12.63,0,0,0,9.63,1.26,13.63,13.63,0,0,0,7.47-5.75q19.63-30.12,38.49-60.72a87.64,87.64,0,0,0,4.39-7.72,41.91,41.91,0,0,0,4-11.32c.52-3.27.64-6.69-1.26-9.63a13,13,0,0,0-6-5.12,12.07,12.07,0,0,0-8.14-.63l-3,1.27a12.52,12.52,0,0,0-4.49,4.48q-23.6,32.45-45.69,66-6.3,9.54-12.46,19.16l21.59,12.62,31.23-64,8.87-18.2a13.34,13.34,0,0,0,1.26-9.63,12.77,12.77,0,0,0-5.74-7.47,12.63,12.63,0,0,0-9.63-1.26l-3,1.26a12.52,12.52,0,0,0-4.48,4.49c-11.67,16.3-22.18,33.39-32.4,50.62q-4.38,7.39-8.72,14.81l21.58,12.62q15.27-34.11,32-67.5,4.71-9.39,9.55-18.7a13.22,13.22,0,0,0,1.26-9.64A12.51,12.51,0,0,0,225,109.57a13.78,13.78,0,0,0-7.47,5.75c-15.77,23.86-29.37,49.05-42.43,74.47q-5.52,10.76-11,21.55L185.69,224l28.44-57.32,8-16.12a13.34,13.34,0,0,0,1.26-9.63,12.77,12.77,0,0,0-5.74-7.47,12.61,12.61,0,0,0-9.64-1.26,13.11,13.11,0,0,0-7.47,5.74Q186.79,161,173,184.19a104.47,104.47,0,0,1-6.85,10.46l1.95-2.53a39.62,39.62,0,0,1-6.64,6.81l2.53-2c-.85.65-1.72,1.25-2.62,1.81l18.36,14.12a299,299,0,0,1,11.85-33.52l-1.26,3a300,300,0,0,1,13.74-28.23L182.5,141.51q-13.12,25.22-24.6,51.24-3.81,8.67-7.46,17.43a9.48,9.48,0,0,0-.23,5,9.27,9.27,0,0,0,1.49,4.65,12.87,12.87,0,0,0,6,5.11,12,12,0,0,0,8.14.63c2.88-.93,6.22-2.83,7.47-5.74l22.93-53.23,6.52-15.14a9.25,9.25,0,0,0,1.48-4.65,9.48,9.48,0,0,0-.22-5,12.51,12.51,0,0,0-15.38-8.73,13.85,13.85,0,0,0-7.47,5.74C168.2,158,158.7,179.11,149.8,200.38c-2.42,5.78-4.78,11.59-7.14,17.4l24.11,6.65A292.26,292.26,0,0,0,175.69,184l.45-3.32a9.51,9.51,0,0,0-1.08-4.82,11.89,11.89,0,0,0-5.11-6c-4.87-2.57-11.19-2.16-15.15,2A132.42,132.42,0,0,0,135,198.2c-3.83,6.75-7.27,14.45-4.9,22.35,2.2,7.3,8.14,12.23,14.72,15.56,10.25,5.19,21.74,8,32.86,10.71a325.12,325.12,0,0,0,32,6,347.36,347.36,0,0,0,39.58,3.26,12.67,12.67,0,0,0,8.84-3.66,12.94,12.94,0,0,0,3.44-7.18,11.94,11.94,0,0,0-1.49-8,14.06,14.06,0,0,0-7.47-5.75l-6.52-2.4L251.59,250c.18-.16.37-.31.56-.46l-2.53,2a8.8,8.8,0,0,1,1.51-.89l-3,1.26a10,10,0,0,1,2.33-.66l-3.32.45a14.82,14.82,0,0,1,4,.05l-3.33-.45c4.47.68,8.5,2.87,12.95,3.62a30.37,30.37,0,0,0,12.05.05,19.64,19.64,0,0,0,5.37-2.11,23.35,23.35,0,0,0,3.45-2.56,9.08,9.08,0,0,0,1.18-1.14c2.09-2.43,3.81-5.49,3.66-8.84a13,13,0,0,0-2.68-7.57,12.55,12.55,0,0,0-16.13-3.22,5.2,5.2,0,0,1-.62.32l3-1.26a6.87,6.87,0,0,1-1.35.35l3.33-.44a8.18,8.18,0,0,1-1.4,0l3.32.44a6.87,6.87,0,0,1-1.35-.35l3,1.26a6.62,6.62,0,0,1-1.21-.69l2.53,2-.27-.23-8.84,21.34a270.88,270.88,0,0,0,50.82-4.68,252,252,0,0,0,46-13.17A281.5,281.5,0,0,0,391.84,222a12.57,12.57,0,0,0,5.75-7.47,13.62,13.62,0,0,0-1.26-9.63c-4.45-8.52-8.9-17.05-14.06-25.17a161,161,0,0,0-19.83-25.07C355,146.9,347.56,139.4,339,132.92c-8.31-6.28-17.87-10.66-27.59-14.25-5-1.85-10.11-3.4-15.26-4.8-7-1.91-14.63-3.43-21.78-1.11a12.59,12.59,0,0,0-9,13.72,11.89,11.89,0,0,0,3.44,7.17,13.64,13.64,0,0,0,8.84,3.66c2.74.17,5.46.43,8.18.79l-3.32-.45q3.6.49,7.15,1.22L293,114.32a28.78,28.78,0,0,1-6.94-.11l3.33.45c-7.42-1-14.47-3.91-21.83-5.3a118.84,118.84,0,0,0-24.24-2.18,121.61,121.61,0,0,0-24.18,3,115.94,115.94,0,0,0-22.87,8,111.4,111.4,0,0,0-33.13,23.73,121.57,121.57,0,0,0-13.65,17,115.75,115.75,0,0,0-10.32,19.85c-3.39,8.12-6,16.55-8.66,24.91-.61,1.88-1.34,3.76-1.81,5.68a15.88,15.88,0,0,0,0,8.1,13.68,13.68,0,0,0,9.24,9.34,13.28,13.28,0,0,0,16.3-9.46A13.11,13.11,0,0,0,151,204.76a12.87,12.87,0,0,0-12.55-3.25,13,13,0,0,0-7.47,5.74,12.81,12.81,0,0,0-1.26,9.63,12.65,12.65,0,0,0,5.75,7.47,12.89,12.89,0,0,0,9.63,1.26Z" transform="translate(-85.71 -105.28)"/></g><path class="cls-4" d="M212.5,245a181.72,181.72,0,0,1,9.78-30.55l-.76,1.79a179.68,179.68,0,0,1,10.66-21.21,104.4,104.4,0,0,1,6-9.27c.13-.16.26-.33.38-.5.48-.65-.59.77-.54.7a10.47,10.47,0,0,1,.78-1c.6-.75,1.23-1.49,1.88-2.21a48.4,48.4,0,0,1,3.78-3.8c.41-.37.82-.73,1.25-1.08.24-.21,1.54-1.23.53-.44s.31-.21.57-.4l1.34-.89a34.78,34.78,0,0,1,4.91-2.58l-1.79.76a36.86,36.86,0,0,1,9.28-2.51l-2,.27a36.47,36.47,0,0,1,9.22,0l-2-.27a33.86,33.86,0,0,1,8.46,2.29l-1.79-.75a30,30,0,0,1,5.58,3.13c.22.16,1,.74,0,0s-.06,0,.12.11c.38.32.75.65,1.12,1A32.57,32.57,0,0,1,281.6,180l.95,1.12c.78.94-.92-1.23-.39-.51.15.2.29.4.44.59q.9,1.28,1.71,2.61a48.66,48.66,0,0,1,3,5.94l-.76-1.79a93.12,93.12,0,0,1,5.22,18.69c1.5,7.82,2.79,15.68,4.17,23.51l2.5,14.24,7.23-9.49a443.62,443.62,0,0,1-73.13,3.67q-10.32-.34-20.63-1.17l6.48,11.29,18.8-40.73a8.13,8.13,0,0,0,.75-5.78,7.49,7.49,0,0,0-13.7-1.8A83.74,83.74,0,0,0,212.75,236a7,7,0,0,0,1.61,4.55,7.17,7.17,0,0,0,3.9,2.68c3.13.72,6.9-.42,8.47-3.44l13.57-26.17-13.71-5.78a119.25,119.25,0,0,0-6.83,28.49l.27,2a5.71,5.71,0,0,0,1.34,2.55,7.19,7.19,0,0,0,3.9,2.69,7.87,7.87,0,0,0,8.47-3.45,129.22,129.22,0,0,0,15.61-31.22c1.22-3.53-1.11-7.48-4.34-8.85s-7.75-.31-9.36,3.07A108.08,108.08,0,0,0,226,234.26c-.29,2-.4,4,.75,5.78a7.84,7.84,0,0,0,3.59,3.07,7.49,7.49,0,0,0,9.37-3.07q8.49-14.86,16-30.28L242,204l-8.12,27a7.51,7.51,0,0,0,13.71,5.78l13.78-25.4-13.71-5.78-9.3,31.22a7.51,7.51,0,0,0,4.35,8.85c3.26,1.38,7.65.27,9.36-3.07l14.87-29-13.7-5.78-8.69,26.56c-1.16,3.55,1.07,7.46,4.35,8.84a7.57,7.57,0,0,0,9.36-3.07,160.55,160.55,0,0,0,12.49-22.23L257,212.12l-7.17,23a7.5,7.5,0,0,0,4.34,8.85c3.62,1.53,7.19,0,9.37-3.07a85.27,85.27,0,0,0,10.38-20.26l-14.47-4-6.24,20.91a7.51,7.51,0,0,0,4.34,8.85c3.25,1.37,7.68.27,9.37-3.07l12.84-25.44-13.71-5.78L258.53,237a7.51,7.51,0,0,0,13.71,5.78l14.52-25.59-13.71-5.77-8.85,24.12a7.54,7.54,0,0,0,.75,5.78,7.84,7.84,0,0,0,3.59,3.07,7.54,7.54,0,0,0,9.36-3.07l14.24-22.75-13.71-5.78-6.66,21.91a7.48,7.48,0,0,0,4.34,8.84c3.64,1.54,7.16,0,9.37-3.07a158.29,158.29,0,0,0,13.06-21.72l-13-7.57a101.53,101.53,0,0,0-7.45,23.8,8.19,8.19,0,0,0,.38,4.89,7.07,7.07,0,0,0,3.07,3.58c2.82,1.49,6.84,1.39,9.08-1.17a74.07,74.07,0,0,0,12.41-19.2l-13.71-5.78-4.81,18.1a7.5,7.5,0,0,0,12.54,7.29,44,44,0,0,0,9.29-14.79l-14.46-4-2.44,7.72,14.73,2a161.6,161.6,0,0,0-8.38-50.33A7.59,7.59,0,0,0,289.6,178c-2.71-.36-6.24.89-7.47,3.58a143.36,143.36,0,0,0-8.55,23.77,7.52,7.52,0,0,0,4.34,8.84,7.22,7.22,0,0,0,4.89.38c1.72-.56,3.73-1.7,4.48-3.44a56.93,56.93,0,0,0,4.8-27.93c-.29-3.06-1.65-5.6-4.61-6.85a7.49,7.49,0,0,0-8.19,1.55,49.23,49.23,0,0,0-13.05,25.34A8.06,8.06,0,0,0,267,209a7.66,7.66,0,0,0,4.48,3.45,7.57,7.57,0,0,0,5.78-.76,8.66,8.66,0,0,0,3.45-4.48,94.1,94.1,0,0,0,4.35-12.87,41.89,41.89,0,0,0,.69-16.31c-.38-2.5-2.94-4.61-5.23-5.24a7.75,7.75,0,0,0-7.3,1.93,39.66,39.66,0,0,0-9.33,11.55A44.11,44.11,0,0,0,259.06,202l.27,2a5.61,5.61,0,0,0,1.34,2.55,7.19,7.19,0,0,0,3.9,2.69c3.15.72,6.89-.43,8.47-3.45a66.44,66.44,0,0,0,7.57-27.88A7.47,7.47,0,0,0,276,171a7.7,7.7,0,0,0-8.19,1.55A48.12,48.12,0,0,0,251.59,201a8,8,0,0,0,.76,5.78,7.71,7.71,0,0,0,3.59,3.06,7.53,7.53,0,0,0,9.36-3.06A69.68,69.68,0,0,0,272,193.11c1.64-4.48,3.35-9.62,1.67-14.34-1.3-3.67-3.95-6.58-7.95-7.12a8.93,8.93,0,0,0-7.23,2.19c-.81.68-1.59,1.4-2.35,2.14A46.69,46.69,0,0,0,247.91,187,45.51,45.51,0,0,0,243,201.58a8.4,8.4,0,0,0,.38,4.88,7.18,7.18,0,0,0,3.07,3.59,7.71,7.71,0,0,0,9.09-1.18,45.59,45.59,0,0,0,12.88-27.58c.33-3.18-.6-7-3-9.27a9.89,9.89,0,0,0-12.53-1.08,45.77,45.77,0,0,0-11.25,11.43A44.91,44.91,0,0,0,234.9,197a7.54,7.54,0,0,0,11,8.47,29.36,29.36,0,0,0,10.67-10c2.85-4.35,5.09-10.46,4.08-15.68a9.42,9.42,0,0,0-9.82-7.38,15.69,15.69,0,0,0-8,3.31,43,43,0,0,0-10.39,10.75,38.36,38.36,0,0,0-5.8,14,7.64,7.64,0,0,0,2.69,7.88c2.18,1.69,5.93,2.34,8.33.59a30.27,30.27,0,0,0,9.71-11.13,29.9,29.9,0,0,0,2.55-7.23,41.11,41.11,0,0,0,.58-4.26,8,8,0,0,0-4.15-7.63,10.07,10.07,0,0,0-10.75.74,22.68,22.68,0,0,0-6.08,7.19,89.73,89.73,0,0,0-6.77,14,7.54,7.54,0,0,0,.76,5.78,7.49,7.49,0,0,0,10.26,2.69,8.61,8.61,0,0,0,3.45-4.48c.27-.7.56-1.4.85-2.1l-.76,1.79A80.69,80.69,0,0,1,241.4,196q1.13-2,2.37-3.87c.09-.14.58-.71.57-.85,0,.26-1.31,1.52-.35.58s-.55.27-.56.36c0-.16.78-.45.89-.5l-1.79.75a4.48,4.48,0,0,1,.89-.23l-2,.26a1.87,1.87,0,0,1,.58,0l-2-.27.28.07-1.8-.75c.65.31.39.09-.76-.67l-2.2-5.31c0,.64-.09,1.27-.17,1.91l.26-2A22.93,22.93,0,0,1,234.1,191l.76-1.79a31.75,31.75,0,0,1-2.86,5c1.3-2,.38-.51-.05,0-.25.29-.52.57-.79.84s-.73.7-1.12,1c-1.49,1.28,1.06-.75,0,0l11,8.47a34,34,0,0,1,2-6.54l-.75,1.8a33,33,0,0,1,2.45-4.72c.4-.64.82-1.27,1.27-1.89,1.15-1.58-.85,1,0,0,.24-.29.48-.59.73-.87a32.85,32.85,0,0,1,3.52-3.46c.21-.17,1.56-1.24.42-.36s.25-.16.47-.31a16.63,16.63,0,0,1,2.18-1.32l-1.79.76a6.06,6.06,0,0,1,1.31-.42l-2,.27a3.78,3.78,0,0,1,.95,0l-2-.27a2.05,2.05,0,0,1,.58.18l-1.8-.75c-1.82-2.28-2.42-2.84-1.8-1.7l-.76-1.8a2.54,2.54,0,0,1,.17.71l-.26-2a7.64,7.64,0,0,1-.07,1.51l.27-2a22.74,22.74,0,0,1-1.42,5l.75-1.79a21.93,21.93,0,0,1-1.63,3.11c-.17.27-1,1.08-.94,1.37,0-.21,1.25-1.55.37-.5-.2.24-.4.47-.61.7a32.61,32.61,0,0,1-2.42,2.28c1.8-1.63.3-.25-.29.13s-1.05.63-1.6.92l11,8.47a41.87,41.87,0,0,1,1.76-5.24l-.75,1.79a40.07,40.07,0,0,1,2.49-4.94c.41-.68.83-1.35,1.28-2,.29-.44.61-.86.91-1.29.78-1.09-1.11,1.37-.2.26a42.8,42.8,0,0,1,3.48-3.78c.67-.64,1.36-1.25,2.07-1.84l.46-.37-.73.57c.49-.22.91-.63,1.42-.85l-1.79.75a2.59,2.59,0,0,1,.78-.17l-2,.27.4,0-2-.27a2,2,0,0,1,.54.17l-1.79-.75a5.55,5.55,0,0,1-1.9-2,2.42,2.42,0,0,1,.27.5l-.75-1.79a5.78,5.78,0,0,1,.32,1.17l-.27-2a11.71,11.71,0,0,1-.11,3.07l.27-2A38.48,38.48,0,0,1,251,189.6l.76-1.79a39,39,0,0,1-3.32,6.21c-.29.45-.6.89-.91,1.32s-1.06,1.26.32-.39l-.5.63c-.77.94-1.59,1.83-2.44,2.69l12.53,7.29a40.57,40.57,0,0,1,2.67-9.53l-.76,1.79a41,41,0,0,1,4.48-7.93c.34-.47,1.27-1.37-.22.25.22-.24.42-.52.63-.77.46-.56.94-1.11,1.44-1.64a38.2,38.2,0,0,1,3.45-3.28l-3.31,1.93a1.89,1.89,0,0,1,.48-.13l-2,.27a1.62,1.62,0,0,1,.44,0l-2-.27a1.42,1.42,0,0,1,.4.12l-1.79-.76c.85.44-1.52-1.38-.83-.64-.22-.24-1.2-1.8-.65-.67l-.75-1.8a7.26,7.26,0,0,1,.45,1.64l-.26-2a8.87,8.87,0,0,1,0,2.06l.27-2a43.94,43.94,0,0,1-3,9.41l.76-1.79a62.44,62.44,0,0,1-5,9.43L266.06,205a42.52,42.52,0,0,1,2.76-9.56l-.76,1.79a43.73,43.73,0,0,1,4.72-8.31c.35-.47,1.29-1.33-.2.25.27-.29.5-.62.75-.93.52-.61,1.05-1.2,1.59-1.78a43.25,43.25,0,0,1,3.49-3.28l-12.8-5.3c-.08,1.64-.22,3.29-.43,4.92l.27-2a58.74,58.74,0,0,1-4,14.71l.76-1.79q-1,2.26-2.12,4.46l14,3.79.05-.39-.27,2a35.13,35.13,0,0,1,2.39-8.72l-.76,1.79a37.53,37.53,0,0,1,3.88-6.84c.59-.85-.41.42-.46.57a4.6,4.6,0,0,1,.74-.92c.38-.45.77-.89,1.18-1.33a35,35,0,0,1,3-2.84L271.28,182l.07.46-.27-2a30.43,30.43,0,0,1,0,7.92l.27-2c-.82,5.83-2.93,11.35-5.08,16.8l14.46,4a42.91,42.91,0,0,1,2.77-9.43l-.75,1.79a42.79,42.79,0,0,1,3.48-6.51c.3-.46.61-.91.93-1.36l.61-.83c.54-.75-1,1.26-.42.55.84-1,1.67-2,2.57-2.93l-12.8-5.31a50.53,50.53,0,0,1-.18,11.2l.26-2a49.86,49.86,0,0,1-3.41,12.52l.75-1.79-.17.42L288,209.3a134.43,134.43,0,0,1,6.1-18.12l-.75,1.79c.54-1.29,1.11-2.57,1.69-3.85l-13.71-1.79a155.92,155.92,0,0,1,6.78,29l-.27-2a158.58,158.58,0,0,1,1.34,19.35,7.51,7.51,0,0,0,14.73,2l2.44-7.72a7.5,7.5,0,0,0-11-8.47,8.65,8.65,0,0,0-3.44,4.48l-.47,1.16.75-1.8a35.18,35.18,0,0,1-2.85,5.31c-.27.41-.55.81-.83,1.2-.16.23-.33.45-.5.67.71-.91.89-1.14.53-.7-.67.8-1.35,1.59-2.07,2.34l12.54,7.3,4.81-18.1a7.53,7.53,0,0,0-4.35-8.85c-3.1-1.31-7.87-.36-9.36,3.07a69.28,69.28,0,0,1-4.8,9.1q-1.35,2.13-2.85,4.16c-.34.45-1.31,1.34.11-.13-.3.31-.55.7-.82,1-.56.68-1.12,1.35-1.7,2L292.6,239a94.59,94.59,0,0,1,6-20.32l-.75,1.79c.24-.57.48-1.13.73-1.69a8.13,8.13,0,0,0,.76-5.78,7.6,7.6,0,0,0-3.45-4.48c-3.39-1.8-8.39-1.06-10.26,2.69a158.35,158.35,0,0,1-13.07,21.72l13.71,5.78,6.66-21.9a7.51,7.51,0,0,0-13.7-5.78L265,233.79l13.71,5.78,8.85-24.13a7.54,7.54,0,0,0-.75-5.78,7.76,7.76,0,0,0-3.59-3.06,7.49,7.49,0,0,0-9.37,3.06l-14.51,25.59L273,241l7.54-24.93a7.5,7.5,0,0,0-4.35-8.85c-3.24-1.37-7.67-.28-9.36,3.07L254,235.76l13.71,5.78,6.24-20.91c1.12-3.76-1.35-8.34-5.24-9.23a7.7,7.7,0,0,0-9.23,5.24c-.5,1.4-1,2.77-1.61,4.14l.75-1.79a78.55,78.55,0,0,1-8,14.33l13.71,5.78,7.16-23a7.49,7.49,0,0,0-4.34-8.85c-3.15-1.33-7.8-.33-9.36,3.07a160.55,160.55,0,0,1-12.49,22.23L259,238.34l8.68-26.55c1.16-3.56-1.07-7.47-4.34-8.85s-7.66-.27-9.37,3.07L239.1,235l13.71,5.78,9.29-31.22a7.51,7.51,0,0,0-13.7-5.78l-13.78,25.4L248.33,235l8.11-27a7.5,7.5,0,0,0-4.34-8.85c-3.2-1.35-7.73-.3-9.36,3.07q-7.49,15.41-16,30.28l13.71,5.78a102.61,102.61,0,0,1,7-25.19l-.75,1.79c.6-1.41,1.23-2.8,1.89-4.19l-13.71-5.78c-.92,2.68-1.94,5.32-3,7.93l.76-1.79a122.83,122.83,0,0,1-11.82,21.5l14,3.78.24-1.87-.27,2a112.7,112.7,0,0,1,6.32-24.63,7.5,7.5,0,0,0-.75-5.78,7.76,7.76,0,0,0-3.59-3.06c-3.27-1.39-7.64-.27-9.37,3.06l-13.56,26.18,14,3.78c.1-1,.21-2.06.35-3.09l-.27,2a76,76,0,0,1,5.26-19.25l-.75,1.79a76.42,76.42,0,0,1,4.86-9.49l-12.95-7.58-18.8,40.74c-1.16,2.5-1.46,5.08,0,7.57a7.73,7.73,0,0,0,6.47,3.71,443.1,443.1,0,0,0,73.22-.24q10.31-.88,20.54-2.26c2.46-.33,4.32-.93,5.89-3a7.68,7.68,0,0,0,1.34-6.53l-4.22-24.06c-1.18-6.7-2.23-13.45-3.79-20.07-3.1-13.18-9-26.42-20.95-33.78-12.14-7.47-27.92-7.15-40.44-.86-12.88,6.48-21.12,19.71-27.72,32A187.5,187.5,0,0,0,198,241.05c-.86,3.82,1.16,8.3,5.24,9.23,3.8.86,8.3-1.15,9.22-5.24Z" transform="translate(-85.71 -105.28)"/><path class="cls-5" d="M241.64,230.58a15.51,15.51,0,0,1,3.42-2l-1.79.75a19.33,19.33,0,0,1,4.22-1.12l-2,.27a24.25,24.25,0,0,1,6,0l-2-.26a43.78,43.78,0,0,1,11,3.32l-1.79-.76,3.39,1.49a8.18,8.18,0,0,0,5.78.75,7.5,7.5,0,0,0,5.24-9.22c-.56-1.74-1.7-3.71-3.45-4.48-6.11-2.72-12-5.19-18.73-5.91-5.7-.6-12.23.68-16.85,4.19a8.24,8.24,0,0,0-3.45,4.48,7.67,7.67,0,0,0,.76,5.78,7.59,7.59,0,0,0,4.48,3.45c1.83.41,4.21.43,5.78-.76Z" transform="translate(-85.71 -105.28)"/><path class="cls-6" d="M244.46,201.47v0l-.18,1.33a.29.29,0,0,1,0-.09l-.5,1.19a.22.22,0,0,1,.05-.08l-.78,1a.23.23,0,0,1,.07-.07l-1,.78a.41.41,0,0,1,.11-.07l-1.19.51.11,0-1.32.18H240l-1.33-.18a.32.32,0,0,1,.09,0l-1.19-.51.07,0-1-.78.06.05-.79-1a.22.22,0,0,1,0,.08l-.5-1.2,0,.11-.18-1.33v.12l.18-1.33a.5.5,0,0,1,0,.13l.5-1.19a.47.47,0,0,1-.05.1l.78-1a.46.46,0,0,1-.07.07l1-.78-.07.05,1.19-.51-.06,0a3.64,3.64,0,0,0-1.7.9,3.86,3.86,0,0,0-1.29,1.4,5.62,5.62,0,0,0-.5,3.85l.5,1.2a5.14,5.14,0,0,0,1.8,1.79l1.19.5a5,5,0,0,0,2.66,0h.05a13.14,13.14,0,0,0,1.22-.52l0,0a11.32,11.32,0,0,0,1.05-.81l0,0c.28-.31.95-1.23.8-1a.22.22,0,0,0,.05-.08,5.47,5.47,0,0,0,.73-2.68v-.09c0-.46-.11-.91-.18-1.37l0-.05a5.32,5.32,0,0,0-1.36-2.34,5.39,5.39,0,0,0-2.36-1.38h0a12.52,12.52,0,0,0-1.37-.18h0c-.44,0-1.72.24-1.37.18l-.1,0c-.41.15-.82.34-1.22.52l-.06,0,0,0c-.35.26-.72.52-1,.82l0,0c-.28.33-.55.68-.8,1l0,.05a11.05,11.05,0,0,0-.52,1.23.11.11,0,0,0,0,.05,10.89,10.89,0,0,0-.19,1.38,3.88,3.88,0,0,0,.43,1.93,4.5,4.5,0,0,0,2.65,2.64,3.72,3.72,0,0,0,1.92.43l1.33-.18A4.94,4.94,0,0,0,243,205l.78-1a5,5,0,0,0,.68-2.53Z" transform="translate(-85.71 -105.28)"/><path class="cls-6" d="M270.59,208.24a5,5,0,1,0-5-5,5.06,5.06,0,0,0,5,5Z" transform="translate(-85.71 -105.28)"/><circle class="cls-7" cx="27.79" cy="151.22" r="4.5"/><circle class="cls-7" cx="56.79" cy="168.22" r="4.5"/><circle class="cls-7" cx="93.79" cy="176.22" r="4.5"/><circle class="cls-7" cx="130.79" cy="179.22" r="4.5"/><circle class="cls-7" cx="166.79" cy="181.22" r="4.5"/><path class="cls-7" d="M253,288v0Z" transform="translate(-85.71 -105.28)"/><circle class="cls-7" cx="200.79" cy="180.22" r="4.5"/><circle class="cls-7" cx="237.79" cy="175.22" r="4.5"/><circle class="cls-7" cx="267.79" cy="169.22" r="4.5"/><circle class="cls-7" cx="301.79" cy="158.22" r="4.5"/><circle class="cls-7" cx="330.79" cy="139.22" r="4.5"/></g><g id="outline"><path class="cls-5" d="M219,190.2c5.22-9.08,11.75-17.7,20.37-23.8,8.37-5.93,18.62-9.22,28.92-8.29,10.12.91,18.61,6.73,24.22,15,6.5,9.63,9,21.13,11.31,32.35,2.83,14,5.71,28.09,5.43,42.44l1.84-2.41c-14.81,4-30.11,5.34-45.4,5.76-7.62.21-15.25.21-22.87.2-7.09,0-14.2-.05-21.26-.76a65.37,65.37,0,0,1-22.31-5.89L200.5,247a155.83,155.83,0,0,1,12.31-44.5c1.88-4.2,3.93-8.31,6.2-12.31,1.6-2.8-2.72-5.32-4.31-2.52a156,156,0,0,0-17,45.55c-.94,4.56-1.67,9.16-2.23,13.78a2.41,2.41,0,0,0,1.24,2.16c13.35,6.57,28.38,7.25,43,7.32,15.46.07,31,.14,46.37-1.44a166.44,166.44,0,0,0,26.32-4.69,2.56,2.56,0,0,0,1.83-2.41c.27-13.5-2.22-26.83-4.85-40C307,195.78,304.59,183.2,298,172.46c-5.8-9.45-14.67-16.8-25.77-18.82s-22.5.57-32,6.24c-11,6.55-19.24,16.83-25.54,27.8C213.09,190.47,217.41,193,219,190.2Z" transform="translate(-85.71 -105.28)"/><path class="cls-5" d="M250.7,226.15a36.6,36.6,0,0,0-11.6,1.21,11,11,0,0,1-4.49.69c-.79-.14-1.9-.6-1.94-1.49-.06-1.11,1-2.47,1.63-3.32a16.82,16.82,0,0,1,2.53-2.8,18,18,0,0,1,6.22-3.6,18.18,18.18,0,0,1,7.39-.9,15.31,15.31,0,0,1,3.34.72c1.54.5,3.13.79,4.68,1.26a33.7,33.7,0,0,1,8.77,4.14c1.65,1.09,4.88,2.92,3.32,5.2-1.87,2.76-5.43,2.23-8.19,1.47-3.91-1.08-7.57-2.27-11.66-2.58a2.5,2.5,0,0,0,0,5c4.21.32,8,2,12.06,2.82s8.22.33,11.08-2.84a7.29,7.29,0,0,0-.09-10.28c-2.68-2.82-6.54-4.83-10.08-6.33A38.43,38.43,0,0,0,258,212.6c-1.67-.41-3.3-1-5-1.31a22.34,22.34,0,0,0-10.09.38,24.15,24.15,0,0,0-8.8,4.58,18.45,18.45,0,0,0-6.11,8.39c-1.49,5,3.2,8.7,7.85,8.43,2.54-.15,4.93-1.07,7.42-1.54a31.13,31.13,0,0,1,7.47-.38C253.92,231.35,253.9,226.35,250.7,226.15Z" transform="translate(-85.71 -105.28)"/><path class="cls-5" d="M265.86,192.22a9.53,9.53,0,0,1,.81-1.51l.29-.42c.26-.38-.23.26,0,0s.37-.43.57-.64.4-.4.61-.59l.33-.28c.42-.37-.31.21,0,0a13.52,13.52,0,0,1,1.53-1,6.82,6.82,0,0,0,.77-.37c-.21.15-.38.16,0,0l.4-.15a16.13,16.13,0,0,1,1.66-.42c.58-.12-.58,0,0,0l.34,0c.32,0,.63,0,.94,0s.57,0,.85.05c.54.05,0-.06-.07,0a1.82,1.82,0,0,1,.51.09,2.5,2.5,0,1,0,1.33-4.82c-5.94-1.21-12.6,1.83-15.09,7.49a2.5,2.5,0,0,0,4.32,2.53Z" transform="translate(-85.71 -105.28)"/><path class="cls-5" d="M274.16,196.72c-1.17-2.72-5-3.1-7.28-1.72-2.64,1.58-3.26,4.9-3.15,7.74.1,2.41.72,5.2,2.63,6.85a5.68,5.68,0,0,0,4.77,1.34,6.3,6.3,0,0,0,3.56-2.07,7.83,7.83,0,0,0,1.91-5.1,15,15,0,0,0-1.11-5.37,2.5,2.5,0,1,0-4.82,1.33,11.66,11.66,0,0,1,.92,3.31c0-.62,0,.16,0,.33s0,.59,0,.89.11-.42,0-.07c0,.12-.05.25-.08.37l-.09.3c-.14.41-.09,0,0-.09a4.27,4.27,0,0,0-.31.56l-.09.13c-.12.17-.12.17,0,0l.09-.13-.15.18-.23.22c-.1.09-.34.2,0,.06s0,0-.06,0l-.33.19c-.35.21.11-.07.18-.07a1.8,1.8,0,0,0-.28.09c-.07,0-.57.14-.11,0s.08,0,0,0c-.6,0,.49.15-.08,0l-.26-.08c-.28-.07.52.28.18.06l-.23-.13c-.4-.22.36.34.15.12a4.21,4.21,0,0,0-.37-.36c-.22-.21.31.45.15.19,0-.07-.1-.14-.15-.22a5.45,5.45,0,0,1-.29-.53c-.24-.43.16.46.06.15l-.1-.27c-.06-.18-.12-.36-.17-.55s-.09-.37-.13-.56a2.93,2.93,0,0,1-.05-.29,1.61,1.61,0,1,0,0,.17c0-.92-.13-1.81-.05-2.73.06-.65-.09.46,0-.17,0-.22.09-.43.15-.65l.1-.31,0-.08c.08-.2.08-.2,0,0L269,200a2.12,2.12,0,0,0,.11-.21c.08-.15.18-.28.26-.42s-.33.33-.08.13a1.75,1.75,0,0,0,.23-.24c-.21.35-.43.3-.21.17a1.92,1.92,0,0,0,.32-.18s-.61.21-.25.1c.12,0,.24-.08.36-.1l.25,0c-.13,0-.64,0-.23,0H270c.43,0-.15,0-.25,0a1.55,1.55,0,0,0,.23.05c.4.07-.49-.29-.16-.08.51.32-.41-.39,0,0,.2.18-.11.14-.18-.23a2.39,2.39,0,0,0,.16.32,2.49,2.49,0,0,0,3.42.89,2.46,2.46,0,0,0,1.15-1.49,2.94,2.94,0,0,0-.25-1.93Z" transform="translate(-85.71 -105.28)"/><path class="cls-5" d="M239.32,186.34a18.81,18.81,0,0,1,2.88.67c.47.15.93.33,1.4.51.29.11-.47-.21,0,0l.32.15.7.34a19.58,19.58,0,0,1,2.51,1.57c.06,0,.38.28.1.07s0,0,.08.08c.21.16.41.33.6.5.39.35.77.72,1.13,1.1a2.5,2.5,0,0,0,3.53-3.54,21,21,0,0,0-11.88-6.25,2.81,2.81,0,0,0-1.93.25,2.58,2.58,0,0,0-1.15,1.5c-.27,1.19.37,2.86,1.75,3.07Z" transform="translate(-85.71 -105.28)"/><path class="cls-5" d="M243.1,194.46a4.48,4.48,0,0,0-5-1.88,5.71,5.71,0,0,0-3.64,3.28,15.43,15.43,0,0,0-1.6,7.74,6.77,6.77,0,0,0,1.75,4.08,5.7,5.7,0,0,0,4.38,1.69,7.7,7.7,0,0,0,6.77-6.46,12,12,0,0,0,.09-5.43c-.57-2.07-2.42-3.85-4.71-3.16a2.5,2.5,0,1,0,1.33,4.82c.37-.12-.3,0-.32,0l-.45-.06c-.41-.2-.52-.25-.35-.14s-.46-.38-.25-.18-.27-.48-.16-.2a2.53,2.53,0,0,0,.12.23c.17.25-.17-.62-.07-.15,0,.12.18.81.11.35s0,.32,0,.44,0,.5,0,.75,0,.5,0,.75a1.54,1.54,0,0,1,0,.37c0-.32,0-.39,0-.2s0,.18,0,.27a11.26,11.26,0,0,1-.42,1.51c-.11.33.21-.39,0-.1l-.17.33-.19.32c-.3.47.15-.14,0,0s-.28.3-.44.45c-.38.34,0-.08.07,0s-.29.19-.26.18c-.18.11-.39.18-.56.3.42-.28.36-.14.16-.08l-.44.12c-.32.08,0-.13.21,0a1.45,1.45,0,0,0-.3,0,1.48,1.48,0,0,0-.3,0c.21-.12.53.11.21,0,0,0-.28-.09-.29-.08s.54.27.11,0l-.23-.14c-.37-.22.09,0,.14.11,0,0-.56-.61-.23-.2s-.06-.14-.11-.23,0-.36.07.2a1.7,1.7,0,0,0-.09-.24c-.06-.21-.11-.43-.15-.64-.09-.41.05.64,0,0,0-.18,0-.37,0-.56s0-.38,0-.58l0-.29c0-.42.05-.2,0,.08.21-.83.34-1.67.61-2.49.08-.26.17-.51.26-.77l.12-.32c.1-.29-.22.46,0,.05.13-.26.27-.5.41-.74s0,.08-.1.1a2.39,2.39,0,0,0,.35-.36c-.12.3-.39.25-.15.13l.19-.1-.28.12a1.76,1.76,0,0,0,.27-.07c.48-.15-.61.05-.11,0,.27,0,.1.14-.26-.06.07,0,.48.19.08,0s0,0,0,.05c-.17,0-.66-.74-.46-.41a2.5,2.5,0,0,0,4.32-2.53Z" transform="translate(-85.71 -105.28)"/><path class="cls-5" d="M398.7,213.21c-7,6.16-15.64,10.61-23.82,15a129.14,129.14,0,0,1-26.3,10.36,375.58,375.58,0,0,1-56.94,10.77c-38.19,4.52-77.37,3.78-114.84-5.42C159,239.56,141,232.8,128.24,219.14a2.59,2.59,0,0,0-3-.39C109.86,225.46,94.32,234.57,88,251a31.75,31.75,0,0,0-.18,23.08,42.27,42.27,0,0,0,13.31,17.13c13,10.3,29.57,15.71,45.5,19.42,17.88,4.16,36.23,5.87,54.5,7.21,19.69,1.45,39.42,2.87,59.17,3a373.11,373.11,0,0,0,56.37-3.78,363.43,363.43,0,0,0,55.09-12.38q13.47-4.15,26.59-9.34c7.88-3.13,15.74-6.56,22.76-11.38,13-8.89,23.32-23.81,20.41-40.21-2.6-14.72-16.21-23.57-28.93-29.07-3.25-1.4-6.55-2.68-9.88-3.89l1.49,1.15c-12.2-22.87-26.28-45.09-44.69-63.51C342,131,320.74,117.23,296.68,111c-13.22-3.45-26.92-4.89-40.54-5.45-13.19-.54-26.34-.27-39.23,2.85a118.76,118.76,0,0,0-59.5,35.89c-16.35,18.14-27.25,40.92-32.13,64.79-.61,2.95-1.11,5.92-1.54,8.9a2.58,2.58,0,0,0,1.75,3.07,2.51,2.51,0,0,0,3.07-1.74c3.91-27.39,15.51-53.89,34.72-74,18.45-19.33,43.8-32.47,70.59-34.61a188.86,188.86,0,0,1,23.91-.07,211.25,211.25,0,0,1,23.16,2.21,127.54,127.54,0,0,1,41.83,13.9c25.18,13.85,44.87,35.62,60.46,59.44,4.06,6.2,7.88,12.56,11.51,19,.93,1.63,1.84,3.28,2.74,4.93.82,1.5,1.53,3.71,2.77,4.91,1,.95,2.84,1.27,4.1,1.75q2.22.84,4.43,1.74c10.23,4.23,21.44,10.28,26.17,20.89,5.38,12.08-.48,25.93-9.39,34.59-10.31,10-24.47,15.22-37.72,20.06a360.79,360.79,0,0,1-91.45,20.43c-32.28,2.88-64.65.66-96.89-1.74-15.19-1.14-30.4-2.57-45.36-5.58-14.07-2.82-28.47-6.85-41.06-13.91-10.21-5.74-20.39-14.5-22.17-26.73-2-13.88,7.66-26.33,18.48-33.72a112,112,0,0,1,18.34-9.7l-3-.39c11.76,12.55,27.86,19.71,44.16,24.32a275.56,275.56,0,0,0,56.84,9.33,357.42,357.42,0,0,0,60-1.32,422.86,422.86,0,0,0,58.28-10,144.38,144.38,0,0,0,30.54-10.91c4.94-2.51,9.77-5.29,14.55-8.09a82.8,82.8,0,0,0,13.2-9.22c2.42-2.13-1.13-5.66-3.53-3.54Z" transform="translate(-85.71 -105.28)"/></g></svg>